<?xml version="1.0" encoding="UTF-8" standalone="no"?>
<!-- Created with Inkscape (http://www.inkscape.org/) -->

<svg
   inkscape:export-ydpi="96"
   inkscape:export-xdpi="96"
   inkscape:export-filename="NixCon_poster.png"
   width="256"
   height="256"
   viewBox="0 0 67.733333 67.733334"
   version="1.1"
   id="svg4178"
   xml:space="preserve"
   inkscape:version="1.2.2 (b0a8486541, 2022-12-01)"
   sodipodi:docname="favicon.svg"
   xmlns:inkscape="http://www.inkscape.org/namespaces/inkscape"
   xmlns:sodipodi="http://sodipodi.sourceforge.net/DTD/sodipodi-0.dtd"
   xmlns="http://www.w3.org/2000/svg"
   xmlns:svg="http://www.w3.org/2000/svg"
   xmlns:rdf="http://www.w3.org/1999/02/22-rdf-syntax-ns#"
   xmlns:cc="http://creativecommons.org/ns#"
   xmlns:dc="http://purl.org/dc/elements/1.1/"><title
     id="title73791">NixCon</title><sodipodi:namedview
     id="namedview4180"
     pagecolor="#ffffff"
     bordercolor="#666666"
     borderopacity="1.0"
     inkscape:showpageshadow="2"
     inkscape:pageopacity="0.0"
     inkscape:pagecheckerboard="0"
     inkscape:deskcolor="#d1d1d1"
     inkscape:document-units="px"
     showgrid="false"
     inkscape:zoom="2.2229371"
     inkscape:cx="141.47949"
     inkscape:cy="130.45803"
     inkscape:window-width="1463"
     inkscape:window-height="841"
     inkscape:window-x="0"
     inkscape:window-y="0"
     inkscape:window-maximized="1"
     inkscape:current-layer="svg4178"
     inkscape:lockguides="false"
     showguides="true"><inkscape:grid
       type="xygrid"
       id="grid9128"
       snapvisiblegridlinesonly="true"
       visible="true"
       color="#d861e1"
       opacity="0.21568627"
       empcolor="#7d1f6e"
       empopacity="0.34117647"
       spacingx="4.5828479"
       spacingy="3.96875"
       empspacing="4"
       originx="256.63219"
       dotted="false"
       originy="571.61428"
       enabled="true" /><inkscape:grid
       type="axonomgrid"
       id="grid14379"
       empspacing="12"
       gridanglex="60"
       gridanglez="60"
       originx="256.63219"
       originy="571.61428"
       color="#3c30c6"
       opacity="0.1254902"
       spacingy="2.6458333"
       empcolor="#449355"
       empopacity="0.50196078"
       units="px" /><sodipodi:guide
       position="-104.81005,-776.53001"
       orientation="0,-1"
       id="guide453"
       inkscape:locked="false" /><sodipodi:guide
       position="-69.86364,-653.10594"
       orientation="0,-1"
       id="guide6784"
       inkscape:locked="false" /></sodipodi:namedview><defs
     id="defs4175"><rect
       x="1027.5321"
       y="1993.0062"
       width="220.50955"
       height="94.913269"
       id="rect51382" /><rect
       x="-644.89417"
       y="467.57236"
       width="570.93323"
       height="242.86934"
       id="rect4581" /><rect
       x="272.90686"
       y="811.47357"
       width="218.63672"
       height="237.05414"
       id="rect1582" /><rect
       x="111.53955"
       y="389.4021"
       width="621.83411"
       height="243.98218"
       id="rect17178" /><rect
       x="111.53955"
       y="389.4021"
       width="621.83411"
       height="243.98218"
       id="rect17178-7" /><rect
       x="111.53955"
       y="389.4021"
       width="621.83411"
       height="243.98218"
       id="rect17178-6" /><rect
       x="111.53955"
       y="389.4021"
       width="621.83411"
       height="243.98218"
       id="rect17178-7-6" /><rect
       x="111.53955"
       y="389.4021"
       width="621.83411"
       height="243.98218"
       id="rect17178-6-6" /><inkscape:path-effect
       effect="fill_between_many"
       method="originald"
       linkedpaths="#path30214,0,1"
       id="path-effect30229"
       is_visible="true"
       lpeversion="0"
       join="true"
       close="true"
       autoreverse="true" /><rect
       x="1027.5321"
       y="1993.0062"
       width="220.50955"
       height="94.913269"
       id="rect51382-9" /></defs><rect
     style="fill:#ffffff;stroke:#000000;stroke-width:0.309313"
     id="rect416"
     width="39.709358"
     height="53.873238"
     x="14.067222"
     y="6.8067451" /><path
     id="path23518-7"
     style="display:inline;fill:#000000;stroke:none;stroke-width:0.305422px;stroke-linecap:butt;stroke-linejoin:miter;stroke-opacity:1"
     inkscape:label="N"
     d="m 12.871656,6.16048 v 55.410228 l 41.990022,0.0022 -0.0011,-55.4124828 z m 2.000066,1.7284833 H 52.86195 l 8.91e-4,51.9524737 -37.991015,-0.0022 z m 36.990927,0.868863 -35.991175,1.11e-4 V 58.973473 l 35.992077,0.002 z M 42.886302,10.38124 c 0.0029,8.163479 0.185453,16.535286 0.0051,24.604396 C 34.141187,22.608812 25.124341,18.635768 25.156956,10.571538 Z M 23.34695,10.45351 c 0,3.052427 0.809929,5.689922 2.314267,7.85371 5.734093,8.146362 14.22633,13.301004 18.536328,22.486068 0.367692,0.701623 0.474121,0.90863 0.667403,0.0015 l -8.9e-4,-30.3052 h 4.998874 l 0.0011,46.754285 H 24.912938 l -0.03224,-28.892536 c 9.432819,8.858356 15.932469,16.932555 17.174692,28.8335 l -3.838919,0.05885 h 5.647786 C 43.295959,53.109395 42.408914,48.878409 40.336258,45.014553 36.438822,37.705528 30.577399,31.142559 23.788047,25.308577 c -0.115685,-0.05209 -0.217623,-0.07983 -0.307321,-0.0859 -0.0299,-0.002 -0.05845,-0.0017 -0.08568,0.0012 -0.47204,0.04666 -0.551753,0.787996 -0.525805,1.716419 l 0.039,30.428276 -5.204389,-0.124686 c 0.09509,-15.503087 0.415674,-30.541209 0.166738,-46.754349 z m 18.925048,0.597282 -16.478993,0.01996 c 0.60377,7.951225 9.767464,12.607264 16.512926,22.17559 0.24977,-7.172741 -0.03111,-18.496316 -0.03393,-22.195545 z m -9.439131,0.981939 c 0,0 0.4289,0.03897 0.628734,0.107781 0.524992,0.180782 0.433136,0.930081 0.433136,0.930081 0,0 -0.878481,1.778488 -1.403462,2.688213 -0.409171,1.038268 -0.634957,1.081761 -0.25197,1.884513 l -0.02897,-0.03743 0.03123,0.04262 c -4.46e-4,-8.92e-4 0.115005,0.113298 0.114795,0.112284 l 0.895131,1.163561 c 0.08785,0.09932 0.158015,0.177033 0.240467,0.270003 1.227706,-2.041842 2.306237,-3.997224 3.13488,-7.11765 0.385554,0.375313 1.15701,0.7033 0.740908,2.118103 -0.331094,0.666462 -0.735767,1.907539 -1.099864,2.567698 1.197884,-0.16922 1.220122,-0.297452 2.678743,-0.199318 0.313878,0.02109 2.255578,0.28244 2.351132,0.483075 -0.02886,1.038894 -0.360179,0.826611 -0.737639,0.875855 -1.119694,-0.111628 -1.86739,-0.344415 -2.990008,-0.10699 -0.80739,0.105765 -1.690176,0.274991 -2.11585,0.813624 -0.157331,0.152979 -0.396467,0.593741 -0.434151,0.625466 -0.209419,0.345313 -0.29485,0.443583 -0.570224,0.883293 1.246133,1.324419 2.21903,1.994358 4.04275,2.279656 l 1.26942,-0.0735 c 1.050332,2.23e-4 1.534688,-0.03223 1.534688,-0.03223 l 0.373949,0.647899 -0.375529,0.649702 -3.202295,0.151408 c 1.52824,2.727696 3.718428,3.737952 2.759891,5.409276 -5.869214,-6.355707 -6.910433,-7.400637 -8.807557,-9.744805 l -2.24e-4,-4.47e-4 h -1.12e-4 v -1.12e-4 c -2.474554,-2.782665 -3.465733,-4.951533 -4.521089,-6.764792 l -0.337986,-0.822994 c 1.954099,-0.004 1.935355,1.096298 3.822007,3.894951 z m 8.959548,-0.417015 0.04262,2.375255 c 0,0 -0.492158,-0.172563 -0.775406,-0.543165 -0.314208,-0.373439 -0.885083,-0.889413 -1.039886,-1.220378 -0.03715,-0.278238 -0.04476,-0.598182 -0.04476,-0.598182 z m -2.804785,2.251022 c 0.357655,-0.01614 0.747456,0.350247 1.045522,1.010348 0,0 0.0089,0.489399 -0.14419,0.672476 -0.03597,0.04189 -0.0792,0.06827 -0.13393,0.0681 -0.291746,-8.7e-4 -1.247154,-0.01704 -1.514508,-0.249599 -0.26733,-0.232571 -0.02519,-0.979723 0.404725,-1.354422 0.107483,-0.09368 0.223163,-0.141515 0.342381,-0.146896 z m 2.664165,5.486537 -0.349704,0.84898 c 0,0 -0.929078,0.318976 -1.13199,0.277784 -0.202914,-0.04119 -0.977256,0.09875 -1.154764,0.05355 -0.17751,-0.0452 -1.078452,-0.205671 -1.499221,-0.248544 -0.812066,-0.07065 -1.243452,0.264903 -1.566019,0.192916 0.01468,-0.27283 0.379663,-0.757243 0.704418,-0.904214 0.324755,-0.146972 1.223969,-0.213751 1.49444,-0.213751 0.270472,0 2.20782,0.326854 2.611667,0.21206 0.403844,-0.114795 0.848233,-0.304164 0.848233,-0.304164 z m -16.251452,10.392124 0.120634,26.929145 15.917447,0.05818 C 40.340974,45.891799 33.931337,37.743027 25.826828,30.135915 Z m 0.954996,2.059702 c 0.351795,0.007 0.990048,0.327213 1.472457,2.302656 0.166484,0.68173 -1.392865,-0.483193 -1.392865,-0.483193 l -0.34024,-1.761176 c 0,0 0.100742,-0.06152 0.260648,-0.05829 z m 0.05615,2.814931 c 2.387024,1.05538 0.288486,1.572658 2.526099,3.666095 0.461175,-0.863427 0.894075,-1.406823 1.13199,-2.498816 l 0.896824,0.390068 0.374059,0.647902 c 0,0 -0.476185,0.793882 -1.023085,1.741787 l 0.02333,-0.02875 c -0.750451,1.300766 -0.455781,1.82792 0.07181,2.729477 l -0.01623,-0.01634 0.60224,1.043267 c 1.597996,-2.687168 0.957199,-2.477039 2.883924,-2.482579 -1.316263,1.757571 -2.403078,3.871557 -3.566322,6.2622 l 0.02503,-0.03213 c -0.750424,1.300762 -0.455782,1.827916 0.07181,2.729475 l -0.04284,-0.06267 0.71216,1.233456 -2.23e-4,4.47e-4 0.749362,1.297941 0.60213,-1.042931 -0.01658,0.01726 c 0.527571,-0.901556 0.822263,-1.428711 0.07181,-2.729476 l 0.01769,0.01918 c -0.393743,-0.682378 -0.507261,-0.739454 -0.540688,-0.719149 l 0.359069,-0.621857 0.75049,4.46e-4 0.921625,1.326125 c 1.598157,-2.687396 0.957139,-2.477265 2.883925,-2.482806 -1.894138,2.687438 -2.716427,3.885716 -3.561476,6.253747 l 0.02108,-0.02412 c -0.750447,1.300738 -0.455782,1.827914 0.07181,2.729473 l -0.03168,-0.04284 0.700546,1.213162 c 1.42638,-2.008848 2.4978,-3.809406 3.749069,-6.492973 0.958536,1.671295 0.777754,1.16885 -0.75049,3.896527 1.529099,1.739065 -0.135268,0.333409 -1.569862,2.73094 -0.262809,0.409698 -0.479648,0.730897 -0.785666,1.105388 l -1.139658,-0.111269 -0.334491,-0.09368 -0.61171,-0.936396 0.01377,0.0354 c -0.512452,-0.909783 -0.671051,-1.233521 -2.327895,-1.42705 l 0.03393,-0.0055 c -1.048231,-2.22e-4 -1.467046,-6.69e-4 -1.467046,-6.69e-4 0,0 -0.348117,-0.410987 -0.373949,-0.647785 -0.02583,-0.236825 -0.429111,-0.488882 0.205407,-0.649705 0.63452,-0.160823 2.363436,0.01329 2.359697,-1.12e-4 -1.279594,-3.251556 -2.697072,-5.117768 -4.753329,-8.455613 1.917153,0.04218 0.724802,-0.02281 2.503663,1.96151 l 0.620504,-1.07472 -0.03472,0.04848 c 0.527595,-0.901583 0.822235,-1.428736 0.07181,-2.729474 l 0.02346,0.02999 c -1.624409,-3.910821 -3.412535,-3.81502 -3.102197,-7.700366 z m 0.666387,6.675948 c 0.353025,-0.0042 0.735315,0.361015 1.028726,1.010799 0,0 0.009,0.489511 -0.144077,0.672589 -0.03597,0.04189 -0.07932,0.06816 -0.134046,0.06797 -0.291746,-8.91e-4 -1.24715,-0.01703 -1.514509,-0.249599 -0.267328,-0.232571 -0.02519,-0.979609 0.404727,-1.35431 0.107483,-0.09368 0.223164,-0.141626 0.342384,-0.147009 0.0055,-2.23e-4 0.01113,-4.46e-4 0.0168,-4.46e-4 z m 7.353721,1.468174 c 0,0 0.534295,0.149344 0.6833,0.375075 0.03379,0.05267 0.04831,0.108164 0.03033,0.167526 -0.0957,0.316489 -0.423848,1.348531 -0.763227,1.563212 -0.339387,0.214653 -1.071785,-0.291037 -1.338867,-0.879575 -0.267093,-0.588563 0.303747,-1.080814 1.388469,-1.226238 z m -6.764895,6.549003 c 0.353025,-0.0042 0.735315,0.361019 1.028725,1.0108 0,0 0.0089,0.489398 -0.144189,0.672476 -0.03597,0.04189 -0.0792,0.06827 -0.133933,0.0681 -0.291747,-8.91e-4 -1.247151,-0.01704 -1.514509,-0.249601 -0.267329,-0.232571 -0.02519,-0.979722 0.404726,-1.354422 0.107484,-0.09368 0.223164,-0.141515 0.342384,-0.146896 0.0055,-2.24e-4 0.01113,-4.46e-4 0.01679,-4.46e-4 z m 12.535789,4.053234 c 0.219906,0.985896 0.338129,1.949253 0.312621,2.880767 -1.158988,-0.01599 -2.996058,0.248687 -3.151901,-0.266397 0,0 1.237312,-0.626367 2.301527,-1.343148 z m -14.052213,0.753308 c 0,0 0.437817,0.424563 0.429865,0.585105 -0.01391,0.280939 0.324456,1.093479 1.153073,1.07833 0.298823,-0.0054 1.127145,0.455344 1.127145,0.455344 l -2.774796,-0.05152 z"
     sodipodi:nodetypes="ccccccccccccccccccccccccccccccccccccccccccccccccccccccccccccccccccccccccccccccccsccccsccccssccsssccsscccsccssccscccccccccccccccccccccccccccccccccccccccccccsscccccccccccccssccccccccccccsscccccccsscccssccc" /><metadata
     id="metadata73787"><rdf:RDF><cc:Work
         rdf:about=""><cc:license
           rdf:resource="http://creativecommons.org/licenses/by-sa/4.0/" /><dc:title>NixCon</dc:title><dc:creator><cc:Agent><dc:title>Ana Barroso</dc:title></cc:Agent></dc:creator><dc:description>The letters for &quot;NixCon&quot; arranged in a 3x2 grid, in a style based on the Kramer font designed by Dieter Steffmann.</dc:description></cc:Work><cc:License
         rdf:about="http://creativecommons.org/licenses/by-sa/4.0/"><cc:permits
           rdf:resource="http://creativecommons.org/ns#Reproduction" /><cc:permits
           rdf:resource="http://creativecommons.org/ns#Distribution" /><cc:requires
           rdf:resource="http://creativecommons.org/ns#Notice" /><cc:requires
           rdf:resource="http://creativecommons.org/ns#Attribution" /><cc:permits
           rdf:resource="http://creativecommons.org/ns#DerivativeWorks" /><cc:requires
           rdf:resource="http://creativecommons.org/ns#ShareAlike" /></cc:License></rdf:RDF></metadata></svg>
