<?xml version="1.0" encoding="UTF-8" standalone="no"?>
<!-- Created with Inkscape (http://www.inkscape.org/) -->

<svg
   width="289.99985mm"
   height="19.520809mm"
   viewBox="0 0 289.99985 19.520809"
   version="1.1"
   id="svg5"
   xml:space="preserve"
   xmlns:xlink="http://www.w3.org/1999/xlink"
   xmlns="http://www.w3.org/2000/svg"
   xmlns:svg="http://www.w3.org/2000/svg"><defs
     id="defs2">
              <linearGradient
                      id="grad">
      <stop
              style="stop-color:#ff4580;stop-opacity:1;"
              offset="0"
              id="stop46282" />
                <stop
                        style="stop-color:#b56100;stop-opacity:1;"
                        offset="0.13538975"
                        id="stop46326" />
                <stop
                        style="stop-color:#7b7b00;stop-opacity:1;"
                        offset="0.23409523"
                        id="stop46328" />
                <stop
                        style="stop-color:#6e7f00;stop-opacity:1;"
                        offset="0.31224179"
                        id="stop46330" />
                <stop
                        style="stop-color:#008a2f;stop-opacity:1;"
                        offset="0.40808252"
                        id="stop46332" />
                <stop
                        style="stop-color:#008582;stop-opacity:1;"
                        offset="0.52012885"
                        id="stop46334" />
                <stop
                        style="stop-color:#0081a4;stop-opacity:1;"
                        offset="0.62377048"
                        id="stop46336" />
                <stop
                        style="stop-color:#007ad0;stop-opacity:1;"
                        offset="0.73267424"
                        id="stop46338" />
                <stop
                        style="stop-color:#7e57ff;stop-opacity:1;"
                        offset="0.8287276"
                        id="stop46340" />
                <stop
                        style="stop-color:#dc3eff;stop-opacity:1;"
                        offset="0.92044002"
                        id="stop46342" />
                <stop
                        style="stop-color:#ff40cb;stop-opacity:1;"
                        offset="0.99989998"
                        id="stop46344" />
    </linearGradient>
  <rect
       x="58.338341"
       y="342.76755"
       width="1218.984"
       height="749.6817"
       id="rect406" /><rect
       x="471.1781"
       y="347.47778"
       width="396.12531"
       height="173.7037"
       id="rect292" /><rect
       x="85.474503"
       y="159.23631"
       width="647.07318"
       height="866.48071"
       id="rect236" /><linearGradient
       xlink:href="#linearGradient46273-1"
       id="linearGradient46304"
       x1="728.65076"
       y1="512.67639"
       x2="1062.193"
       y2="625.85974"
       gradientUnits="userSpaceOnUse"
       gradientTransform="matrix(0.77578946,0,0,0.77578944,-535.4888,-334.54761)"
       spreadMethod="pad" /><linearGradient
       id="linearGradient46273-1"><stop
         style="stop-color:#ff4580;stop-opacity:1;"
         offset="0"
         id="stop46282" /><stop
         style="stop-color:#b56100;stop-opacity:1;"
         offset="0.13538975"
         id="stop46326" /><stop
         style="stop-color:#7b7b00;stop-opacity:1;"
         offset="0.23409523"
         id="stop46328" /><stop
         style="stop-color:#6e7f00;stop-opacity:1;"
         offset="0.31224179"
         id="stop46330" /><stop
         style="stop-color:#008a2f;stop-opacity:1;"
         offset="0.40808252"
         id="stop46332" /><stop
         style="stop-color:#008582;stop-opacity:1;"
         offset="0.52012885"
         id="stop46334" /><stop
         style="stop-color:#0081a4;stop-opacity:1;"
         offset="0.62377048"
         id="stop46336" /><stop
         style="stop-color:#007ad0;stop-opacity:1;"
         offset="0.73267424"
         id="stop46338" /><stop
         style="stop-color:#7e57ff;stop-opacity:1;"
         offset="0.8287276"
         id="stop46340" /><stop
         style="stop-color:#dc3eff;stop-opacity:1;"
         offset="0.92044002"
         id="stop46342" /><stop
         style="stop-color:#ff40cb;stop-opacity:1;"
         offset="0.99989998"
         id="stop46344" /></linearGradient><rect
       x="85.474503"
       y="159.23631"
       width="647.07318"
       height="866.48071"
       id="rect236-6" /></defs><g
     id="layer1"
     transform="translate(-3.5000721,-5.7960292)"><g
       id="g1106"
       style="stroke-width:0.999999"><path
         id="path1104"
         style="display:inline;fill:url(#grad);fill-opacity:1;stroke:none;stroke-width:0.0471481px;stroke-linecap:butt;stroke-linejoin:miter;stroke-opacity:1"
         d="m 44.348557,273.6006 c -0.209638,-0.35143 -2.674627,0.48232 -3.607748,0.0318 -1.960798,-0.94679 -0.427849,4.1804 -1.856924,1.46069 -0.152169,-0.28889 -0.858311,0.80723 -1.065714,1.46569 -0.515262,-0.87696 -1.05898,-1.80048 -1.660486,-2.81799 l 0.0013,-10e-4 c -0.05524,-0.0895 -0.112562,-0.18837 -0.178372,-0.30253 0,0 -2.786079,-5.09711 -4.515527,-8.09911 -0.461888,-0.70373 -1.005868,-1.73328 -0.849784,-2.16897 0.357409,0.26512 0.777109,0.44269 1.304184,0.3126 0.992964,-0.24467 1.630703,-0.17924 2.007131,0.003 0.376392,0.18223 0.503446,0.47306 0.501246,0.73175 -0.0026,0.25843 -0.142687,0.47173 -0.306093,0.52303 -0.08156,0.0258 -0.170821,0.009 -0.29563,-0.0501 -0.638097,-0.30293 -0.182772,-0.52107 -0.268972,-0.67082 -0.08621,-0.1498 -0.316857,-0.15768 -0.406457,-0.099 -0.08951,0.0586 -0.246197,0.33802 -0.152587,0.50067 0.09369,0.16264 0.325752,0.31887 0.492124,0.41827 0.166247,0.0997 0.538875,0.20689 0.693616,0.15809 0.309523,-0.0976 0.501787,-0.43775 0.504887,-0.79476 0.0031,-0.35709 -0.191214,-0.7442 -0.64098,-0.96188 -0.449743,-0.2176 -1.145566,-0.27355 -2.174233,-0.0198 -0.498364,0.12295 -0.869114,-0.0466 -1.2098,-0.33503 0.250178,-0.51232 0.350604,-0.93872 0.280394,-1.24814 -0.03648,-0.16085 -0.119323,-0.29397 -0.238737,-0.37627 -0.119436,-0.0823 -0.2698,-0.11228 -0.433539,-0.0972 -0.223598,0.0208 -0.503143,0.23541 -0.772575,0.41762 -0.09533,-0.1014 -0.186918,-0.21515 -0.291095,-0.28685 -0.873187,-0.39428 -1.221875,0.13506 -1.41511,0.46531 -0.508822,0.87992 -0.767573,1.44474 -0.860813,1.80925 -0.04671,0.18222 -0.05987,0.32003 -0.0068,0.43627 0.02662,0.0582 0.07644,0.10578 0.133573,0.12778 0.05723,0.0213 0.116538,0.0202 0.172818,0.0101 0.225605,-0.0432 0.448554,-0.0886 0.696944,-0.32365 0.248361,-0.23502 0.507088,-0.66216 0.661881,-0.93075 l 0.0016,-0.003 6.58e-4,-10e-4 c 0.266038,-0.4604 0.430168,-0.63136 0.851501,-0.97738 0.01001,0.0116 0.01894,0.0163 0.02884,0.0284 0.266181,0.32065 0.556463,0.72344 0.900714,1.05048 -0.208561,1.0827 0.423137,1.78064 0.865009,2.4998 1.729501,3.00215 4.494486,8.10269 4.494486,8.10269 0.08046,0.13957 0.117702,0.20598 0.176055,0.29857 3.352202,5.67059 5.293901,9.05923 6.643346,11.30051 0.566531,0.94094 1.124291,2.00392 1.685529,2.81645 0.280619,0.40626 0.561915,0.75048 0.855491,0.98819 0.293578,0.2377 0.61278,0.37242 0.941381,0.31433 0.248681,-0.044 0.412422,-0.22176 0.525243,-0.41191 0.112823,-0.19015 0.190738,-0.40463 0.277542,-0.5782 0.0868,-0.17358 0.177478,-0.29396 0.28895,-0.33984 0.111472,-0.0459 0.279907,-0.0407 0.578038,0.12511 0.121123,0.0674 0.220847,0.22417 0.296943,0.49597 0.0761,0.27179 0.125105,0.64381 0.17181,1.09372 0.09341,0.8998 0.178822,2.11102 0.48447,3.50589 0.52074,2.37646 1.865732,5.35954 2.925643,7.16988 3.901146,6.66324 6.294726,10.75289 7.759896,13.26953 2.00608,3.4457 5.824625,9.93415 7.468203,12.74141 l 5.45e-4,9.3e-4 c 1.643573,2.80725 5.432725,9.3129 7.455632,12.74876 1.477468,2.50944 3.872261,6.5984 7.773398,13.26162 1.059921,1.81035 3.002968,4.4433 4.820425,6.06054 1.066773,0.94925 2.081191,1.61656 2.820126,2.13842 0.369476,0.26094 0.669904,0.48575 0.869667,0.68514 0.199774,0.19939 0.287693,0.3631 0.287167,0.5017 -0.0013,0.34113 -0.07924,0.49056 -0.173822,0.5653 -0.09457,0.0747 -0.24392,0.0949 -0.437772,0.0856 -0.193844,-0.009 -0.419018,-0.0463 -0.640054,-0.041 -0.221038,0.005 -0.456195,0.0611 -0.616281,0.25642 -0.21149,0.25812 -0.250235,0.60241 -0.186644,0.97477 0.0636,0.37235 0.226227,0.78636 0.443152,1.22991 0.433856,0.88711 1.087681,1.89354 1.630924,2.84811 1.293986,2.27375 3.298631,5.62554 6.602842,11.32422 0.05218,0.0962 0.09185,0.16118 0.174193,0.29966 0,0 3.094525,4.9076 4.865995,7.88518 0.41087,0.73733 0.7103,1.62979 1.75653,1.97784 0.1167,0.46027 0.32587,0.91055 0.4752,1.29961 0.006,0.0145 0.005,0.0247 0.0107,0.0391 -0.50796,0.19806 -0.73739,0.25751 -1.26907,0.26416 l -0.001,8e-5 -0.004,-1.3e-4 c -0.30998,0.004 -0.8091,0.0201 -1.1356,0.12163 -0.32652,0.10157 -0.47524,0.27377 -0.62336,0.44935 -0.0363,0.0441 -0.0663,0.0953 -0.0758,0.15564 -0.009,0.0606 0.008,0.12734 0.046,0.17902 0.0754,0.10316 0.20201,0.15913 0.38378,0.20759 0.3635,0.0971 0.98269,0.14791 1.99905,0.13487 0.38256,-0.007 1.01483,-0.0519 1.09838,-1.00627 -0.0115,-0.12594 -0.0659,-0.26149 -0.10767,-0.39425 0.29077,-0.14577 0.61479,-0.28447 0.74232,-0.4693 0.0933,-0.1354 0.14076,-0.28119 0.12745,-0.42563 -0.0133,-0.14441 -0.0889,-0.28181 -0.21127,-0.39235 -0.23546,-0.21267 -0.65645,-0.33379 -1.22565,-0.36638 -0.0848,-0.43827 -0.0512,-0.84456 0.29997,-1.21897 0.72475,-0.77284 1.01653,-1.40701 1.0469,-1.9057 0.0303,-0.49875 -0.21217,-0.85764 -0.52506,-1.02974 -0.31286,-0.17205 -0.70356,-0.17086 -0.94018,0.0513 -0.11829,0.11106 -0.20721,0.48846 -0.20163,0.68223 0.005,0.19373 0.0279,0.47257 0.12387,0.63387 0.096,0.16124 0.41636,0.16136 0.51129,0.11199 0.095,-0.0494 0.20107,-0.25439 0.11263,-0.40288 -0.0884,-0.14847 -0.50148,0.14182 -0.45333,-0.56289 0.01,-0.13761 0.0386,-0.22381 0.10102,-0.28231 0.12471,-0.11739 0.37926,-0.13514 0.60591,-0.0109 0.22667,0.1247 0.41809,0.37784 0.39278,0.79525 -0.0254,0.41742 -0.28047,1.00558 -0.97983,1.75172 -0.37142,0.39596 -0.422,0.84886 -0.36574,1.29029 -0.45633,-0.0771 -1.08787,-1.05541 -1.47548,-1.80263 -1.77138,-2.97746 -4.852583,-7.90178 -4.852583,-7.90178 -0.06734,-0.11326 -0.125493,-0.21163 -0.17651,-0.30362 l -0.0015,5.9e-4 c -0.591566,-1.02022 -1.132576,-1.9495 -1.644657,-2.82726 0.675703,0.14142 1.977179,0.0621 1.799737,-0.21196 -1.672218,-2.57735 2.048566,1.26892 2.182633,-0.90436 0.0639,-1.03422 1.9974,-2.77569 1.79355,-3.13051 -0.0767,-0.13353 -0.45629,-0.0707 -1.35204,0.30023 -3.684026,0.89346 -7.357852,-1.9677 -8.900551,-3.83363 -0.04973,-0.0652 -0.152638,-0.18336 -0.271138,-0.34886 -0.06885,-0.12014 -0.144435,-0.25044 -0.209576,-0.3649 -0.549243,-0.96511 -1.200771,-1.97045 -1.622122,-2.83201 -0.210685,-0.43078 -0.361208,-0.82654 -0.416875,-1.15247 -0.05566,-0.32592 -0.01888,-0.57005 0.124685,-0.74532 0.09217,-0.11249 0.218975,-0.14676 0.400679,-0.15114 0.181712,-0.004 0.400712,0.0296 0.618229,0.04 0.217511,0.0104 0.447012,-5.8e-4 0.630496,-0.14565 0.183511,-0.14506 0.282685,-0.40302 0.284213,-0.78997 10e-4,-0.25506 -0.149395,-0.48324 -0.373644,-0.70705 -0.224257,-0.22383 -0.532607,-0.4532 -0.905597,-0.71662 -0.745981,-0.52684 -1.747736,-1.18268 -2.796773,-2.11615 -1.777468,-1.58166 -3.718059,-4.20705 -4.761831,-5.98982 -3.901145,-6.66322 -6.296304,-10.75389 -7.774159,-13.26399 -2.022234,-3.43471 -5.813196,-9.94025 -7.457029,-12.74795 -1.643838,-2.80768 -5.461397,-9.29767 -7.466805,-12.74222 -1.465555,-2.5173 -3.860443,-6.6081 -7.761589,-13.27135 -1.043768,-1.78278 -2.383377,-4.76004 -2.892654,-7.08417 -0.300568,-1.37168 -0.382177,-2.56626 -0.476479,-3.47462 -0.04715,-0.45419 -0.09625,-0.83535 -0.18167,-1.14046 -0.08542,-0.3051 -0.210783,-0.54794 -0.433699,-0.6719 -0.338184,-0.18806 -0.611669,-0.22783 -0.827983,-0.1388 -0.216312,0.089 -0.338208,0.28376 -0.43561,0.47852 -0.0974,0.19477 -0.174959,0.40237 -0.267709,0.55869 -0.09275,0.15631 -0.184698,0.25012 -0.327904,0.27544 -0.223114,0.0394 -0.453999,-0.048 -0.710975,-0.25607 -0.256977,-0.20807 -0.528413,-0.53303 -0.800953,-0.9276 -0.545076,-0.78912 -1.102877,-1.84935 -1.67566,-2.80066 -0.06793,-0.11284 -0.144566,-0.24252 -0.215628,-0.36136 -0.08632,-0.18434 -0.138969,-0.3319 -0.17151,-0.40719 -0.872081,-2.25858 -1.568964,-6.86264 1.013298,-9.63794 0.761912,-0.59956 1.002458,-0.89982 0.923564,-1.03207 z M 30.638061,261.57766 c 0.02348,0.0368 0.0417,0.0819 0.05414,0.13677 0.04296,0.18936 -0.0546,0.54938 -0.230709,0.95556 -0.27152,-0.28249 -0.528638,-0.60582 -0.772369,-0.9012 0.209606,-0.1333 0.445298,-0.32175 0.590759,-0.33525 0.118839,-0.0111 0.207475,0.0111 0.273175,0.0561 0.03293,0.0225 0.06153,0.0512 0.08501,0.0881 z m 74.977329,128.0626 c 0.0206,0.0385 0.0317,0.0775 0.0352,0.11724 0.007,0.0793 -0.017,0.16745 -0.0848,0.26565 -0.083,0.12023 -0.36266,0.23353 -0.58149,0.35107 -0.1383,-0.35712 -0.2944,-0.73958 -0.40785,-1.11462 0.4404,0.0452 0.8021,0.13636 0.9462,0.26651 0.0417,0.0377 0.0721,0.0756 0.0928,0.11415 z M 29.235215,261.6854 c 0.0062,0.01 0.01146,0.02 0.01591,0.0304 -0.446548,0.37911 -0.660382,0.58045 -0.880344,1.04397 -0.114593,0.24151 -0.366642,0.61332 -0.596783,0.83106 -0.230201,0.2177 -0.472448,0.26797 -0.571828,0.28697 -0.0248,0.005 -0.03801,0.002 -0.03864,7.4e-4 l 6.59e-4,-10e-4 c -0.0037,-0.0157 -0.01775,-0.10102 0.02161,-0.25458 0.07862,-0.30724 0.326499,-0.86617 0.829303,-1.73548 0.3555,-0.64433 0.675582,-0.50114 1.040503,-0.36414 0.05513,0.0379 0.136216,0.0928 0.179604,0.16209 z m 75.590875,129.11056 c 0.0469,0.0726 0.0556,0.17945 0.0622,0.25085 -0.0591,0.38528 -0.0909,0.73448 -0.82681,0.72913 -1.00416,0.013 -1.61289,-0.0444 -1.9193,-0.12625 -0.15317,-0.0408 -0.22071,-0.0948 -0.23257,-0.10576 l -0.001,8e-5 c -4.1e-4,-9.5e-4 0.003,-0.014 0.0196,-0.0333 0.0652,-0.0774 0.22761,-0.26401 0.53012,-0.3582 0.30252,-0.0941 0.75012,-0.13193 1.01681,-0.11365 0.51186,0.035 0.7921,-0.0529 1.34126,-0.25672 0.003,0.004 0.007,0.009 0.01,0.0138 z"
         transform="matrix(0.96796675,-1.6533044,1.6533044,0.96796675,-455.77514,-185.71859)" /></g></g></svg>
