<?xml version="1.0" encoding="UTF-8" standalone="no"?>
<!-- Created with Inkscape (http://www.inkscape.org/) -->

<svg
   width="51.904118mm"
   height="3.4936883mm"
   viewBox="0 0 51.904116 3.4936885"
   version="1.1"
   id="svg399"
   inkscape:version="1.2.1 (9c6d41e410, 2022-07-14)"
   sodipodi:docname="separator.svg"
   inkscape:export-xdpi="96"
   inkscape:export-ydpi="96"
   xmlns:inkscape="http://www.inkscape.org/namespaces/inkscape"
   xmlns:sodipodi="http://sodipodi.sourceforge.net/DTD/sodipodi-0.dtd"
   xmlns:xlink="http://www.w3.org/1999/xlink"
   xmlns="http://www.w3.org/2000/svg"
   xmlns:svg="http://www.w3.org/2000/svg">
  <sodipodi:namedview
     id="namedview148"
     pagecolor="#ffffff"
     bordercolor="#666666"
     borderopacity="1.0"
     inkscape:showpageshadow="2"
     inkscape:pageopacity="0.0"
     inkscape:pagecheckerboard="0"
     inkscape:deskcolor="#d1d1d1"
     inkscape:document-units="mm"
     showgrid="false"
     inkscape:zoom="4.4695508"
     inkscape:cx="87.257092"
     inkscape:cy="-57.723922"
     inkscape:window-width="2558"
     inkscape:window-height="1413"
     inkscape:window-x="0"
     inkscape:window-y="0"
     inkscape:window-maximized="1"
     inkscape:current-layer="layer1"
     showguides="true">
    <sodipodi:guide
       position="5.0235407,0.9968305"
       orientation="0,-1"
       id="guide504"
       inkscape:locked="false" />
  </sodipodi:namedview>
  <defs
     id="defs396" />
  <g
     inkscape:label="separator"
     inkscape:groupmode="layer"
     id="layer1"
     transform="translate(0.92129391,-284.86247)"
     style="fill:#f5000f;fill-opacity:1">
    <g
       id="g1345"
       style="fill:#07000f;fill-opacity:1"
       inkscape:label="original"
       transform="matrix(0.17324642,-0.29590795,0.29590795,0.17324642,-83.122231,250.58523)">
      <path
         style="display:inline;fill:#07000f;fill-opacity:1;stroke:none;stroke-width:0.263426px;stroke-linecap:butt;stroke-linejoin:miter;stroke-opacity:1"
         d="m 35.939461,273.93448 c -0.07914,-0.12245 -0.11211,-0.18295 -0.206018,-0.34586 0,0 -2.765013,-5.10077 -4.494516,-8.10292 -0.441874,-0.71918 -1.073404,-1.417 -0.864843,-2.4997 -0.344251,-0.32704 -0.634701,-0.72986 -0.900882,-1.05051 -0.0099,-0.0121 -0.01886,-0.0169 -0.02887,-0.0285 -0.421333,0.34602 -0.585388,0.51712 -0.851426,0.97752 l -7.53e-4,0.001 -0.0015,0.003 c -0.154793,0.26859 -0.413616,0.69583 -0.661977,0.93085 -0.24839,0.23502 -0.47114,0.2804 -0.696745,0.32362 -0.05628,0.0101 -0.115699,0.0113 -0.172932,-0.01 -0.05713,-0.022 -0.107019,-0.0697 -0.133636,-0.12787 -0.05305,-0.11624 -0.03981,-0.25408 0.0069,-0.4363 0.09324,-0.36451 0.352083,-0.9293 0.860907,-1.80922 0.193235,-0.33025 0.541726,-0.85949 1.414913,-0.46521 0.104179,0.0717 0.195939,0.1853 0.291268,0.2867 0.269432,-0.18221 0.548959,-0.39672 0.772557,-0.41747 0.163739,-0.0151 0.314136,0.0148 0.433572,0.0971 0.119414,0.0823 0.202137,0.21554 0.238615,0.37639 0.07021,0.30942 -0.03035,0.73564 -0.280528,1.24796 0.340686,0.28845 0.711603,0.45816 1.209969,0.33521 1.028669,-0.25374 1.724499,-0.198 2.174242,0.0196 0.449768,0.21768 0.644062,0.60479 0.640993,0.96188 -0.0031,0.35703 -0.19541,0.69712 -0.504933,0.79473 -0.154743,0.0488 -0.527313,-0.0584 -0.69356,-0.15811 -0.166372,-0.0994 -0.39852,-0.25549 -0.492208,-0.41813 -0.09361,-0.16265 0.06315,-0.44221 0.152661,-0.50083 0.0896,-0.0587 0.320264,-0.0507 0.406471,0.0991 0.0862,0.14975 -0.369146,0.36798 0.268951,0.67091 0.124809,0.0588 0.214109,0.0758 0.295674,0.05 0.163408,-0.0513 0.303458,-0.26445 0.306076,-0.5229 0.0022,-0.25869 -0.124897,-0.54954 -0.501289,-0.73177 -0.37643,-0.18217 -1.014112,-0.24767 -2.007078,-0.003 -0.527077,0.13009 -0.946903,-0.0474 -1.304314,-0.31252 -0.156084,0.43569 0.388032,1.46514 0.84992,2.16887 1.729452,3.00202 4.515369,8.09928 4.515369,8.09928 0.06581,0.11416 0.123167,0.21282 0.17841,0.30233 z m -5.477818,-11.26443 c 0.17611,-0.40618 0.27363,-0.7663 0.23067,-0.95566 -0.02488,-0.10972 -0.07344,-0.17968 -0.139308,-0.22468 -0.0657,-0.045 -0.154238,-0.0673 -0.273077,-0.0562 -0.145461,0.0135 -0.381109,0.20199 -0.590715,0.33529 0.243785,0.29545 0.500849,0.61879 0.772436,0.90133 z m -1.210369,-0.95415 c -0.0358,-0.0838 -0.132683,-0.1492 -0.195684,-0.19256 -0.364923,-0.137 -0.684888,-0.28015 -1.04039,0.36418 -0.502804,0.86931 -0.750719,1.42805 -0.829335,1.73529 -0.03936,0.15356 -0.02528,0.23896 -0.02155,0.25466 l -7.53e-4,10e-4 c 6.29e-4,8.3e-4 0.01372,0.004 0.03852,-6.6e-4 0.09938,-0.019 0.341766,-0.0693 0.571967,-0.287 0.230141,-0.21774 0.482046,-0.58954 0.596639,-0.83105 0.219998,-0.46359 0.433882,-0.66493 0.880576,-1.04416 z"
         id="path10648"
         sodipodi:nodetypes="ccccccccccccccccccccccccscccccccccccccccccccccccccccccccc" />
      <path
         style="display:inline;fill:#07000f;fill-opacity:1;stroke:none;stroke-width:0.263598px;stroke-linecap:butt;stroke-linejoin:miter;stroke-opacity:1"
         d="m 37.788688,276.6602 0.0016,3.4e-4 c -0.03639,0.14744 -0.04085,0.26333 0.0031,0.32116 0.989384,1.30575 1.450779,2.35961 1.450779,2.35961 l 3.205721,5.22257 c 0.154845,0.26253 0.187179,0.35258 0.292561,0.47847 l -0.07561,-0.19606 c -0.138525,-0.26199 -0.213098,-0.47848 -0.255076,-0.5756 -0.872083,-2.25858 -1.569031,-6.86276 1.013237,-9.63806 2.786423,-2.19268 -1.400036,-0.38018 -2.684335,-1.00024 -1.9608,-0.94679 -0.427822,4.18042 -1.856899,1.46071 -0.160243,-0.30422 -0.935141,0.92785 -1.094659,1.56689 z"
         id="path1341"
         inkscape:transform-center-x="0.20753868"
         inkscape:transform-center-y="0.99887214"
         sodipodi:nodetypes="ccccccccccccc" />
      <path
         style="fill:none;stroke:#000000;stroke-width:0.291636;stroke-linecap:butt;stroke-linejoin:miter;stroke-dasharray:none;stroke-opacity:1"
         d="m 35.987099,273.73544 c 3.382573,5.72093 5.334951,9.12774 6.689335,11.37722 1.139317,1.89227 2.230578,4.24697 3.334009,4.05191 0.783777,-0.13856 0.492394,-1.89647 1.765027,-1.18879 0.688078,0.38262 0.416356,2.42441 1.022572,5.19095 0.51501,2.35031 1.857236,5.33075 2.909079,7.12732 3.901158,6.66325 6.296106,10.75386 7.761473,13.27083 2.005826,3.44528 5.823192,9.93428 7.466802,12.74159"
         id="path10713"
         sodipodi:nodetypes="cssssssc" />
    </g>
    <use
       x="0"
       y="0"
       xlink:href="#g1345"
       id="use502"
       transform="matrix(-1,0,0,1,50.061531,0)" />
  </g>
</svg>
