<?xml version="1.0" encoding="UTF-8" standalone="no"?>
<!-- Created with Inkscape (http://www.inkscape.org/) -->

<svg
   xml:space="preserve"
   id="svg4178"
   version="1.1"
   viewBox="0 0 217.50559 304.61243"
   height="304.61243mm"
   width="217.50558mm"
   xmlns:xlink="http://www.w3.org/1999/xlink"
   xmlns="http://www.w3.org/2000/svg"
   xmlns:svg="http://www.w3.org/2000/svg"><defs
     id="defs4175" /><g
     id="layer10"
     transform="matrix(0.5259224,0,0,0.48907962,55.120196,-17.824919)"><path
       id="path21178"
       style="display:inline;fill:#dde4f3;fill-opacity:1;stroke:none;stroke-width:3.77953;stroke-linecap:round;stroke-linejoin:round"
       d="M -1.2760666,-0.24729485 V 1151.0437 H 820.79229 V -0.24729485 Z M 342.3001,51.000752 h 67.70118 67.69921 l 3.92969,2.845703 c 13.88601,10.058966 35.77189,46.286315 42.04492,69.595705 0.91291,3.39219 1.67405,10.23952 1.72852,15.55859 l 0.0957,9.5 4.46289,2.25 c 5.41542,2.73084 14.92306,3.00299 26.62696,0.76367 7.30003,-1.39673 8.04129,-1.78531 12.39843,-6.5 4.02825,-4.35881 5.14046,-5.01367 8.50782,-5.01367 6.38342,0 12.34268,3.63755 22.0039,13.4336 17.52232,17.7668 33.25165,42.79255 62.26758,99.0664 46.98806,91.12921 60.76314,109.00987 92.05078,119.49219 4.95998,1.66175 11.75663,3.30623 15.10547,3.65625 l 6.08984,0.63672 -0.25586,308.10742 c -0.25446,305.84646 -0.27248,308.13676 -2.25781,312.10742 -1.93679,3.87355 -2.17384,4.00685 -7.5,4.25785 -9.51866,0.4487 -9.69006,0.5581 -10.2207,6.4785 -0.38442,4.289 -2.00123,7.9456 -8.73828,19.7636 -24.53465,43.0385 -38.50801,66.2023 -41.54102,68.8653 -4.29245,3.7688 -12.55327,6.8305 -23.93945,8.873 -8.18905,1.4689 -33.70929,1.6443 -265.56055,1.8184 -141.07486,0.106 -260.325,-0.1766 -265,-0.627 -16.92089,-1.6304 -26.6001,-4.0947 -33.20312,-8.4531 -4.1341,-2.7287 -6.74793,-6.9203 -34.587892,-55.4648 -14.255952,-24.8582 -17.5969,-31.4136 -18.095703,-35.5 l -0.613281,-5.0118 -6.898438,-0.5 c -8.401753,-0.6089 -10.026156,-2.29595 -11.558593,-11.99995 -0.68528,-4.33946 -1.030114,-107.25324 -1.035157,-309.61328 l -0.0078,-303.11133 6.726562,-0.68945 c 8.326513,-0.85308 19.70905,-4.58353 28.273438,-9.26563 23.174594,-12.66938 36.410064,-31.78083 78.474604,-113.32031 23.0051,-44.59392 35.20002,-65.39579 49.55469,-84.52539 13.63693,-18.17311 26.11681,-28.44745 34.57617,-28.4668 4.26494,-0.01 6.69473,1.61974 10.89453,7.30274 1.67296,2.26378 3.38992,2.9665 10.5,4.28906 10.82489,2.01356 22.15868,1.54998 27.36328,-1.11914 l 3.86133,-1.98047 0.22071,-11 c 0.27068,-13.48898 2.71252,-21.67438 11.84375,-39.685545 10.74587,-21.196024 22.87576,-37.992564 31.73046,-43.939453 z"
       transform="matrix(0.50308436,0,0,0.54098213,-104.16474,36.579625)" /><g
       id="g15434"
       style="display:inline"><path
         id="path15522"
         style="fill:#000000;fill-opacity:1;stroke:none;stroke-width:0.519408px;stroke-linecap:butt;stroke-linejoin:miter;stroke-opacity:1"
         d="m 67.112883,53.42826 c -21.132001,4.74e-4 -100.537472,0.0025 -110.043808,0.0042 l 9.82e-4,-0.0011 h -4.392162 c -5.10187,-8.9e-4 -8.768212,-0.04121 -10.936189,4.008762 l -6.629512,12.348552 -6.582348,-12.262966 c -2.200791,-4.093744 -0.004,-4.095364 -4.350894,-4.095404 h -2.331678 c -2.102754,10e-4 -2.103016,0.0012 -3.156068,1.963173 l -1.197773,2.231551 c -2.142002,3.985118 -0.938894,1.970461 1.132922,5.990955 l 9.900543,18.438826 -9.878926,18.402901 0.435286,0.81147 -0.460833,-0.59909 -5.449426,10.20364 c -1.093591,2.03891 -2.2118,4.08161 -2.211802,7.98688 v 229.00027 h 4.39118 l 0.002,-110.41001 c 28.541858,-5.4e-4 36.226313,-22.4921 61.475533,-73.60844 4.911937,-9.94408 34.031771,-73.60537 48.301994,-49.06983 l 0.104154,-0.1923 -0.103172,0.1923 c 0.368969,0.72253 16.123651,3.723 15.122991,-0.51351 -1.141299,-12.9904 9.789559,-34.594755 17.956771,-45.21004 8.167212,-10.61529 10.350253,-8.777842 17.442878,-8.994885 5.510298,0.0061 14.828817,0.09464 27.278574,0 1.52889,-0.01162 -0.75276,-5.529006 0.14444,-6.625974 0,0 -32.691787,-7.3e-5 -35.965622,0 z m -72.7192721,4.09329 41.7157161,0.0011 c 6.568457,4.8e-5 19.68565,6.5e-5 11.049186,16.224181 L 33.607661,98.988042 c -5.501734,8.718768 -7.380445,7.554198 -10.661065,5.126648 -14.7174051,-14.777001 -33.095829,20.68537 -51.606433,53.59527 -24.150274,42.93666 -30.73773,65.42863 -55.985821,67.47379 l 9.82e-4,-86.01088 v -4.07005 c -0.269565,-19.34648 2.652814,-20.33032 5.485782,-20.3312 5.487853,-0.002 3.327445,0.075 5.486763,-4.08695 4.17e-4,-8.1e-4 5.66e-4,-10e-4 9.83e-4,-0.002 L -49.51229,65.691226 c 4.402418,-8.171302 27.689282,-7.696077 43.9059009,-8.169676 z M -89.036838,347.86201 v 229.00027 c 2e-6,3.90528 1.11821,5.94797 2.211803,7.98688 l 5.448443,10.20364 0.458867,-0.59698 -0.43332,0.8083 9.878926,18.40291 -9.899561,18.43882 c -2.071818,4.02051 -3.275909,2.00583 -1.133905,5.99096 l 1.198756,2.23155 c 1.053054,1.96199 1.053312,1.96217 3.156068,1.96317 l 2.330696,0.001 c 4.346907,-4e-5 2.150098,-0.003 4.350894,-4.09646 l 6.582347,-12.26191 6.629513,12.34749 c 2.167976,4.04999 5.835288,4.00966 10.937171,4.00877 h 4.390197 9.83e-4 c 10.979433,0.002 144.90795,0 144.90795,0 v -4.08801 l -107.5834139,-0.002 c -16.2198191,-0.47369 -39.5136131,0.002 -43.9098321,-8.1739 l -24.154927,-44.98604 c -0.0017,-0.003 -0.0023,-0.005 -0.0039,-0.008 -2.153071,-4.15461 8.8e-4,-4.07861 -5.483816,-4.08061 -2.832966,-8.8e-4 -5.755348,-0.98471 -5.485781,-20.3312 v -4.07005 l -0.0039,-208.68808 z" /><path
         id="path15897"
         style="fill:none;stroke:#000000;stroke-width:0.521689px;stroke-linecap:butt;stroke-linejoin:miter;stroke-opacity:1"
         d="M 101.97735,636.15617 H -6.7023409 c -34.9092161,0.15787 -39.0769341,-4.44412 -41.7180941,-8.17856 -7.538471,-13.49474 -19.919264,-36.70267 -23.052223,-42.9357 -1.778821,-3.53897 -0.191199,-5.51603 -1.09781,-6.13393 -3.211884,-2.18905 -9.880872,6.13545 -9.880131,-14.31249 V 239.66543 c 0,0 15.972276,0.28865 28.076229,-13.87298 12.103954,-14.16163 30.53728,-56.74167 37.709623,-70.63318 7.9439423,-15.38595 24.0620314,-44.8276 34.809678,-43.40075 4.563033,0.52352 4.22351,5.07864 6.751106,5.62333 8.426556,1.81589 12.214965,2.59253 16.697757,0.29117 4.482792,-2.30137 -0.529551,-0.20323 2.613638,-14.51709 2.523663,-11.492591 17.180781,-39.565476 24.995273,-39.496754 7.855171,0.06908 35.518205,0 35.518205,0" /><path
         style="color:#000000;display:inline;fill:#000000;fill-opacity:1;stroke-linecap:round"
         d="m -87.347642,594.8732 c 3.584273,5.9513 -3.293359,-2.04464 -2.195572,4.08928 0.719023,4.01758 -2.195347,14.31574 1.097933,8.18019 4.071587,-5.14386 10.288066,0.25158 13.296879,4.32019 l 0.0059,0.01 c 0.66175,0.98911 0.937173,1.53356 0.947266,2.03125 0.01009,0.49768 -0.246352,1.04618 -0.777344,2.03515 0,0 -5.740525,10.14569 -9.036019,16.27948 -0.71875,1.53781 -1.893313,3.55447 -2.759041,3.72404 0.09631,-0.90398 -0.01288,-1.82906 -0.728516,-2.6289 -1.348267,-1.50691 -1.845907,-2.70195 -1.904297,-3.55469 -0.05839,-0.85273 0.29865,-1.37392 0.726563,-1.63476 0.427912,-0.26085 0.910468,-0.23223 1.15039,0.004 0.119962,0.11807 0.177945,0.2928 0.199219,0.57422 0.108815,1.43942 -0.683153,0.85796 -0.847598,1.16382 -0.164444,0.30585 0.04158,0.72323 0.223347,0.82182 0.181764,0.0986 0.791491,0.088 0.970104,-0.24424 0.178614,-0.3323 0.214034,-0.90067 0.219244,-1.29691 0.0052,-0.39623 -0.171451,-1.16773 -0.399078,-1.39176 -0.455254,-0.44805 -1.196449,-0.43817 -1.78711,-0.0781 -0.59066,0.36005 -1.046328,1.0983 -0.976562,2.11719 0.06977,1.01888 0.640366,2.30805 2.037109,3.86914 0.676699,0.75632 0.752282,1.58799 0.601563,2.48633 -1.081393,0.0815 -1.879722,0.33832 -2.322266,0.77929 -0.230031,0.22922 -0.368671,0.51098 -0.390625,0.80664 -0.02195,0.29567 0.0711,0.59483 0.251953,0.86914 0.246945,0.37457 0.865503,0.64904 1.421875,0.93946 -0.07627,0.27257 -0.174332,0.55073 -0.193359,0.80859 0.182185,1.94912 1.385087,2.02578 2.11261,2.02905 1.932714,5.4e-4 3.108144,-0.12217 3.796875,-0.33008 0.344365,-0.10395 0.583704,-0.21881 0.724609,-0.43164 0.07045,-0.10641 0.102402,-0.2456 0.08398,-0.36914 -0.01842,-0.12353 -0.07698,-0.22568 -0.148438,-0.31445 -0.285838,-0.35511 -0.573587,-0.7055 -1.196839,-0.90467 -0.623253,-0.19918 -1.573052,-0.21643 -2.162536,-0.21643 h -0.0039 -0.0039 c -1.011055,0 -1.448728,-0.1154 -2.419251,-0.50756 0.0098,-0.0294 0.0093,-0.0503 0.01953,-0.0801 0.27446,-0.79934 0.660399,-1.7278 0.871094,-2.67187 1.980708,-0.73895 2.528993,-2.57112 3.292245,-4.08928 3.295615,-6.13402 9.037971,-16.27948 9.037971,-16.27948 0.534373,-0.99527 0.853546,-1.6173 0.839844,-2.29297 -0.0137,-0.67567 -0.34681,-1.20553 -0.965183,-2.32183 l -6.922085,-12.20465 c 0,0 -1.396496,-2.05012 -3.08626,-5.74927 -0.400675,-0.87714 -3.196334,0.83426 -2.702324,1.65451 z m -0.09781,41.45649 c -0.206575,0.7699 -0.493731,1.55515 -0.748046,2.28907 -0.418907,-0.23458 -0.952647,-0.45752 -1.113282,-0.70118 -0.131161,-0.19894 -0.180052,-0.38022 -0.167968,-0.54296 0.01208,-0.16274 0.08134,-0.31823 0.238281,-0.47461 0.270799,-0.26984 0.954871,-0.46637 1.791015,-0.57032 z m -0.417968,3.11914 c 1.049405,0.40255 1.585402,0.57306 2.557922,0.48804 0.50663,-0.0443 1.358316,0.0217 1.935766,0.20622 0.577449,0.18454 0.891528,0.56324 1.017359,0.71956 0.03146,0.0391 0.03677,0.0641 0.03711,0.0664 l -0.002,0.002 c -0.02241,0.0224 -0.149161,0.13307 -0.439453,0.2207 -0.580582,0.17526 -1.736951,0.30913 -3.646484,0.3086 -1.398939,0.0309 -1.469306,-0.68237 -1.591126,-1.46851 0.01152,-0.15607 -0.0039,-0.42578 0.13086,-0.54297 z"
         id="path16655" /><path
         style="color:#000000;display:inline;fill:#000000;fill-opacity:1;stroke-linecap:round"
         d="m -87.349081,100.84881 c 3.584273,-5.951299 -3.293359,2.04464 -2.195572,-4.089279 0.719023,-4.01758 -2.195347,-14.31574 1.097933,-8.18019 4.071587,5.14386 10.288066,-0.25158 13.296879,-4.32019 l 0.0059,-0.01 c 0.66175,-0.98911 0.937173,-1.53356 0.947266,-2.03125 0.01009,-0.49768 -0.246352,-1.04618 -0.777344,-2.03515 0,0 -5.740525,-10.14569 -9.036019,-16.27948 -0.71875,-1.53781 -1.893313,-3.55447 -2.759041,-3.72404 0.09631,0.90398 -0.01288,1.82906 -0.728516,2.6289 -1.348267,1.50691 -1.845907,2.70195 -1.904297,3.55469 -0.05839,0.85273 0.29865,1.37392 0.726563,1.63476 0.427912,0.26085 0.910468,0.23223 1.15039,-0.004 0.119962,-0.11807 0.177945,-0.2928 0.199219,-0.57422 0.108815,-1.43942 -0.683153,-0.85796 -0.847598,-1.16382 -0.164444,-0.30585 0.04158,-0.72323 0.223347,-0.82182 0.181764,-0.0986 0.791491,-0.088 0.970104,0.24424 0.178614,0.3323 0.214034,0.90067 0.219244,1.29691 0.0052,0.39623 -0.171451,1.16773 -0.399078,1.39176 -0.455254,0.44805 -1.196449,0.43817 -1.78711,0.0781 -0.59066,-0.36005 -1.046328,-1.0983 -0.976562,-2.11719 0.06977,-1.01888 0.640366,-2.30805 2.037109,-3.86914 0.676699,-0.75632 0.752282,-1.58799 0.601563,-2.48633 -1.081393,-0.0815 -1.879722,-0.33832 -2.322266,-0.77929 -0.230031,-0.22922 -0.368671,-0.51098 -0.390625,-0.80664 -0.02195,-0.29567 0.0711,-0.59483 0.251953,-0.86914 0.246945,-0.37457 0.865503,-0.64904 1.421875,-0.93946 -0.07627,-0.27257 -0.174332,-0.55073 -0.193359,-0.80859 0.182185,-1.94912 1.385087,-2.02578 2.11261,-2.02905 1.932714,-5.4e-4 3.108144,0.12217 3.796875,0.33008 0.344365,0.10395 0.583704,0.21881 0.724609,0.43164 0.07045,0.10641 0.102402,0.2456 0.08398,0.36914 -0.01842,0.12353 -0.07698,0.22568 -0.148438,0.31445 -0.285838,0.35511 -0.573587,0.7055 -1.196839,0.90467 -0.623253,0.19918 -1.573052,0.21643 -2.162536,0.21643 h -0.0039 -0.0039 c -1.011055,0 -1.448728,0.1154 -2.419251,0.50756 0.0098,0.0294 0.0093,0.0503 0.01953,0.0801 0.27446,0.79934 0.660399,1.7278 0.871094,2.67187 1.980708,0.73895 2.528993,2.57112 3.292245,4.08928 3.295615,6.13402 9.037971,16.27948 9.037971,16.27948 0.534373,0.99527 0.853546,1.6173 0.839844,2.29297 -0.0137,0.67567 -0.34681,1.20553 -0.965183,2.32183 l -6.922085,12.20465 c 0,0 -1.396496,2.05012 -3.08626,5.749269 -0.400675,0.87714 -3.196334,-0.83426 -2.702324,-1.65451 z m -0.09781,-41.456489 c -0.206575,-0.7699 -0.493731,-1.55515 -0.748046,-2.28907 -0.418907,0.23458 -0.952647,0.45752 -1.113282,0.70118 -0.131161,0.19894 -0.180052,0.38022 -0.167968,0.54296 0.01208,0.16274 0.08134,0.31823 0.238281,0.47461 0.270799,0.26984 0.954871,0.46637 1.791015,0.57032 z m -0.417968,-3.11914 c 1.049405,-0.40255 1.585402,-0.57306 2.557922,-0.48804 0.50663,0.0443 1.358316,-0.0217 1.935766,-0.20622 0.577449,-0.18454 0.891528,-0.56324 1.017359,-0.71956 0.03146,-0.0391 0.03677,-0.0641 0.03711,-0.0664 l -0.002,-0.002 c -0.02241,-0.0224 -0.149161,-0.13307 -0.439453,-0.2207 -0.580582,-0.17526 -1.736951,-0.30913 -3.646484,-0.3086 -1.398939,-0.0309 -1.469306,0.68237 -1.591126,1.46851 0.01152,0.15607 -0.0039,0.42578 0.13086,0.54297 z"
         id="path16655-2" /><path
         style="fill:#7a92c3;fill-opacity:1;stroke:none;stroke-width:0.0923677;stroke-linecap:round;stroke-linejoin:round"
         d="m -83.590665,178.21841 c 0.0014,-45.21129 0.02479,-49.86958 0.266055,-52.99551 0.466641,-6.04591 1.357166,-8.37232 3.286934,-9.1782 0.48856,-0.20403 1.952668,-0.01 3.988343,-0.0684 2.594818,-0.10817 2.109843,-2.25581 3.162721,-4.52459 0.716342,-1.52847 23.617501,-43.786473 24.021428,-44.339583 2.151329,-2.94584 7.699147,-6.068264 16.426444,-7.123534 5.237757,-0.63333 10.181179,-0.87467 24.7235376,-1.20705 6.3436021,-0.14499 46.4407654,-0.0692 47.7294354,0.0899 2.66621,0.3291 4.14307,0.72344 5.63521,1.50469 0.87394,0.45758 1.10972,0.63497 1.74298,1.3114 0.79844,0.85286 1.17073,1.53659 1.44132,2.6471 0.19797,0.81243 0.19185,1.466356 -0.0126,2.504276 -0.33284,1.68935 -1.08344,2.719826 -2.03884,4.656016 -1.09302,2.21505 -13.177771,25.399156 -13.780581,26.327588 -2.19406,3.379197 -4.09116,6.424917 -5.58035,6.858397 -1.28904,0.37521 -3.077909,-1.02396 -5.999399,-3.10556 -3.20585,-2.284199 -4.52197,-1.734314 -6.976104,-1.738354 -4.8036507,-0.008 -11.2141868,5.993814 -17.5033507,13.879014 -5.3072381,6.65409 -10.8321003,15.36859 -19.8039563,31.23727 -8.12603,14.37267 -12.606826,22.5039 -19.680781,35.71446 -2.336389,4.36319 -3.903231,6.97614 -4.711632,8.45135 -8.070957,14.72821 -13.257505,22.08172 -19.185398,27.20113 -3.697238,3.19299 -6.838662,5.42241 -11.357839,6.6459 -2.022877,0.54767 -2.478592,0.80784 -5.461512,1.15041 l -0.333501,0.0383 z"
         id="path2713" /></g><g
       id="layer2"
       style="display:inline"><use
         x="0"
         y="0"
         xlink:href="#g15434"
         id="use3484"
         transform="matrix(-1,0,0,1,203.95588,-0.00100154)" /></g></g></svg>
