<?xml version="1.0" encoding="UTF-8"?>
<svg width="217.51mm" height="304.61mm" version="1.1" viewBox="0 0 217.51 304.61" xml:space="preserve"
     xmlns="http://www.w3.org/2000/svg" xmlns:xlink="http://www.w3.org/1999/xlink">
    <defs>
            <linearGradient
                    id="grad">
      <stop
              style="stop-color:#ff4580;stop-opacity:1;"
              offset="0"
              id="stop46282" />
                <stop
                        style="stop-color:#b56100;stop-opacity:1;"
                        offset="0.13538975"
                        id="stop46326" />
                <stop
                        style="stop-color:#7b7b00;stop-opacity:1;"
                        offset="0.23409523"
                        id="stop46328" />
                <stop
                        style="stop-color:#6e7f00;stop-opacity:1;"
                        offset="0.31224179"
                        id="stop46330" />
                <stop
                        style="stop-color:#008a2f;stop-opacity:1;"
                        offset="0.40808252"
                        id="stop46332" />
                <stop
                        style="stop-color:#008582;stop-opacity:1;"
                        offset="0.52012885"
                        id="stop46334" />
                <stop
                        style="stop-color:#0081a4;stop-opacity:1;"
                        offset="0.62377048"
                        id="stop46336" />
                <stop
                        style="stop-color:#007ad0;stop-opacity:1;"
                        offset="0.73267424"
                        id="stop46338" />
                <stop
                        style="stop-color:#7e57ff;stop-opacity:1;"
                        offset="0.8287276"
                        id="stop46340" />
                <stop
                        style="stop-color:#dc3eff;stop-opacity:1;"
                        offset="0.92044002"
                        id="stop46342" />
                <stop
                        style="stop-color:#ff40cb;stop-opacity:1;"
                        offset="0.99989998"
                        id="stop46344" />
    </linearGradient>
    </defs>
    <g transform="matrix(.71757 0 0 .71757 2.1941 154.69)"><g><path transform="matrix(1.9654 0 0 1.9654 -43.539 -376.11)" d="m28.646 261.15c-0.47544-2e-3 -0.70774 0.35756-0.85267 0.60525-0.50882 0.87992-0.76784 1.4447-0.86108 1.8092-0.04671 0.18222-0.05989 0.32022-0.0068 0.43646 0.02662 0.0582 0.07644 0.10578 0.13357 0.12778 0.05723 0.0213 0.11672 0.0201 0.173 0.01 0.2256-0.0432 0.44836-0.0886 0.69675-0.32366 0.24836-0.23502 0.50725-0.66217 0.66205-0.93076l0.0016-3e-3 5.25e-4 -7.9e-4c0.26604-0.4604 0.43028-0.63154 0.85162-0.97756 0.01001 0.0116 0.01902 0.0163 0.02892 0.0284 0.26618 0.32065 0.55653 0.72361 0.90078 1.0506-0.20856 1.0827 0.42289 1.7804 0.86476 2.4996 1.7295 3.0022 4.4947 8.1028 4.4947 8.1028 0.09391 0.16291 0.12673 0.22356 0.20587 0.34601l0.0053-5e-3c4.176 6.5658 5.958 9.899 7.1392 11.691 0.59428 0.90167 1.0425 1.4226 1.5744 1.7579 0.53189 0.33531 1.1304 0.47449 2.0095 0.64443 0.15504 0.03 0.28456 0.0292 0.38676-0.045 0.1022-0.0742 0.1283-0.19985 0.12515-0.30473-0.0063-0.20977-0.09705-0.43998-0.13882-0.65416-0.02089-0.10709-0.02918-0.20831-0.01946-0.28528 0.0097-0.077 0.03319-0.12551 0.08203-0.16801 0.09769-0.085 0.36952-0.15037 0.94916-0.0389 0.39899 0.0768 1.2393 0.45265 2.162 0.86713 0.92274 0.41448 1.94 0.86787 2.7715 1.1053 2.7812 0.79428 5.1302 0.79308 7.334 0.85372 3.5231 0.097 28.378 0.26406 33.217 0.24978 1.8072-5e-3 2.894 0.0259 4.1705-0.0111 1.2766 0.0369 2.3633 6e-3 4.1705 0.0111 4.8392 0.0143 29.694-0.15278 33.217-0.24978 2.2039-0.0606 4.5528-0.0594 7.334-0.85372 0.83152-0.23747 1.8488-0.69086 2.7715-1.1053s1.763-0.79033 2.162-0.86713c0.57963-0.11146 0.85147-0.0461 0.94916 0.0389 0.0488 0.0425 0.0723 0.091 0.082 0.16801 0.01 0.077 1e-3 0.17819-0.0195 0.28528-0.0418 0.21418-0.13252 0.44439-0.13882 0.65416-3e-3 0.10488 0.023 0.23053 0.12515 0.30473 0.10221 0.0742 0.23172 0.075 0.38676 0.045 0.87912-0.16994 1.4779-0.30912 2.0098-0.64443 0.53189-0.33532 0.97985-0.85625 1.5741-1.7579 1.1812-1.7922 2.9632-5.1255 7.1392-11.691l5e-3 5e-3c0.0791-0.12245 0.11223-0.1831 0.20614-0.34601 0 0 2.765-5.1007 4.4944-8.1028 0.44187-0.71918 1.0733-1.4169 0.86476-2.4996 0.34425-0.32704 0.63486-0.73 0.90104-1.0506 0.01-0.0121 0.0187-0.0168 0.0287-0.0284 0.42133 0.34602 0.58558 0.51716 0.85162 0.97756l5.2e-4 7.9e-4 2e-3 3e-3c0.15479 0.26859 0.41369 0.69574 0.66205 0.93076 0.24839 0.23502 0.47114 0.28044 0.69675 0.32366 0.0563 0.0101 0.11577 0.0113 0.173-0.01 0.0571-0.022 0.10695-0.0696 0.13357-0.12778 0.0531-0.11624 0.0399-0.25424-7e-3 -0.43646-0.0932-0.36451-0.35225-0.92927-0.86108-1.8092-0.14492-0.24769-0.37722-0.60726-0.85266-0.60525-0.15849 6.7e-4 -0.34384 0.0416-0.56214 0.14014-0.10418 0.0717-0.19599 0.18519-0.29132 0.28659-0.26943-0.18221-0.54888-0.39678-0.77247-0.41753-0.16374-0.0151-0.31413 0.015-0.43357 0.0973-0.11941 0.0823-0.20226 0.2154-0.23873 0.37625-0.0702 0.30942 0.0304 0.73579 0.28054 1.2481-0.34069 0.28845-0.71162 0.45818-1.21 0.33523-1.0287-0.25374-1.7244-0.19815-2.1741 0.0195-0.44976 0.21768-0.64408 0.60469-0.64101 0.96178 3e-3 0.35703 0.1953 0.69722 0.50482 0.79483 0.15474 0.0488 0.52735-0.0583 0.6936-0.15802 0.16637-0.0994 0.3985-0.25568 0.49219-0.41832 0.0936-0.16265-0.063-0.44199-0.1525-0.50061-0.0896-0.0587-0.32027-0.0507-0.40648 0.0991-0.0862 0.14975 0.36912 0.36779-0.26897 0.67072-0.12481 0.0588-0.21423 0.0758-0.29579 0.05-0.16341-0.0513-0.30343-0.26425-0.30605-0.5227-2e-3 -0.25869 0.12501-0.54975 0.5014-0.73198 0.37643-0.18217 1.014-0.24757 2.0069-3e-3 0.52708 0.13009 0.94697-0.0475 1.3044-0.31262 0.15609 0.43569-0.38815 1.4652-0.85003 2.1689-1.7294 3.002-4.5152 8.0994-4.5152 8.0994-0.0658 0.11416-0.12329 0.21285-0.17853 0.30236l2e-3 2e-3c-0.87862 1.381-1.648 2.6139-2.3324 3.7259-3e-3 -0.017-7e-3 -0.0346-0.0118-0.0526l2e-3 -2.6e-4 -5.3e-4 -2.6e-4c-0.15951-0.63904-0.93431-1.871-1.0946-1.5668-1.4291 2.7197 0.10376-2.4076-1.857-1.4608-1.2843 0.62006-5.4706-1.1925-2.6842 1.0002 2.5823 2.7753 1.8444 7.3621 0.97229 9.6207l-3e-3 5e-3c-0.10708 0.23742-0.19473 0.40646-0.27634 0.52401l0.0221 0.0826c-0.53263 0.78951-0.93497 1.2362-1.3872 1.5213-0.48138 0.30347-1.0384 0.44028-1.9122 0.6092-0.11965 0.0232-0.16541 4e-3 -0.16801 2e-3 -3e-3 -2e-3 -0.0115-9e-3 -0.01-0.0702 4e-3 -0.12266 0.0834-0.36552 0.13094-0.60946 0.0238-0.12198 0.0392-0.24613 0.0234-0.37098-0.0158-0.12484-0.0688-0.25497-0.17564-0.34785-0.21361-0.18587-0.57347-0.21927-1.1858-0.10149-0.48599 0.0935-1.3026 0.4727-2.2246 0.88684s-1.9354 0.86356-2.7342 1.0917c-2.7413 0.78285-5.0546 0.78293-7.2638 0.84373-3.4955 0.0962-28.377 0.2625-33.207 0.2482-1.7718-4e-3 -2.8473 0.0256-4.0793-7e-3l-2.62e-4 -5e-3c-0.03157 9.9e-4 -0.06175 1e-3 -0.09308 2e-3 -0.03133-9.1e-4 -0.06151-1e-3 -0.09308-2e-3l-2.63e-4 5e-3c-1.232 0.0327-2.3075 3e-3 -4.0793 7e-3 -4.8299 0.0143-29.711-0.15198-33.207-0.2482-2.2092-0.0608-4.5226-0.0609-7.2638-0.84373-0.79872-0.22811-1.8122-0.67753-2.7342-1.0917s-1.7386-0.79336-2.2246-0.88684c-0.61232-0.11778-0.97192-0.0844-1.1855 0.10149-0.10681 0.0929-0.16013 0.22301-0.1759 0.34785-0.01577 0.12485-3.92e-4 0.249 0.0234 0.37098 0.04758 0.24394 0.12725 0.4868 0.13094 0.60946 0.0018 0.0613-7e-3 0.0683-0.0097 0.0702-0.0026 2e-3 -0.04836 0.0211-0.16801-2e-3 -0.87385-0.16892-1.4309-0.30573-1.9123-0.6092-0.45222-0.28508-0.85457-0.73177-1.3872-1.5213l0.02209-0.0826c-0.08161-0.11755-0.16926-0.28659-0.27634-0.52401l-0.0034-5e-3c-0.87208-2.2586-1.61-6.8454 0.9723-9.6207 2.7864-2.1927-1.3999-0.38011-2.6842-1.0002-1.9608-0.94679-0.42797 4.1805-1.857 1.4608-0.16024-0.30422-0.93504 0.92774-1.0946 1.5668l-5.26e-4 2.6e-4 0.0016 2.6e-4c-0.0044 0.018-0.0084 0.0356-0.01183 0.0526-0.68437-1.112-1.4538-2.345-2.3324-3.7259l0.0021-2e-3c-0.05524-0.0895-0.11272-0.1882-0.17853-0.30236 0 0-2.7858-5.0974-4.5152-8.0994-0.46189-0.70373-1.0061-1.7332-0.85004-2.1689 0.35741 0.26512 0.7773 0.44271 1.3044 0.31262 0.99296-0.24467 1.6305-0.17927 2.0069 3e-3 0.37639 0.18223 0.5036 0.47329 0.5014 0.73198-0.0026 0.25845-0.14264 0.4714-0.30604 0.5227-0.08156 0.0258-0.17098 9e-3 -0.29579-0.05-0.6381-0.30293-0.18277-0.52097-0.26897-0.67072-0.08621-0.1498-0.31662-0.15783-0.40622-0.0991-0.08951 0.0586-0.24637 0.33796-0.15276 0.50061 0.09369 0.16264 0.32582 0.31892 0.4922 0.41832 0.16625 0.0997 0.53885 0.20682 0.6936 0.15802 0.30952-0.0976 0.50172-0.4378 0.50482-0.79483 0.0031-0.35709-0.19124-0.7441-0.64101-0.96178-0.44974-0.2176-1.1455-0.27319-2.1741-0.0195-0.49836 0.12295-0.8693-0.0468-1.21-0.33523 0.25018-0.51232 0.35075-0.93869 0.28054-1.2481-0.03648-0.16085-0.11932-0.29395-0.23874-0.37625-0.11944-0.0823-0.26982-0.11238-0.43356-0.0973-0.2236 0.0208-0.50304 0.23532-0.77248 0.41753-0.09533-0.1014-0.18714-0.21489-0.29132-0.28659-0.2183-0.0986-0.40365-0.13947-0.56214-0.14014zm-0.05022 0.25214c0.14918-4e-3 0.3002 0.0568 0.45986 0.11674 0.06295 0.0433 0.15974 0.10877 0.19562 0.19246-0.44669 0.37923-0.66054 0.58049-0.88054 1.0441-0.11459 0.24151-0.36644 0.61337-0.59658 0.83111-0.2302 0.2177-0.47248 0.26785-0.57186 0.28685-0.0248 5e-3 -0.03802 2e-3 -0.03865 7.9e-4l7.89e-4 -1e-3c-0.0037-0.0157-0.0178-0.10096 0.02156-0.25452 0.07862-0.30724 0.32646-0.86599 0.82927-1.7353 0.19997-0.36244 0.38873-0.4758 0.58054-0.48116zm138.19 0c0.20287-7e-3 0.40154 0.0986 0.61261 0.48116 0.50281 0.86931 0.75066 1.4281 0.82927 1.7353 0.0394 0.15356 0.0253 0.23882 0.0216 0.25452l7.9e-4 1e-3c-6.3e-4 8.3e-4 -0.0138 4e-3 -0.0386-7.9e-4 -0.0994-0.019-0.34166-0.0691-0.57186-0.28685-0.23014-0.21774-0.48199-0.5896-0.59658-0.83111-0.22-0.46359-0.43384-0.66485-0.88054-1.0441 0.0359-0.0837 0.13267-0.14914 0.19562-0.19246 0.14825-0.0557 0.28897-0.11226 0.42778-0.11674zm-136.46 0.0245c0.09746-3e-3 0.17231 0.0195 0.2298 0.0589 0.06587 0.045 0.11447 0.11482 0.13935 0.22454 0.04296 0.18936-0.05448 0.54955-0.23058 0.95573-0.27159-0.28254-0.52869-0.60586-0.77248-0.90131 0.2096-0.1333 0.44533-0.32173 0.59079-0.33523 0.01485-1e-3 0.0292-2e-3 0.04312-3e-3zm134.77 0c0.0139 3.7e-4 0.0283 1e-3 0.0431 3e-3 0.14547 0.0135 0.38119 0.20193 0.5908 0.33523-0.24379 0.29545-0.50089 0.61877-0.77248 0.90131-0.17611-0.40618-0.27354-0.76637-0.23058-0.95573 0.0249-0.10972 0.0735-0.17954 0.13935-0.22454 0.0575-0.0394 0.13234-0.0615 0.2298-0.0589zm-136.86 3.8056c-2.7316 0.15454-5.1151 0.29399-4.033 1.6712h2.63e-4c2.8861 4.8507 5.2411 9.186 8.0744 14.094l-5.2064 9.0181c-1.0896 1.9663-1.7223 0.98103-0.59579 2.93l0.62971 1.0914c0.55382 0.95957 0.55397 0.95945 1.6598 0.95994l1.2263 5.2e-4c2.2861-2e-5 1.1308-1e-3 2.2882-2.0035l3.4619-5.9971 3.4867 6.0391c1.1402 1.9807 3.0683 1.9608 5.7515 1.9604l1.8484 5.3e-4c0.54887-0.0713 0.34768-0.21923 0.24846-0.4851-1.515-4.2662 33.519-1.4208 49.718-1.541 0.26091-2e-3 0.62564-4.5e-4 0.81402 0 0.04746 1.1e-4 0.20508 0 0.20508 0 0.18838-4.5e-4 0.55311-2e-3 0.81402 0 16.199 0.12022 51.233-2.7252 49.718 1.541-0.0992 0.26587-0.30041 0.4138 0.24846 0.4851l1.8484-5.3e-4c2.6832 4.4e-4 4.6113 0.0204 5.7515-1.9604l3.4867-6.0391 3.4619 5.9971c1.1574 2.0025 2e-3 2.0035 2.2882 2.0035l1.2263-5.2e-4c1.1059-4.9e-4 1.106-3.7e-4 1.6598-0.95994l0.62997-1.0914c1.1265-1.949 0.49356-0.96371-0.59606-2.93l-5.2062-9.0181c2.8334-4.9084 5.1884-9.2437 8.0744-14.094 1.0821-1.3772-1.3014-1.5166-4.033-1.6712-2.5729 0.0176-2.3536 0.76516-4.1429 3.9108l-10.387 17.737c-0.73117 1.3352-3.1337 2.2161-4.2454 2.008-2.1908-0.4101-0.38287-1.5886-1.4711-1.408-0.63977 0.10622-2.5788 1.7062-5.863 2.0529-7.1341 0.75315-38.593 0.50478-43.365 0.56923-4.7726-0.0645-36.231 0.18392-43.365-0.56923-3.2841-0.3467-5.2232-1.9467-5.863-2.0529-1.0882-0.18067 0.71968 0.99786-1.4711 1.408-1.1118 0.20812-3.5143-0.67278-4.2455-2.008l-10.387-17.737c-1.7894-3.1456-1.57-3.8932-4.1429-3.9108z" fill="url(#grad)"/></g></g>
    <g transform="matrix(-.71757 0 0 -.71757 215.31 150.15)"><g><path transform="matrix(1.9654 0 0 1.9654 -43.539 -376.11)" d="m28.646 261.15c-0.47544-2e-3 -0.70774 0.35756-0.85267 0.60525-0.50882 0.87992-0.76784 1.4447-0.86108 1.8092-0.04671 0.18222-0.05989 0.32022-0.0068 0.43646 0.02662 0.0582 0.07644 0.10578 0.13357 0.12778 0.05723 0.0213 0.11672 0.0201 0.173 0.01 0.2256-0.0432 0.44836-0.0886 0.69675-0.32366 0.24836-0.23502 0.50725-0.66217 0.66205-0.93076l0.0016-3e-3 5.25e-4 -7.9e-4c0.26604-0.4604 0.43028-0.63154 0.85162-0.97756 0.01001 0.0116 0.01902 0.0163 0.02892 0.0284 0.26618 0.32065 0.55653 0.72361 0.90078 1.0506-0.20856 1.0827 0.42289 1.7804 0.86476 2.4996 1.7295 3.0022 4.4947 8.1028 4.4947 8.1028 0.09391 0.16291 0.12673 0.22356 0.20587 0.34601l0.0053-5e-3c4.176 6.5658 5.958 9.899 7.1392 11.691 0.59428 0.90167 1.0425 1.4226 1.5744 1.7579 0.53189 0.33531 1.1304 0.47449 2.0095 0.64443 0.15504 0.03 0.28456 0.0292 0.38676-0.045 0.1022-0.0742 0.1283-0.19985 0.12515-0.30473-0.0063-0.20977-0.09705-0.43998-0.13882-0.65416-0.02089-0.10709-0.02918-0.20831-0.01946-0.28528 0.0097-0.077 0.03319-0.12551 0.08203-0.16801 0.09769-0.085 0.36952-0.15037 0.94916-0.0389 0.39899 0.0768 1.2393 0.45265 2.162 0.86713 0.92274 0.41448 1.94 0.86787 2.7715 1.1053 2.7812 0.79428 5.1302 0.79308 7.334 0.85372 3.5231 0.097 28.378 0.26406 33.217 0.24978 1.8072-5e-3 2.894 0.0259 4.1705-0.0111 1.2766 0.0369 2.3633 6e-3 4.1705 0.0111 4.8392 0.0143 29.694-0.15278 33.217-0.24978 2.2039-0.0606 4.5528-0.0594 7.334-0.85372 0.83152-0.23747 1.8488-0.69086 2.7715-1.1053s1.763-0.79033 2.162-0.86713c0.57963-0.11146 0.85147-0.0461 0.94916 0.0389 0.0488 0.0425 0.0723 0.091 0.082 0.16801 0.01 0.077 1e-3 0.17819-0.0195 0.28528-0.0418 0.21418-0.13252 0.44439-0.13882 0.65416-3e-3 0.10488 0.023 0.23053 0.12515 0.30473 0.10221 0.0742 0.23172 0.075 0.38676 0.045 0.87912-0.16994 1.4779-0.30912 2.0098-0.64443 0.53189-0.33532 0.97985-0.85625 1.5741-1.7579 1.1812-1.7922 2.9632-5.1255 7.1392-11.691l5e-3 5e-3c0.0791-0.12245 0.11223-0.1831 0.20614-0.34601 0 0 2.765-5.1007 4.4944-8.1028 0.44187-0.71918 1.0733-1.4169 0.86476-2.4996 0.34425-0.32704 0.63486-0.73 0.90104-1.0506 0.01-0.0121 0.0187-0.0168 0.0287-0.0284 0.42133 0.34602 0.58558 0.51716 0.85162 0.97756l5.2e-4 7.9e-4 2e-3 3e-3c0.15479 0.26859 0.41369 0.69574 0.66205 0.93076 0.24839 0.23502 0.47114 0.28044 0.69675 0.32366 0.0563 0.0101 0.11577 0.0113 0.173-0.01 0.0571-0.022 0.10695-0.0696 0.13357-0.12778 0.0531-0.11624 0.0399-0.25424-7e-3 -0.43646-0.0932-0.36451-0.35225-0.92927-0.86108-1.8092-0.14492-0.24769-0.37722-0.60726-0.85266-0.60525-0.15849 6.7e-4 -0.34384 0.0416-0.56214 0.14014-0.10418 0.0717-0.19599 0.18519-0.29132 0.28659-0.26943-0.18221-0.54888-0.39678-0.77247-0.41753-0.16374-0.0151-0.31413 0.015-0.43357 0.0973-0.11941 0.0823-0.20226 0.2154-0.23873 0.37625-0.0702 0.30942 0.0304 0.73579 0.28054 1.2481-0.34069 0.28845-0.71162 0.45818-1.21 0.33523-1.0287-0.25374-1.7244-0.19815-2.1741 0.0195-0.44976 0.21768-0.64408 0.60469-0.64101 0.96178 3e-3 0.35703 0.1953 0.69722 0.50482 0.79483 0.15474 0.0488 0.52735-0.0583 0.6936-0.15802 0.16637-0.0994 0.3985-0.25568 0.49219-0.41832 0.0936-0.16265-0.063-0.44199-0.1525-0.50061-0.0896-0.0587-0.32027-0.0507-0.40648 0.0991-0.0862 0.14975 0.36912 0.36779-0.26897 0.67072-0.12481 0.0588-0.21423 0.0758-0.29579 0.05-0.16341-0.0513-0.30343-0.26425-0.30605-0.5227-2e-3 -0.25869 0.12501-0.54975 0.5014-0.73198 0.37643-0.18217 1.014-0.24757 2.0069-3e-3 0.52708 0.13009 0.94697-0.0475 1.3044-0.31262 0.15609 0.43569-0.38815 1.4652-0.85003 2.1689-1.7294 3.002-4.5152 8.0994-4.5152 8.0994-0.0658 0.11416-0.12329 0.21285-0.17853 0.30236l2e-3 2e-3c-0.87862 1.381-1.648 2.6139-2.3324 3.7259-3e-3 -0.017-7e-3 -0.0346-0.0118-0.0526l2e-3 -2.6e-4 -5.3e-4 -2.6e-4c-0.15951-0.63904-0.93431-1.871-1.0946-1.5668-1.4291 2.7197 0.10376-2.4076-1.857-1.4608-1.2843 0.62006-5.4706-1.1925-2.6842 1.0002 2.5823 2.7753 1.8444 7.3621 0.97229 9.6207l-3e-3 5e-3c-0.10708 0.23742-0.19473 0.40646-0.27634 0.52401l0.0221 0.0826c-0.53263 0.78951-0.93497 1.2362-1.3872 1.5213-0.48138 0.30347-1.0384 0.44028-1.9122 0.6092-0.11965 0.0232-0.16541 4e-3 -0.16801 2e-3 -3e-3 -2e-3 -0.0115-9e-3 -0.01-0.0702 4e-3 -0.12266 0.0834-0.36552 0.13094-0.60946 0.0238-0.12198 0.0392-0.24613 0.0234-0.37098-0.0158-0.12484-0.0688-0.25497-0.17564-0.34785-0.21361-0.18587-0.57347-0.21927-1.1858-0.10149-0.48599 0.0935-1.3026 0.4727-2.2246 0.88684s-1.9354 0.86356-2.7342 1.0917c-2.7413 0.78285-5.0546 0.78293-7.2638 0.84373-3.4955 0.0962-28.377 0.2625-33.207 0.2482-1.7718-4e-3 -2.8473 0.0256-4.0793-7e-3l-2.62e-4 -5e-3c-0.03157 9.9e-4 -0.06175 1e-3 -0.09308 2e-3 -0.03133-9.1e-4 -0.06151-1e-3 -0.09308-2e-3l-2.63e-4 5e-3c-1.232 0.0327-2.3075 3e-3 -4.0793 7e-3 -4.8299 0.0143-29.711-0.15198-33.207-0.2482-2.2092-0.0608-4.5226-0.0609-7.2638-0.84373-0.79872-0.22811-1.8122-0.67753-2.7342-1.0917s-1.7386-0.79336-2.2246-0.88684c-0.61232-0.11778-0.97192-0.0844-1.1855 0.10149-0.10681 0.0929-0.16013 0.22301-0.1759 0.34785-0.01577 0.12485-3.92e-4 0.249 0.0234 0.37098 0.04758 0.24394 0.12725 0.4868 0.13094 0.60946 0.0018 0.0613-7e-3 0.0683-0.0097 0.0702-0.0026 2e-3 -0.04836 0.0211-0.16801-2e-3 -0.87385-0.16892-1.4309-0.30573-1.9123-0.6092-0.45222-0.28508-0.85457-0.73177-1.3872-1.5213l0.02209-0.0826c-0.08161-0.11755-0.16926-0.28659-0.27634-0.52401l-0.0034-5e-3c-0.87208-2.2586-1.61-6.8454 0.9723-9.6207 2.7864-2.1927-1.3999-0.38011-2.6842-1.0002-1.9608-0.94679-0.42797 4.1805-1.857 1.4608-0.16024-0.30422-0.93504 0.92774-1.0946 1.5668l-5.26e-4 2.6e-4 0.0016 2.6e-4c-0.0044 0.018-0.0084 0.0356-0.01183 0.0526-0.68437-1.112-1.4538-2.345-2.3324-3.7259l0.0021-2e-3c-0.05524-0.0895-0.11272-0.1882-0.17853-0.30236 0 0-2.7858-5.0974-4.5152-8.0994-0.46189-0.70373-1.0061-1.7332-0.85004-2.1689 0.35741 0.26512 0.7773 0.44271 1.3044 0.31262 0.99296-0.24467 1.6305-0.17927 2.0069 3e-3 0.37639 0.18223 0.5036 0.47329 0.5014 0.73198-0.0026 0.25845-0.14264 0.4714-0.30604 0.5227-0.08156 0.0258-0.17098 9e-3 -0.29579-0.05-0.6381-0.30293-0.18277-0.52097-0.26897-0.67072-0.08621-0.1498-0.31662-0.15783-0.40622-0.0991-0.08951 0.0586-0.24637 0.33796-0.15276 0.50061 0.09369 0.16264 0.32582 0.31892 0.4922 0.41832 0.16625 0.0997 0.53885 0.20682 0.6936 0.15802 0.30952-0.0976 0.50172-0.4378 0.50482-0.79483 0.0031-0.35709-0.19124-0.7441-0.64101-0.96178-0.44974-0.2176-1.1455-0.27319-2.1741-0.0195-0.49836 0.12295-0.8693-0.0468-1.21-0.33523 0.25018-0.51232 0.35075-0.93869 0.28054-1.2481-0.03648-0.16085-0.11932-0.29395-0.23874-0.37625-0.11944-0.0823-0.26982-0.11238-0.43356-0.0973-0.2236 0.0208-0.50304 0.23532-0.77248 0.41753-0.09533-0.1014-0.18714-0.21489-0.29132-0.28659-0.2183-0.0986-0.40365-0.13947-0.56214-0.14014zm-0.05022 0.25214c0.14918-4e-3 0.3002 0.0568 0.45986 0.11674 0.06295 0.0433 0.15974 0.10877 0.19562 0.19246-0.44669 0.37923-0.66054 0.58049-0.88054 1.0441-0.11459 0.24151-0.36644 0.61337-0.59658 0.83111-0.2302 0.2177-0.47248 0.26785-0.57186 0.28685-0.0248 5e-3 -0.03802 2e-3 -0.03865 7.9e-4l7.89e-4 -1e-3c-0.0037-0.0157-0.0178-0.10096 0.02156-0.25452 0.07862-0.30724 0.32646-0.86599 0.82927-1.7353 0.19997-0.36244 0.38873-0.4758 0.58054-0.48116zm138.19 0c0.20287-7e-3 0.40154 0.0986 0.61261 0.48116 0.50281 0.86931 0.75066 1.4281 0.82927 1.7353 0.0394 0.15356 0.0253 0.23882 0.0216 0.25452l7.9e-4 1e-3c-6.3e-4 8.3e-4 -0.0138 4e-3 -0.0386-7.9e-4 -0.0994-0.019-0.34166-0.0691-0.57186-0.28685-0.23014-0.21774-0.48199-0.5896-0.59658-0.83111-0.22-0.46359-0.43384-0.66485-0.88054-1.0441 0.0359-0.0837 0.13267-0.14914 0.19562-0.19246 0.14825-0.0557 0.28897-0.11226 0.42778-0.11674zm-136.46 0.0245c0.09746-3e-3 0.17231 0.0195 0.2298 0.0589 0.06587 0.045 0.11447 0.11482 0.13935 0.22454 0.04296 0.18936-0.05448 0.54955-0.23058 0.95573-0.27159-0.28254-0.52869-0.60586-0.77248-0.90131 0.2096-0.1333 0.44533-0.32173 0.59079-0.33523 0.01485-1e-3 0.0292-2e-3 0.04312-3e-3zm134.77 0c0.0139 3.7e-4 0.0283 1e-3 0.0431 3e-3 0.14547 0.0135 0.38119 0.20193 0.5908 0.33523-0.24379 0.29545-0.50089 0.61877-0.77248 0.90131-0.17611-0.40618-0.27354-0.76637-0.23058-0.95573 0.0249-0.10972 0.0735-0.17954 0.13935-0.22454 0.0575-0.0394 0.13234-0.0615 0.2298-0.0589zm-136.86 3.8056c-2.7316 0.15454-5.1151 0.29399-4.033 1.6712h2.63e-4c2.8861 4.8507 5.2411 9.186 8.0744 14.094l-5.2064 9.0181c-1.0896 1.9663-1.7223 0.98103-0.59579 2.93l0.62971 1.0914c0.55382 0.95957 0.55397 0.95945 1.6598 0.95994l1.2263 5.2e-4c2.2861-2e-5 1.1308-1e-3 2.2882-2.0035l3.4619-5.9971 3.4867 6.0391c1.1402 1.9807 3.0683 1.9608 5.7515 1.9604l1.8484 5.3e-4c0.54887-0.0713 0.34768-0.21923 0.24846-0.4851-1.515-4.2662 33.519-1.4208 49.718-1.541 0.26091-2e-3 0.62564-4.5e-4 0.81402 0 0.04746 1.1e-4 0.20508 0 0.20508 0 0.18838-4.5e-4 0.55311-2e-3 0.81402 0 16.199 0.12022 51.233-2.7252 49.718 1.541-0.0992 0.26587-0.30041 0.4138 0.24846 0.4851l1.8484-5.3e-4c2.6832 4.4e-4 4.6113 0.0204 5.7515-1.9604l3.4867-6.0391 3.4619 5.9971c1.1574 2.0025 2e-3 2.0035 2.2882 2.0035l1.2263-5.2e-4c1.1059-4.9e-4 1.106-3.7e-4 1.6598-0.95994l0.62997-1.0914c1.1265-1.949 0.49356-0.96371-0.59606-2.93l-5.2062-9.0181c2.8334-4.9084 5.1884-9.2437 8.0744-14.094 1.0821-1.3772-1.3014-1.5166-4.033-1.6712-2.5729 0.0176-2.3536 0.76516-4.1429 3.9108l-10.387 17.737c-0.73117 1.3352-3.1337 2.2161-4.2454 2.008-2.1908-0.4101-0.38287-1.5886-1.4711-1.408-0.63977 0.10622-2.5788 1.7062-5.863 2.0529-7.1341 0.75315-38.593 0.50478-43.365 0.56923-4.7726-0.0645-36.231 0.18392-43.365-0.56923-3.2841-0.3467-5.2232-1.9467-5.863-2.0529-1.0882-0.18067 0.71968 0.99786-1.4711 1.408-1.1118 0.20812-3.5143-0.67278-4.2455-2.008l-10.387-17.737c-1.7894-3.1456-1.57-3.8932-4.1429-3.9108z" fill="url(#grad)"/></g></g></svg>
