<?xml version="1.0" encoding="UTF-8" standalone="no"?>
<!-- Created with Inkscape (http://www.inkscape.org/) -->

<svg
   width="4096"
   height="2160"
   viewBox="0 0 1083.7333 571.49998"
   version="1.1"
   id="svg2545"
   inkscape:version="1.2.2 (b0a8486541, 2022-12-01)"
   sodipodi:docname="template.svg"
   inkscape:export-filename="../NIXCON_logo_rainbow_white_4k.png"
   inkscape:export-xdpi="100.86"
   inkscape:export-ydpi="100.86"
   xmlns:inkscape="http://www.inkscape.org/namespaces/inkscape"
   xmlns:sodipodi="http://sodipodi.sourceforge.net/DTD/sodipodi-0.dtd"
   xmlns:xlink="http://www.w3.org/1999/xlink"
   xmlns="http://www.w3.org/2000/svg"
   xmlns:svg="http://www.w3.org/2000/svg">
  <sodipodi:namedview
     id="namedview2547"
     pagecolor="#000000"
     bordercolor="#666666"
     borderopacity="1.0"
     inkscape:showpageshadow="2"
     inkscape:pageopacity="0"
     inkscape:pagecheckerboard="0"
     inkscape:deskcolor="#d1d1d1"
     inkscape:document-units="mm"
     showgrid="false"
     inkscape:zoom="0.27522923"
     inkscape:cx="2332.6011"
     inkscape:cy="1329.8006"
     inkscape:window-width="3840"
     inkscape:window-height="2091"
     inkscape:window-x="0"
     inkscape:window-y="0"
     inkscape:window-maximized="1"
     inkscape:current-layer="layer1" />
  <defs
     id="defs2542">
    <clipPath
       clipPathUnits="userSpaceOnUse"
       id="clipPath2185">
      <path
         id="path2187"
         style="font-size:26.2111px;line-height:1.25;font-family:ocr-a;-inkscape-font-specification:ocr-a;letter-spacing:0px;word-spacing:0px;display:inline;fill:#000000;stroke:none;stroke-width:0.146862px;stroke-linecap:butt;stroke-linejoin:miter;stroke-opacity:1"
         inkscape:label="N"
         d="m 694.76178,438.7062 v 26.6439 l 20.19125,10e-4 -6.8e-4,-26.64523 z m 23.07552,0 v 26.61392 l 20.16794,6.8e-4 -6.8e-4,-26.61459 z m 23.09884,0 v 26.61392 c 6.72265,3.2e-4 13.4453,3.4e-4 20.16794,6.8e-4 v -26.6146 h -6.8e-4 z m -22.1383,0.82998 h 18.24686 v 24.9533 l -18.24686,-0.001 z m 23.09884,0 h 18.24686 c 0,8.31763 6.8e-4,16.63568 6.8e-4,24.9533 -6.08239,-3.2e-4 -12.16446,-0.001 -18.24685,-0.001 z m -46.17303,9.9e-4 h 18.26751 l 6.8e-4,24.98127 -18.26817,-10e-4 z m 23.55446,0.41632 0.0106,24.0647 17.27633,0.0546 0.11125,-24.09334 z m -23.07353,9.9e-4 v 24.14597 l 17.30631,6.8e-4 v -24.14662 z m 46.19102,0.0613 0.19251,23.81425 c 5.71398,0.009 11.42781,0.0192 17.14178,0.0286 l -0.14722,-23.83623 z m -33.20112,0.71941 c 10e-4,3.92539 0.0894,7.95083 0.003,11.83085 -4.20765,-5.95135 -8.54341,-7.8619 -8.52772,-11.73957 z m 17.37158,0.003 2.76571,0.0466 v 22.39941 c -1.60104,3e-5 -2.75905,0.0573 -2.75905,0.0573 v -0.50358 c 0.002,-10e-4 0.004,-0.002 0.005,-0.003 v -0.94456 c -0.002,-0.003 -0.003,-0.007 -0.005,-0.01 z m -6.80835,0.0226 6.39669,0.024 -0.0446,16.92529 c 0,0 -2.34115,-2.06623 -3.82815,-3.78153 -3.00348,-3.46466 -2.52391,-13.16775 -2.52391,-13.16775 z m -19.95877,0.009 c 0,1.46776 0.38971,2.73575 1.11307,3.7762 2.75723,3.91717 6.84082,6.39574 8.91327,10.81237 0.17681,0.33737 0.22747,0.43684 0.32041,6.8e-4 v -14.5719 h 2.40333 l 6.8e-4,22.48201 h -11.99739 l -0.016,-13.89314 c 4.53576,4.25953 7.66116,8.14195 8.25848,13.8645 l -1.8458,0.028 h 2.71575 c -0.27327,-1.98797 -0.69996,-4.02186 -1.6966,-5.87979 -1.87407,-3.51453 -4.69208,-6.67088 -7.95673,-9.47614 -0.0556,-0.0251 -0.10474,-0.0384 -0.14787,-0.0413 -0.0144,-9.6e-4 -0.0282,-6.8e-4 -0.0413,6.8e-4 -0.22698,0.0224 -0.2656,0.37889 -0.25312,0.82532 l 0.0187,14.6312 -2.50192,-0.06 c 0.0457,-7.45461 0.19963,-14.68529 0.0799,-22.48136 z m 30.0111,0.0113 6.3374,0.009 c 0,0 0.005,1.02721 -0.0633,2.26745 -0.73819,0.25473 -1.66261,0.92533 -2.29344,1.27561 -0.92026,0.511 -4.02465,3.76887 -4.02465,3.76887 z m 28.72217,0.012 c 0,0 -0.004,1.10376 -0.0166,1.14439 -0.0442,3.39164 -1.64101,6.64771 -3.96072,9.06981 -0.21662,0.32733 -0.70408,0.6861 -0.70408,0.6861 0,0 -0.30993,-0.3082 -0.45429,-0.75204 -0.28606,-0.50296 -0.5719,-1.0058 -0.85796,-1.50876 2.12251,-2.22771 3.2102,-4.07168 3.38652,-6.79702 0.0381,-0.52553 0.0621,-1.29244 0.0433,-1.8165 z m -3.59501,0.0393 c 0.0823,1.51215 -0.12383,3.05622 -0.54822,4.50826 -0.41515,1.17648 -1.2929,2.68156 -2.39801,3.12807 -1.62163,-2.30349 -2.84533,-4.97738 -4.05663,-7.50911 z m -8.09063,0.11257 c 0,0 0.81307,1.72191 1.2543,2.74039 1.45911,3.09612 3.34146,5.9666 4.97121,8.96124 1.94777,3.44004 3.89606,6.88006 5.84381,10.3201 -1.1184,-2.1e-4 -2.23681,-3.4e-4 -3.35521,-6.8e-4 -1.64144,-2.88759 -3.14261,-5.85479 -4.85064,-8.70478 -1.28454,0.30408 -1.98907,1.54997 -2.84964,2.43865 -1.36667,1.8228 -1.9535,4.14519 -1.99767,6.39736 -0.79645,-0.0104 -1.59293,-0.0203 -2.38936,-0.0307 -0.0183,-4.41332 2.18808,-8.77152 5.72525,-11.40188 -1.82801,-3.63057 -4.01252,-7.06971 -5.86713,-10.68647 0.97444,-0.0124 3.51508,-0.0333 3.51508,-0.0333 z m -26.77645,0.036 c 0,0 -0.33952,9.31016 2.2921,12.49364 1.23759,1.49707 3.46579,3.62699 3.46579,3.62699 l 0.0573,-16.07467 z m -11.17073,0.0759 -7.9241,0.009 c 0.29032,3.82334 4.69654,6.06224 7.94008,10.66315 0.1201,-3.449 -0.0146,-8.89371 -0.016,-10.67247 z m 45.84197,0.0406 -6.35007,0.10325 c 1.00454,2.42304 2.2029,4.78031 3.73157,6.91759 2.18636,-1.57442 2.54173,-4.52752 2.6185,-7.02084 z m -24.63157,0.044 -0.0306,6.13758 c 0,0 2.89195,-2.81654 3.36388,-3.22799 0.21204,-0.18485 1.44772,-0.95069 2.2901,-1.22765 0.11196,-1.11884 0.04,-1.66795 0.04,-1.66795 z m -7.8315,0.10392 c -0.13741,0.32773 -0.51148,0.20873 -0.71607,0.60616 -0.25259,0.49065 -0.57854,0.88776 -0.84597,1.88843 -0.0799,0.18366 -0.14553,0.67626 -0.23647,0.89126 l -0.10791,-3.3339 c 0.0831,-0.0311 0.26291,-0.0418 0.4736,-0.042 0.007,-1e-5 0.0138,-2e-5 0.0206,0 0.48282,9.9e-4 1.41216,-0.01 1.41216,-0.01 z m 2.21816,0.007 c 0.01,9e-5 0.0194,-7e-5 0.0293,6.8e-4 l 0.25712,0.0167 -0.005,0.45562 c 0.0219,0.65033 0.55152,2.17705 0.4503,4.40035 0.009,0.004 0.0173,0.008 0.026,0.0113 -0.008,0.006 -0.0151,0.011 -0.0226,0.0167 6.9e-4,0.005 6.9e-4,0.009 10e-4,0.014 -0.004,-0.002 -0.008,-0.004 -0.0127,-0.005 -0.0387,0.35453 0.10016,0.59188 -0.0806,0.72807 -0.20666,-0.0878 -0.87511,-0.49569 -1.08177,-0.58352 -0.27397,-0.16997 -0.70291,-0.2011 -1.02448,0.11257 -0.29886,0.16776 -1.33811,1.13825 -1.68994,1.26362 -0.12731,-0.0702 -0.28896,-0.40125 -0.25046,-0.59617 -6.8e-4,-0.19259 0.31161,-0.4382 0.46162,-0.5189 0.31747,-0.23904 0.91952,-0.71617 1.23697,-0.95521 -0.30733,-0.40757 -0.90907,-1.05484 -1.27294,-1.3309 -0.15803,-0.19546 0.2539,-0.62176 0.21049,-0.85595 0.92914,0.59692 0.74027,0.87593 1.75122,1.52273 0.26058,0.10337 1.0327,0.47733 1.00716,0.26845 0.0544,-0.33 -0.0128,-1.30114 -0.77935,-1.3642 -0.29471,-0.17496 -0.9678,-0.68523 -1.2523,-0.92724 0.053,-0.36703 0.21315,-0.32863 0.47627,-0.37502 0.36575,0.15541 0.89788,0.53269 1.26362,0.6881 -0.0253,-0.45317 -0.22632,-1.0516 -0.16919,-1.50475 0.0875,-0.22727 0.17498,-0.48443 0.47028,-0.4816 z m 29.92518,0.0553 c -0.17319,1.84024 -1.01219,1.64607 -2.1036,3.33657 l 0.0133,-0.012 c -0.46253,0.54472 -0.36607,0.81518 -0.19052,1.28028 l -0.0127,-0.0253 0.20517,0.55354 c 0.5829,-0.45086 0.63564,-0.96271 0.6661,-0.82664 0.0588,0.26244 0.18611,0.14734 0.57952,0.0913 -0.1248,0.41864 -1.07456,1.03906 -1.06378,1.68261 0.005,0.277 -0.43068,0.32262 -0.42298,0.45695 -0.39775,-1.7428 -1.10937,-3.24272 -2.10891,-4.44365 0.34328,0.22745 0.88452,0.15913 0.94987,-0.0499 0.0957,0.11708 0.33252,0.24519 0.6841,1.15704 l 0.37102,-0.43697 -0.009,0.006 c 0.44069,-0.32478 0.39393,-0.88733 0.21915,-1.14438 -0.18087,-0.48835 -0.53488,-0.63481 -0.53488,-0.63481 0.34169,0.017 0.31527,0.0182 0.67876,-0.4463 0.2059,0.5038 0.40316,0.73311 0.58153,0.95654 1.23197,-0.7906 0.28107,-1.20735 1.49809,-1.50075 z m -3.51976,0.004 c 0,0 -0.99138,0.34864 -1.37819,0.82931 l -0.29308,0.5229 c -0.24131,-0.42154 -0.43271,-0.84746 -0.55355,-1.27894 0.70654,0.0353 1.91359,-0.0304 2.22482,-0.0733 z m -42.23363,0.0166 0.0207,1.14172 c 0,0 -0.23682,-0.0829 -0.37302,-0.26112 -0.15109,-0.17956 -0.42515,-0.4277 -0.49959,-0.58684 -0.0179,-0.13379 -0.022,-0.2871 -0.022,-0.2871 z m 21.78061,0.0353 c 1.25192,0.64453 2.50361,1.28919 3.75554,1.93372 -0.24436,0.13593 -0.50837,0.40771 -0.81265,0.27911 -0.36942,-0.15897 -0.71016,-0.37718 -1.07379,-0.54888 0.0231,0.47937 0.15477,0.88007 0.005,1.45079 -0.0323,0.12282 -0.14284,0.24335 -0.26645,0.27244 -0.0888,0.0209 -0.2224,-0.0114 -0.25845,-0.0899 -0.0734,-0.15978 -0.0555,-0.62224 -0.0666,-0.85129 -0.007,-0.11546 -0.0126,-0.33764 -0.0213,-0.38835 -0.0107,-0.32275 -0.0871,-0.68582 -0.37569,-0.8766 -0.0796,-0.0686 -0.32285,-0.18164 -0.33905,-0.19784 -0.19943,-0.10265 -0.39688,-0.13044 -0.51823,-0.31907 -0.10654,-0.16559 0.0461,-0.53626 -0.028,-0.66411 z m 21.22239,0.0253 c 0.10973,-0.002 0.27273,0.0939 0.3557,0.21782 0.0266,0.0397 0.0379,0.0801 0.0346,0.1199 -0.01,0.11945 -0.1485,0.23343 -0.38035,0.30441 0,0 -0.16285,-0.018 -0.21715,-0.0766 -0.0124,-0.0137 -0.23552,-0.14036 -0.23314,-0.15854 0.0127,-0.0968 0.0447,-0.44647 0.36369,-0.38101 0.0254,0.005 0.0459,-0.0255 0.0766,-0.026 z m -50.0265,0.0453 c 0.93962,-0.002 0.93061,0.52739 1.83781,1.87312 l 0.87793,-1.77853 c 0,0 0.20633,0.0189 0.30242,0.052 0.25244,0.0869 0.20783,0.44696 0.20783,0.44696 0,0 -0.42234,0.85549 -0.67478,1.29293 -0.19675,0.49925 -0.30539,0.51991 -0.12123,0.90591 l -0.014,-0.018 0.0153,0.0206 c -2.1e-4,-4.1e-4 0.0554,0.0544 0.0553,0.0539 l 0.43031,0.55954 c 0.0422,0.0478 0.0756,0.0852 0.11523,0.12989 0.59035,-0.98182 1.10897,-1.92204 1.50742,-3.42249 0.1854,0.18046 0.55645,0.33818 0.35637,1.01849 -0.15921,0.32046 -0.35382,0.91687 -0.52889,1.2343 0.576,-0.0814 0.58689,-0.1431 1.28826,-0.0959 0.15093,0.0102 1.08445,0.136 1.1304,0.23248 -0.0139,0.49955 -0.17287,0.3973 -0.35437,0.42098 -0.53841,-0.0537 -0.89833,-0.16545 -1.43815,-0.0513 -0.38823,0.0509 -0.81247,0.13201 -1.01715,0.39101 -0.0757,0.0736 -0.19038,0.28583 -0.2085,0.30108 -0.10069,0.16605 -0.14202,0.21288 -0.27444,0.42432 0.59921,0.63684 1.06679,0.95924 1.94373,1.09642 l 0.61082,-0.0353 c 0.50506,1e-4 0.73806,-0.0153 0.73806,-0.0153 l 0.17918,0.31107 -0.18051,0.31241 -1.53939,0.0733 c 0.73485,1.31161 1.78781,1.79752 1.3269,2.60118 -2.82221,-3.05613 -3.32293,-3.55892 -4.23516,-4.68611 -1.18988,-1.33804 -1.66673,-2.3814 -2.17419,-3.2533 z m 31.76432,0.0659 c 0.001,10e-6 1.48809,0.0239 1.8731,0.022 0.0549,-3.2e-4 0.0899,7.2e-4 0.0979,0.004 0.0646,0.0267 0,0.83264 0,0.83264 -1.09043,0.22766 -1.06498,-0.35551 -1.97103,-0.85862 z m -26.08903,0.91058 c 0.17198,-0.008 0.35892,0.16819 0.50225,0.48559 0,0 0.004,0.2357 -0.0693,0.32374 -0.0173,0.0201 -0.0376,0.0327 -0.0639,0.0326 -0.14029,-4.1e-4 -0.60017,-0.008 -0.72873,-0.1199 -0.12855,-0.11183 -0.0116,-0.47129 0.19517,-0.65146 0.0517,-0.0451 0.1072,-0.068 0.16453,-0.0706 z m 43.26944,0.0719 c 0,0 0.002,0.131 0.0486,0.20116 0.0105,0.0164 0.0149,0.0342 0.009,0.0526 -0.0297,0.0984 -0.13167,0.41887 -0.23714,0.48559 -0.10549,0.0667 -0.4299,-0.0842 -0.51291,-0.26711 -0.083,-0.18293 0.10782,-0.41908 0.44496,-0.46428 z m -7.3892,0.51024 c 1.65608,2.75893 3.29375,5.53066 4.82665,8.3604 -2.05899,1.8996 -3.48726,4.3887 -4.80933,7.04282 z m 0.25379,0.88393 c 0.0287,4.15179 0.006,9.26043 0.0346,13.41221 0.80167,-1.46832 1.72746,-3.5563 4.21116,-6.01834 -1.45844,-2.43171 -2.8556,-5.26713 -4.2458,-7.39387 z m -12.93461,0.003 c 0,0 0.97138,1.28708 0.51691,1.86245 -0.1786,0.2261 -0.51158,0.6428 -0.51158,0.6428 z m 5.69327,0.21182 -0.12788,19.14878 -6.31144,0.0166 c 0,0 -0.10663,-11.77765 1.53407,-14.58789 0.91544,-1.56803 2.13956,-2.94838 4.90525,-4.57754 z m -0.97185,0.02 -0.98053,0.58485 -1.26894,1.0025 0.27976,-0.39434 c 0.22394,-0.15073 0.7084,-0.71576 1.31159,-0.93722 0.49627,-0.18221 0.62496,-0.23884 0.65812,-0.25579 z m 8.3877,0.41899 c 0,0 0.25279,0.4727 0.46429,0.88726 0.71526,1.16614 1.44012,2.72605 2.22815,4.06863 -0.27932,-0.0127 -0.86862,-0.51424 -0.86862,-0.51424 -0.23079,-0.32936 -0.37032,-0.60073 -0.5895,-0.93789 -0.23223,0.42 -0.42632,1.05912 -0.42632,1.05912 -0.13905,0.20745 -0.63042,0.61716 -0.63547,0.59484 0.062,-0.77798 0.43176,-1.55292 0.48959,-2.32274 0,0 0.0602,-0.24849 0.002,-0.37436 -0.0317,-0.10016 -0.17926,-0.32408 -0.18452,-0.34638 -0.11573,-0.19212 -0.47961,-0.7214 -0.47961,-0.7214 -0.0417,-0.66146 -0.003,-1.19501 -0.003,-1.19501 z m -7.66564,0.16519 c -2.08066,1.41337 -3.34331,2.0722 -4.32174,4.09994 -0.95772,1.98487 -1.25926,5.2051 -1.41883,8.05465 -0.18329,3.27341 -0.14654,6.06563 -0.14654,6.06563 l 5.73724,0.0859 z m 17.37626,0.028 c 0.0468,-4.1e-4 0.15805,0.05 0.20117,0.0619 0.046,0.0128 0.18367,0.14286 0.20716,0.17519 0.0704,0.097 -0.0909,0.30995 -0.22049,0.5149 0,0 -0.13509,0.0923 -0.21449,0.0833 -0.0183,-0.002 -0.0339,-0.009 -0.044,-0.0247 -0.0535,-0.0817 -0.2249,-0.35136 -0.20917,-0.46894 0.012,-0.09 0.12692,-0.34048 0.27978,-0.34172 z m -32.01811,0.25512 c 0.15868,-9.9e-4 0.36661,0.17626 0.56686,0.49692 0,0 0.0603,0.26099 0.0113,0.3657 -0.0116,0.024 -0.0289,0.0403 -0.054,0.0426 -0.13357,0.0125 -0.57233,0.046 -0.7214,-0.0666 -0.14906,-0.11261 -0.1243,-0.52326 0.0293,-0.74272 0.0432,-0.0617 0.0981,-0.0924 0.16054,-0.0953 0.002,-1.1e-4 0.005,-6.8e-4 0.007,-6.8e-4 z m -12.74076,0.0287 0.0207,0.0406 -0.16852,0.40833 c 0,0 -0.44665,0.15369 -0.54422,0.13389 -0.0976,-0.0198 -0.46952,0.047 -0.55487,0.0253 -0.0854,-0.0217 -0.51908,-0.0986 -0.7214,-0.11924 -0.39049,-0.034 -0.5976,0.12721 -0.75271,0.0926 0.007,-0.13119 0.18223,-0.36363 0.33838,-0.4343 0.15616,-0.0707 0.58869,-0.10325 0.71874,-0.10325 0.13006,0 1.0621,0.15711 1.25629,0.10192 0.19419,-0.0552 0.40766,-0.14588 0.40766,-0.14588 z m 26.73049,1.29292 c 0,-2e-5 0.001,10e-6 0.002,0 0.0208,-4e-5 0.0375,0.009 0.048,0.0333 0.0577,0.13151 0.22825,0.65057 0.2005,0.86262 -0.0278,0.21203 -0.44577,0.61158 -0.66145,0.56619 -0.21567,-0.0454 -0.33162,-0.65545 -0.10458,-1.18168 0,0 0.42151,-0.27699 0.51557,-0.28044 z m 23.57444,0.13656 c 0.0327,4.83693 0.0619,9.67643 0.10258,14.51463 -1.38094,-2.40962 -2.83156,-4.78115 -4.15188,-7.22468 -0.29741,-0.31358 -0.48094,-0.93922 -0.48094,-0.93922 0,0 1.24244,-1.04406 1.62798,-1.65197 1.28798,-1.34173 2.22489,-2.9746 2.90226,-4.69876 z m -24.52032,0.21915 c -0.22972,0.35777 -0.44505,0.72578 -0.62282,1.11241 -0.35684,0.71362 -0.51035,1.61838 -0.0253,2.31275 0.15759,0.42556 0.30936,0.39606 0.46429,-0.04 0.19676,-0.51712 0.36896,-0.98088 0.98185,-0.82398 -0.68605,1.20425 -1.17944,2.40576 -1.86046,3.60501 -0.23857,0.48212 -0.68128,0.91279 -0.4776,1.50075 0.13035,0.28894 0.22673,0.42727 0.38834,0.71474 0.3089,0.74266 0.53281,-0.43803 0.78869,-0.70275 0.32597,-0.61049 0.60509,-1.37684 1.40416,-1.2836 -1.02145,1.42599 -1.63178,2.9787 -2.50659,4.4956 -0.23779,0.46427 -0.61028,0.8411 -0.66145,1.38752 0.0681,0.40157 0.31624,0.66019 0.49426,1.01449 0.26986,-0.0491 0.66128,-1.25798 0.94655,-1.59001 0.13079,-0.39728 0.53454,0.14194 0.5169,0.48559 -0.14144,0.61809 -0.80676,1.36292 -1.08043,1.92374 0.42359,2e-5 1.10912,0.14054 1.53273,0.14055 0.22444,-0.0763 0.30049,0.26229 0.29175,0.409 -0.0349,0.12248 -0.0245,0.31267 -0.10724,0.35237 -0.23194,0.11136 -0.81137,-0.10623 -1.17303,-0.15054 -0.48566,-0.0693 -1.14015,0.0575 -1.32824,0.60949 -0.0766,0.11952 -0.22337,0.38498 -0.32639,0.55954 -0.24008,-10e-5 -0.48,10e-5 -0.72006,0 l 0.84595,-1.46945 c -0.31873,0.43507 0.29798,-0.42947 0.0986,-0.65679 -0.43757,-1.13052 -1.0958,-2.16723 -1.74388,-3.18869 -0.3031,-0.30061 -0.12232,-0.34748 0.20849,-0.29908 0.61899,0.0489 0.69093,0.84616 1.03048,1.2423 0.27988,-0.48011 0.55254,-0.97159 0.84064,-1.43747 0.17631,-0.33299 0.45016,-0.6341 0.33105,-1.10775 -0.46617,-0.87538 -1.02898,-1.70376 -1.50808,-2.5752 -0.0723,-0.33774 -0.94785,-1.19301 -0.21116,-1.05712 0.68434,-0.0472 0.77519,0.80845 1.08177,1.24497 0.31039,-0.52963 0.60536,-1.05972 0.91058,-1.58935 0.29577,-0.33739 0.33884,-0.98204 0.0546,-1.31824 -0.48781,-0.76228 -0.74312,-1.72714 -0.46961,-2.61117 0.35318,-0.59266 1.01066,-0.91823 1.61067,-1.20966 z m -11.23935,0.57086 c 0.002,-3e-5 0.003,-7e-5 0.005,0 0.006,3.1e-4 0.0129,6.8e-4 0.0186,0.002 6.8e-4,10e-5 10e-4,8e-5 0.002,6.8e-4 0.0201,0.005 0.0348,0.0159 0.0406,0.036 0.0321,0.11037 0.1321,0.4746 0.0673,0.62415 -0.10672,0.43545 -0.73096,0.60371 -0.93123,0.51957 -0.20027,-0.0841 0.0753,-0.64859 0.38901,-0.98252 0,0 0.30238,-0.19797 0.40899,-0.19983 z m 1.25563,0.37036 c 0.004,-2e-5 0.008,-7e-5 0.0127,0 0.0853,9.9e-4 0.15822,0.0245 0.18118,0.13389 0.13466,0.13299 0.0878,0.26606 -0.0186,0.399 -0.19868,0.34416 -0.39749,0.68765 -0.59617,1.03181 0.45288,0.0299 0.91868,-0.0671 1.36153,0.0446 0.22189,0.11808 0.0436,0.52218 0.17519,0.72074 -1.14494,-0.38719 -1.79993,-0.19471 -3.00883,-0.0593 l 0.24313,0.69809 c 0.4702,0.38806 0.85246,0.42861 1.28959,0.4736 0.42229,-0.0625 0.68743,-0.0417 1.05779,-0.0553 0.0595,0.13262 0.0974,0.14022 0.0806,0.39767 -0.0478,0.18312 -0.0752,0.35882 -0.12856,0.33439 -0.39738,1e-5 -1.38713,-0.0933 -1.78452,-0.0933 0.20053,0.40717 0.5821,0.98077 0.70675,1.42016 0.11069,0.2935 -0.3607,0.64468 -0.46695,0.85795 -0.22874,-1.4083 -1.73113,-2.84352 -2.04896,-4.53357 0.22455,10e-6 0.89652,-0.14834 1.12107,-0.14988 0.31154,-0.002 0.80126,-0.1604 0.97452,-0.57485 0.20945,-0.27128 0.38335,-0.78881 0.65812,-1.04181 0.0593,0.006 0.12753,-0.004 0.19051,-0.004 z m 34.26025,0.0553 c -0.69735,2.12606 -2.46203,3.61114 -3.92142,5.21567 1.17439,2.40992 2.57896,4.69668 3.99736,6.96822 z m -27.58446,0.16053 c 0.005,0.0125 -1.02735,1.35554 -1.11773,3.70493 l 0.036,-2.4986 c 0,0 0.47953,-0.75779 0.99917,-1.16503 0.0365,-0.0287 0.0631,-0.0414 0.0813,-0.0406 10e-4,-5.1e-4 10e-4,-4.4e-4 10e-4,-6.8e-4 z m 27.30536,1.26695 c 0.0706,0.20725 0.0732,0.52794 0.0306,0.74271 -0.0397,0.20066 -0.18297,0.3537 -0.31773,0.50758 -0.008,0.0856 -0.12661,0.23292 -0.17119,0.31774 -0.18081,0.2585 -0.0744,1.30601 0.0247,1.58336 0.15754,0.27403 0.53023,1.24496 0.53023,1.24496 0,0 -0.40201,-0.0518 -0.49293,-0.17319 -0.23286,-0.2284 -0.42364,-0.60883 -0.42364,-0.60883 -0.23261,-0.43285 -0.17071,-0.71471 -0.31175,-1.12906 -0.30923,0.28659 -0.80594,0.99969 -1.1144,1.13639 l -0.818,0.0393 c 1.06282,-0.7321 2.26604,-2.30125 2.96954,-3.49443 z m -12.21987,0.75337 c 0.0968,9.9e-4 0.17841,0.0324 0.22848,0.11258 0,0 0.30191,0.55052 0.0826,0.62748 0.049,0.0591 -0.44687,0.33516 -0.49226,0.32572 -0.13134,-0.0273 -0.70288,-0.0766 -0.85196,-0.18917 -0.76154,-0.44602 -0.9608,-0.85176 -0.81798,-0.77136 0.40085,0.22564 0.7044,0.2309 1.00782,0.044 0.002,-10e-5 0.005,-6.8e-4 0.007,-6.8e-4 0.11908,-9.9e-4 0.54559,-0.15253 0.83597,-0.14854 z m -45.35637,0.21183 0.058,12.94926 7.65432,0.028 c -0.52771,-5.21283 -3.61007,-9.13152 -7.50711,-12.78939 z m 42.99166,0.1985 c 0,0 0.36393,0.30648 0.46362,0.43963 0.25533,0.25045 0.38435,0.72207 0.38435,0.72207 0.15449,0.51208 0.17975,0.87724 0.33439,1.33157 0.20115,-0.39705 0.88349,-1.16473 1.29559,-1.27028 l 0.95721,-0.20916 c -1.09287,0.62239 -2.47801,2.72518 -3.3026,3.87411 -0.0774,-0.22724 -0.1239,-0.49255 -0.0773,-0.72806 0.0435,-0.22001 0.14066,-0.29154 0.28843,-0.46028 0.009,-0.021 0.19293,-0.2154 0.2418,-0.30841 0.19827,-0.28345 0.13661,-0.64977 0.028,-0.95388 -0.0106,-0.0503 -0.6135,-2.43731 -0.6135,-2.43731 z m -11.45649,0.0613 c 0.0714,-3.1e-4 0.19307,0.0682 0.20183,0.0813 0.0748,0.11146 0.34107,0.73018 0.30508,0.90991 -0.036,0.17972 -0.4351,0.33754 -0.71474,0.29908 -0.27965,-0.0385 -0.47625,-0.6324 -0.18185,-1.07843 0,0 0.22841,-0.10766 0.35038,-0.11058 -0.0284,-0.0763 -0.004,-0.10107 0.0393,-0.10125 z m -12.45434,0.46295 c 0,0 0.41316,1.74133 0.76071,2.27012 0.43241,0.65791 2.55314,2.9597 3.15738,3.48045 0.71302,0.6145 1.8021,2.07573 1.97702,2.26278 0.3001,0.34973 0.25122,0.75959 0.21249,0.86395 -0.20966,-0.3857 -1.94604,-2.47906 -2.49859,-2.86296 -0.55256,-0.38389 -2.65429,-2.73277 -2.98419,-3.13473 -0.32991,-0.40196 -0.59151,-1.31957 -0.59151,-1.31957 z m 15.02554,0.0386 c 0.002,-1.1e-4 0.19684,0.1479 0.1632,0.28576 0.15868,-10e-4 0.2107,-0.11021 0.41099,0.21049 0,0 -0.10026,0.7206 -0.14921,0.82532 -0.0116,0.024 -0.0282,0.0403 -0.0533,0.0426 -0.13357,0.0125 -0.57233,0.046 -0.7214,-0.0666 -0.14906,-0.11261 -0.1243,-0.52326 0.0293,-0.74272 0.0432,-0.0617 0.25794,-0.55203 0.3204,-0.55487 z m -33.64676,0.22914 c 0.16916,0.003 0.47612,0.15719 0.70808,1.10708 0.0801,0.32781 -0.67011,-0.23247 -0.67011,-0.23247 l -0.1632,-0.84663 c 0,0 0.0483,-0.0295 0.12523,-0.028 z m 0.0266,1.35354 c 1.14779,0.50748 0.13904,0.75592 1.21499,1.76254 0.22176,-0.41518 0.42981,-0.67592 0.54422,-1.201 l 0.43097,0.18718 0.17985,0.31174 c 0,0 -0.22861,0.3815 -0.49159,0.8373 l 0.0113,-0.0133 c -0.36085,0.62547 -0.21905,0.87873 0.0346,1.31224 l -0.008,-0.008 0.28976,0.50158 c 0.7684,-1.29212 0.45972,-1.19101 1.38619,-1.19367 -0.63293,0.84512 -1.15524,1.86196 -1.71458,3.0115 l 0.012,-0.016 c -0.36083,0.62547 -0.21905,0.8794 0.0346,1.31291 l -0.0207,-0.0306 0.34238,0.5935 0.36037,0.62415 0.28909,-0.50158 -0.008,0.009 c 0.25368,-0.43351 0.39549,-0.68744 0.0346,-1.31291 l 0.009,0.009 c -0.18933,-0.32812 -0.24371,-0.35547 -0.25979,-0.34571 l 0.17253,-0.29908 h 0.36103 l 0.44297,0.63813 c 0.76847,-1.29223 0.46035,-1.19101 1.38685,-1.19367 -0.9108,1.29225 -1.30624,1.86817 -1.71258,3.00684 l 0.01,-0.012 c -0.36086,0.62546 -0.21906,0.8794 0.0346,1.31291 l -0.0153,-0.0206 0.33706,0.58352 c 0.68587,-0.96595 1.20083,-1.83169 1.8025,-3.12208 0.46091,0.80364 0.37382,0.56151 -0.36103,1.87311 0.73526,0.83623 -0.0649,0.16074 -0.75471,1.31358 -0.12637,0.19701 -0.23054,0.35148 -0.37769,0.53156 l -0.54821,-0.054 -0.16053,-0.0446 -0.29442,-0.45029 0.007,0.0166 c -0.24642,-0.43745 -0.32239,-0.59304 -1.11908,-0.6861 l 0.016,-0.003 c -0.50404,-1.1e-4 -0.70541,0 -0.70541,0 0,0 -0.16743,-0.19788 -0.17985,-0.31174 -0.0124,-0.11388 -0.20586,-0.23508 0.0992,-0.31241 0.30511,-0.0773 1.13619,0.006 1.13439,0 -0.61529,-1.56351 -1.29669,-2.46097 -2.28544,-4.06596 0.92186,0.0203 0.34831,-0.0109 1.20367,0.94321 l 0.29842,-0.5169 -0.0166,0.0233 c 0.25369,-0.43352 0.39547,-0.68679 0.0346,-1.31224 l 0.0113,0.0147 c -0.78109,-1.88047 -1.64132,-1.83467 -1.4921,-3.70293 z m 24.08602,0.33106 c 0.12294,-0.005 0.0537,1.20841 0.0433,1.31824 0.004,0.008 0.006,0.0427 0.006,0.0979 v 6.8e-4 c -0.002,0.38749 -0.0546,1.59601 -0.0546,1.59601 l -0.2085,-0.18718 c -0.67736,-0.72979 -0.12348,-0.043 -0.87461,-0.92523 0.26538,-0.31528 0.48409,-0.3273 0.79534,-0.99784 0.14869,-0.6648 0.23922,-0.90057 0.2931,-0.90258 z m 30.90036,0.42765 c 0.15814,-1e-5 0.56247,2.3e-4 0.69009,0.0966 0.69543,0.40729 0.92712,0.96135 0.79668,0.88793 -0.36604,-0.20605 -0.69276,-0.29261 -0.96986,-0.1219 -0.002,1.1e-4 -0.004,0 -0.007,0 -0.10868,0.001 -0.28967,0.11622 -0.55487,0.11258 l -0.11591,-0.02 c -0.0884,-0.001 -0.17609,-0.10397 -0.22182,-0.17718 0,0 -0.35549,-0.48594 -0.1552,-0.55621 0.27419,-0.29165 0.38031,-0.1722 0.53755,-0.22182 z m -36.5237,1.18635 c 0,0 2.64386,2.42529 3.90277,3.79218 1.12958,1.06583 2.52249,2.42018 2.49193,2.34606 -0.0173,-0.042 0.0153,1.4195 0.0153,2.404 0.001,-10e-5 0.002,-6.8e-4 0.003,-6.8e-4 0.004,0.11751 0.006,0.2392 0.006,0.36437 h -6.3967 z m 38.59731,6.8e-4 c 10e-4,-10e-5 0.002,4e-5 0.002,6.8e-4 -0.0569,0.71429 -0.32858,1.41877 -0.38168,2.12557 0,0 -0.0554,0.22815 -0.002,0.34371 0.0291,0.092 0.0964,0.3046 0.10124,0.32507 0.10627,0.17639 0.4403,0.66211 0.4403,0.66211 0.0383,0.60732 -0.0206,1.05579 -0.0206,1.05579 0,0 -0.29941,-0.42404 -0.4936,-0.80466 -0.6379,-1.07431 -1.27375,-2.37223 -2.19218,-3.56704 -0.15645,-0.20354 1.03247,0.5169 1.03247,0.5169 0.21189,0.3024 0.33967,0.55173 0.5409,0.86129 0.21322,-0.38561 0.39167,-0.97253 0.39167,-0.97253 0.12367,-0.18451 0.55071,-0.54326 0.58151,-0.54688 z m -26.89501,0.54954 c 0.33914,0.20427 0.53199,0.73016 0.73139,1.03448 0,0 0.0672,0.29163 0.0127,0.40833 -0.013,0.0267 -0.032,0.0447 -0.06,0.0473 -0.14886,0.0138 -0.63787,0.0509 -0.804,-0.0746 -0.16613,-0.12548 -0.5495,-0.95243 -0.37835,-1.197 0.14083,-0.0689 0.35682,-0.1564 0.49825,-0.21849 z m 4.01467,0.003 -0.036,3.32924 c 0,0 -0.76131,-0.50149 -0.79002,-0.81931 -0.0508,-0.56263 0.27678,-1.62223 0.82599,-2.50993 z m -15.39923,0.10791 v 7.92543 l 5.7379,-0.0213 c 0.003,-10e-6 0.005,2e-5 0.008,0 -0.0112,-0.5978 0.0564,-1.73391 -0.0639,-2.19484 -0.78927,-0.85569 -1.815,-1.74745 -2.27212,-2.23748 -1.13007,-1.21151 -3.40983,-3.47179 -3.40983,-3.47179 z m -18.46002,0.60418 c 0.16975,-0.002 0.35384,0.17381 0.49492,0.48626 0,0 0.004,0.23502 -0.0693,0.32305 -0.0173,0.0202 -0.0383,0.0327 -0.0646,0.0326 -0.14028,-3.4e-4 -0.5995,-0.008 -0.72806,-0.1199 -0.12854,-0.11183 -0.0122,-0.47062 0.19451,-0.65079 0.0517,-0.0451 0.1072,-0.068 0.16453,-0.0706 0.003,-10e-5 0.005,-6.9e-4 0.008,-6.9e-4 z m 48.59702,0.13321 c 1.4805,2.37822 2.88039,4.80729 4.14323,7.3086 l -7.18537,0.10526 c -0.20971,-1.11769 0.0856,-2.25069 0.27044,-3.34857 0.52992,-1.57266 1.44332,-3.04637 2.7717,-4.06529 z m -45.06062,0.57287 c 0,0 0.25674,0.072 0.32839,0.1805 0.0163,0.0254 0.0233,0.0521 0.0147,0.0806 -0.046,0.15219 -0.20384,0.64815 -0.36703,0.75139 -0.16319,0.1032 -0.51571,-0.14 -0.64413,-0.42299 -0.12843,-0.28301 0.14652,-0.51959 0.66811,-0.5895 z m 45.10991,0.0826 c -1.88336,1.23595 -2.59275,3.60962 -2.70109,5.75057 -0.0812,0.27435 0.0827,0.53946 0.2298,0.55087 2.01681,0.0716 4.20945,0.0411 6.01569,0.0413 -1.19146,-2.1087 -2.37317,-4.22274 -3.5444,-6.34274 z m -29.51884,0.36504 c 0.34458,0.38619 3.50954,3.71623 4.23515,5.49277 -0.57507,0.0481 -0.78217,0.25077 -0.98519,-0.0773 -0.15528,-0.2509 -0.28014,-0.72346 -0.55687,-1.07312 -0.28934,-0.36559 -0.51098,-0.6791 -0.71274,-0.7607 -0.0629,-0.0254 -0.25292,0.55027 -0.36702,0.99651 -0.087,0.34042 -0.12513,0.51682 -0.21583,0.74139 -0.0804,0.19906 -0.11808,0.37808 -0.26511,0.40033 -0.10558,0.016 -0.40628,0.007 -0.58418,0.0106 0.0287,-0.21771 0.21622,-0.50564 0.27977,-0.89526 0.03,-0.19676 0.13069,-0.57452 0.13788,-0.66212 0.095,-0.54791 0.28489,-1.2373 0.0273,-1.62265 -0.0658,-0.13322 -0.34574,-0.5919 -0.35837,-0.62282 -0.18766,-0.21697 -0.57549,-0.62173 -0.6801,-0.82598 -0.0775,-0.36957 -0.0888,-0.0653 0.0453,-1.10175 z m 29.16847,0.5229 c 0.20887,0.33192 2.04979,4.0352 3.07944,5.06113 -0.57507,0.0481 -0.67976,0.15771 -0.98518,-0.0779 -0.31767,-0.51325 -0.86584,-1.57862 -1.27495,-1.69659 -0.18499,0.41183 -0.57645,1.70327 -0.98584,2.00167 -0.10557,0.016 -0.70138,-0.10148 -0.87928,-0.0979 0.57311,-0.5935 1.42891,-2.55003 1.15239,-3.39717 -0.38775,-0.6879 -0.50212,-0.88759 -0.56421,-1.06378 -0.0874,-0.38158 0.046,-0.4107 0.45763,-0.72941 z m -0.9652,1.51207 c 0.34131,0.004 0.43098,0.93887 0.42032,1.10575 -0.31306,0.77061 -0.66854,0.70225 -1.0951,1.91908 -0.009,-1.81938 0.27934,-2.3228 0.67478,-3.02483 z m -28.1673,0.2125 c 0.003,-2.1e-4 0.006,1.8e-4 0.009,6.8e-4 0.0574,0.009 0.14014,0.13711 0.26178,0.32772 0.0515,0.0807 0.16434,0.34026 0.18785,0.59951 0.0247,0.27245 0.17141,0.35762 -0.12257,0.72206 -0.0789,0.0978 -0.209,0.29751 -0.28976,0.44364 l -0.14721,0.26578 0.0207,-0.46495 c 0.0114,-0.25552 -0.0514,-0.54918 -0.0486,-0.69342 0.0168,-0.87417 0.0408,-1.19601 0.12923,-1.20101 z m 14.10829,0.26578 c 0,0 0.21093,0.0476 0.26978,0.1199 0.0133,0.0169 0.31688,0.35371 0.18651,0.42898 -0.0722,0.0417 -0.1224,0.46012 -0.25646,0.52888 -0.13405,0.0688 -0.40007,-0.28309 -0.50557,-0.47159 -0.1055,-0.18852 -0.12271,-0.5596 0.30574,-0.60617 z m -32.99663,0.1885 c 0.003,-9e-5 0.005,0 0.008,0 0.16976,-0.002 0.35384,0.17316 0.49493,0.48561 0,0 0.004,0.2357 -0.0693,0.32372 -0.0173,0.0202 -0.0383,0.0327 -0.0646,0.0326 -0.14028,-3.4e-4 -0.5995,-0.008 -0.72806,-0.1199 -0.12855,-0.11183 -0.0122,-0.47128 0.1945,-0.65146 0.0517,-0.0451 0.1072,-0.068 0.16453,-0.0706 z m 29.42094,0.57286 c 0.003,2.2e-4 0.007,0.002 0.01,0.002 0.19368,0.01 0.32414,0.30327 0.33706,0.77536 0,0 -0.2891,0.52341 -0.2891,0.40233 -0.0232,0.0155 -0.0467,0.0211 -0.0706,0.01 -0.12724,-0.0596 -0.54189,-0.26156 -0.61682,-0.4423 -0.0749,-0.18075 0.27113,-0.60398 0.52623,-0.72073 0.0349,-0.016 0.0681,-0.0241 0.0999,-0.0247 0,-0.002 0.002,-0.002 0.003,-0.002 z m -23.38461,1.37553 c 0.10574,0.47408 0.16214,0.9376 0.14987,1.38552 -0.55729,-0.008 -1.44047,0.11979 -1.5154,-0.1279 0,0 0.59468,-0.30147 1.10641,-0.64613 z m 14.82104,0.1652 c 0.0461,-1.1e-4 0.30215,0.18064 0.36103,0.27311 0.13766,0.21613 -0.26806,0.4706 -0.47161,0.29575 -0.09,-0.0773 0.0516,-0.13249 0.13189,-0.36369 0.0355,-0.10221 -0.0584,-0.18794 -0.0333,-0.18985 0.002,-2.2e-4 0.009,0.002 0.008,0 -0.005,-0.0109 -0.004,-0.0153 0.004,-0.0153 z m -21.5781,0.19716 c 0,0 0.21032,0.20457 0.2065,0.28177 -0.007,0.13509 0.15576,0.52552 0.5542,0.51824 0.14369,-0.003 0.54222,0.21916 0.54222,0.21916 l -1.33423,-0.0247 z m -6.38604,5.24965 v 26.64324 c 6.73049,3.3e-4 13.46143,0.001 20.19192,0.001 -0.008,-8.88162 -0.0166,-17.76293 -0.0247,-26.64456 -6.72244,2e-5 -13.44482,-2e-5 -20.16727,0 z m 23.07619,0 -0.0799,26.64457 h 20.27052 c -0.008,-8.88163 -0.0155,-17.76296 -0.0233,-26.64457 -6.72243,1e-5 -13.44483,-10e-6 -20.16727,0 z m 23.07552,0 v 26.6439 l 20.19126,6.9e-4 v -26.64457 z m -45.19117,0.82998 h 18.24687 c 3.2e-4,8.31761 10e-4,16.63571 10e-4,24.9533 -6.08239,-3.2e-4 -12.16515,-10e-4 -18.24753,-10e-4 z m 23.07619,0 h 18.24686 c 0,8.3176 10e-4,16.63572 10e-4,24.9533 -6.08236,-3.2e-4 -12.16514,-10e-4 -18.24752,-10e-4 z m 23.07686,6.9e-4 h 18.26751 v 24.98128 l -18.26751,-6.9e-4 z m 0.48093,0.41831 v 24.14597 l 17.30698,6.9e-4 -6.8e-4,-24.14664 z m -45.80067,0.37635 c -0.0764,3.43083 -0.0828,6.86158 -0.0386,10.29281 -0.0681,4.30837 0.12002,8.61502 0.10325,12.92328 5.53404,0.004 11.06511,0.26766 16.59956,0.20316 0.0941,-7.79373 0.16135,-15.58933 0.10192,-23.38327 z m 23.27469,0.0346 -0.21582,23.22873 c 3.12309,0.0371 6.24433,0.10237 9.36756,0.0293 2.4209,-0.0169 4.84239,-0.0149 7.26331,-0.0133 -0.009,-7.72151 0.098,-15.44278 0.1199,-23.16411 z m 35.51587,0.36903 c 10e-4,3.9254 0.0894,7.9515 0.003,11.83153 -4.20752,-5.95138 -8.54327,-7.86194 -8.52759,-11.73961 z m -9.39554,0.0353 c 0,1.46775 0.38972,2.73574 1.11307,3.77619 2.75724,3.91718 6.84082,6.39575 8.91328,10.81238 0.17682,0.33736 0.22746,0.43683 0.32041,6.8e-4 v -14.57191 h 2.40399 l 10e-4,22.48135 h -2.88561 c -0.27326,-1.98798 -0.69929,-4.02253 -1.69591,-5.88046 -1.87409,-3.51453 -4.69277,-6.67021 -7.9574,-9.47547 -0.0556,-0.0251 -0.10476,-0.0384 -0.14789,-0.0413 -0.0144,-0.001 -0.0282,-6.8e-4 -0.0413,6.8e-4 -0.22698,0.0224 -0.26495,0.37889 -0.25246,0.82532 l 0.0187,14.63119 -2.5026,-0.06 c 0.0457,-7.4546 0.19964,-14.68529 0.0799,-22.48135 z m 9.10045,0.28709 -7.92409,0.009 c 0.29033,3.82333 4.69655,6.06224 7.94008,10.66315 0.1201,-3.449 -0.0146,-8.89371 -0.016,-10.67248 z m -34.53202,0.10058 3.63765,0.01 c -1.38646,0.97413 -2.57767,2.18827 -3.63498,3.50642 0.0118,-1.17186 0.0296,-2.34476 -0.003,-3.51641 z m -15.07416,0.0486 c 2.69711,-6.8e-4 5.27812,1.65858 6.55124,4.01067 -0.55185,0.76748 -1.69084,2.38794 -2.37071,0.95721 -1.68037,-1.73526 -4.42418,-2.62028 -6.69044,-1.54538 -1.59801,0.94282 -2.89207,2.53309 -3.27396,4.36638 -0.32347,2.1747 0.37491,4.39964 1.48943,6.25014 2.17159,3.24687 6.19915,4.76362 9.99505,4.72142 -0.42688,1.0809 -0.96294,2.93465 -2.30409,2.89359 -4.06937,-0.13363 -8.12518,-2.37216 -9.99238,-6.0643 -1.73792,-2.86459 -2.41257,-6.45983 -1.3249,-9.68395 0.6692,-2.38751 2.6564,-4.22951 4.84198,-5.2703 0.96681,-0.42584 2.0232,-0.63788 3.07878,-0.63548 z m 3.76488,0 c 1.10126,0.007 2.202,0.0138 3.30326,0.0206 -0.0545,0.93104 0.21282,2.55714 0.0166,3.06546 -0.84706,-1.27325 -2.08124,-2.22016 -3.31991,-3.0861 z m -8.09129,0.0266 c -1.69618,1.11828 -3.02953,2.72059 -4.08261,4.44165 v -4.41435 c 1.36075,-0.009 2.72186,-0.0183 4.08261,-0.0273 z m 31.34067,0.052 c 0.01,-7e-5 0.0199,-2e-5 0.03,0 0.31021,6.8e-4 0.8802,0.0827 1.18835,0.0739 0.63679,0.0407 1.27483,0.0227 1.91241,0.0266 0.0422,1.26995 0.0521,2.98623 0.0233,4.25647 -0.99016,-1.36511 -2.18421,-3.39661 -3.65297,-4.30975 0.16469,-0.035 0.33129,-0.0463 0.49892,-0.0473 z m 22.36078,0.044 0.0207,1.14173 c 0,0 -0.23683,-0.0829 -0.37304,-0.26112 -0.15107,-0.17957 -0.42514,-0.4277 -0.49958,-0.58685 -0.0179,-0.13379 -0.022,-0.28776 -0.022,-0.28776 z m -7.02351,0.10592 c 0.93963,-0.002 0.93063,0.52738 1.83782,1.87311 l 0.87793,-1.77853 c 0,0 0.20633,0.0182 0.30242,0.0513 0.25244,0.0869 0.20782,0.44762 0.20782,0.44762 0,0 -0.42233,0.85482 -0.67477,1.29226 -0.19675,0.49925 -0.30539,0.52058 -0.12123,0.9066 l 10e-4,0.002 c 0,-3.4e-4 0.0554,0.0551 0.0553,0.0546 l 0.4303,0.55887 c 0.0422,0.0478 0.0763,0.0852 0.11591,0.12989 0.59034,-0.98181 1.10897,-1.92204 1.50742,-3.42249 0.1854,0.18047 0.55579,0.33818 0.35571,1.01849 -0.15921,0.32047 -0.35383,0.91754 -0.52891,1.23497 0.576,-0.0814 0.5869,-0.1431 1.28827,-0.0959 0.15093,0.0101 1.08445,0.136 1.1304,0.23248 -0.0139,0.49955 -0.17288,0.3973 -0.35438,0.42098 -0.5384,-0.0537 -0.89832,-0.16546 -1.43813,-0.0513 -0.38824,0.0509 -0.81248,0.13201 -1.01717,0.39101 -0.0756,0.0736 -0.19036,0.28583 -0.20849,0.30108 -0.10069,0.16605 -0.14202,0.21288 -0.27444,0.42432 0.59921,0.63684 1.06678,0.95924 1.94372,1.09642 l 0.61084,-0.0353 c 0.50503,10e-5 0.73805,-0.0153 0.73805,-0.0153 l 0.17984,0.31108 -0.18117,0.31241 -1.5394,0.0733 c 0.73485,1.31161 2.06292,2.19786 1.60201,3.00151 -2.82221,-3.05613 -3.59803,-3.95926 -4.51027,-5.08645 v -6.8e-4 c -1.18988,-1.33804 -1.66672,-2.38073 -2.17419,-3.25264 z m -20.29916,0.005 c 0.0122,-2e-5 0.0244,-5e-5 0.0366,0 1.89701,0.0577 3.82844,0.64552 5.35156,1.79184 1.87386,1.95118 2.33587,4.77205 2.52124,7.36789 0.15211,3.23276 -0.55283,6.58668 -2.33939,9.31361 -0.97407,1.47972 -2.62251,2.4709 -4.40434,2.52657 -1.68782,0.10313 -3.49936,-0.21717 -4.7474,-1.45146 -1.54757,-1.4318 -2.43393,-3.42256 -3.05347,-5.40285 -0.34687,-3.45499 -0.72747,-7.1656 0.80134,-10.40804 0.77772,-1.45781 2.08688,-2.63873 3.57503,-3.33456 0.72012,-0.27513 1.48941,-0.40181 2.25879,-0.403 z m -4.5742,0.0226 c -0.67376,0.0131 -1.3479,0.0262 -2.02166,0.0393 -0.005,0.69526 -0.01,1.39034 -0.0147,2.0856 0.46008,-0.72702 2.01175,-1.79462 2.03631,-2.12491 z m -12.858,0.0133 c 0.78468,0.36919 1.90794,1.80668 2.23881,1.81849 -0.0293,-0.59717 -0.0586,-1.19468 -0.0879,-1.79185 -0.71706,-0.009 -1.43382,-0.0177 -2.15088,-0.0266 z m 22.94629,0.0533 c -0.0976,-9e-5 -0.19475,0.002 -0.29242,0.006 1.00547,0.46066 2.2932,2.89014 2.67645,3.10276 -0.006,-0.85103 -0.072,-2.14582 -0.0779,-2.99685 -0.68382,0.026 -1.6229,-0.11131 -2.30609,-0.11191 z m -32.74883,6.9e-4 c -0.96963,0.009 -1.93928,0.0176 -2.90892,0.0266 0.0751,0.83565 -0.0949,2.61668 0.11258,2.91692 0.63767,-1.23316 1.72598,-2.10345 2.79634,-2.94356 z m 21.19509,0.16319 c 0.003,0 0.006,3.5e-4 0.009,6.9e-4 0.089,0.008 0.16834,0.14428 0.24446,0.18118 0.13341,0.0647 0.22182,0.18851 0.22182,0.18851 l -0.11657,0.37103 c 0,0 -0.73351,0.17327 -0.65346,-0.15454 0.11236,-0.4601 0.20824,-0.58687 0.29509,-0.58685 z m -9.9211,0.0673 c 0.081,-0.006 0.30229,0.14608 0.37302,0.25713 0.13765,0.21615 -0.26807,0.4706 -0.47161,0.29575 -0.09,-0.0773 -0.0916,-0.13248 -0.0113,-0.36369 0.0355,-0.1022 0.0848,-0.18728 0.10991,-0.18919 z m -12.51296,0.10526 c 0.0776,7e-5 0.1286,0.005 0.13322,0.0173 0.005,0.0131 -0.0782,0.0888 -0.18451,0.16786 -0.10633,0.0791 -0.34013,0.29907 -0.51957,0.48893 -0.17944,0.18985 -0.3574,0.35702 -0.39567,0.37169 -0.15913,0.061 -0.47256,-0.37458 -0.38968,-0.54155 0.0155,-0.0313 0.0817,-0.11741 0.14721,-0.19184 0.0655,-0.0744 0.19797,-0.16745 0.29376,-0.2065 0.12313,-0.0502 0.64001,-0.10332 0.89925,-0.10524 0.005,-5e-5 0.0108,-6.8e-4 0.016,-6.8e-4 z m 35.52719,0.0953 c 0.002,-3e-5 0.005,-1e-5 0.007,0 0.16277,10e-4 0.35615,0.10798 0.50824,0.73073 0.0801,0.3278 -0.66745,-0.0226 -0.66745,-0.0226 l -0.18651,-0.65345 c 0,0 0.0483,-0.0295 0.12523,-0.028 0.0529,10e-4 0.12107,-0.022 0.19717,-0.026 0.005,-3.1e-4 0.0107,-6.8e-4 0.016,-6.8e-4 z m 18.92098,0.45096 c 0.17198,-0.008 0.35892,0.16819 0.50225,0.48559 0,0 0.004,0.23504 -0.0693,0.32306 -0.0173,0.0202 -0.0376,0.0328 -0.0639,0.0326 -0.14029,-3.4e-4 -0.60018,-0.008 -0.72874,-0.1199 -0.12854,-0.11183 -0.0116,-0.47062 0.19517,-0.65079 0.0517,-0.0451 0.10721,-0.068 0.16454,-0.0706 z m -25.57945,1.65863 c -2.09163,-10e-4 -4.02152,1.54515 -4.50626,3.58103 -0.7043,2.39828 -0.41613,4.96752 0.0713,7.37987 0.44262,1.73745 1.07318,3.82006 2.92024,4.51491 1.3963,0.90499 3.25042,0.13259 4.20719,-1.06711 2.20578,-2.46741 2.61536,-6.01266 2.29609,-9.18437 -0.12696,-1.39478 -0.40102,-2.87201 -1.53539,-3.81818 -0.90333,-0.87441 -2.13916,-1.41694 -3.40385,-1.40615 -0.0165,-2.1e-4 -0.0328,0 -0.0493,0 z m 26.83974,0.93789 0.0206,0.0413 -0.16852,0.40833 c 0,0 -0.44665,0.15303 -0.54422,0.13321 -0.0976,-0.0198 -0.46951,0.0477 -0.55487,0.026 -0.0854,-0.0217 -0.51909,-0.0986 -0.72141,-0.11923 -0.39049,-0.034 -0.59759,0.1272 -0.7527,0.0926 0.007,-0.13119 0.18289,-0.3643 0.33905,-0.43497 0.15616,-0.0707 0.58801,-0.10258 0.71806,-0.10258 0.13006,0 1.06211,0.15711 1.2563,0.10191 0.19419,-0.0552 0.40767,-0.14654 0.40767,-0.14654 z m -49.28246,0.12322 c 1.3654,-6.8e-4 2.64016,0.70561 3.46913,1.78118 0.59332,0.44888 1.0727,1.97366 1.74388,0.84332 0.57743,-0.40267 1.6137,-1.76776 2.04297,-1.47478 0.0482,3.64611 0.12034,7.29169 0.10125,10.93826 0.0578,1.88575 -0.0389,3.77094 -0.0433,5.65663 -0.61275,-0.01 -1.22574,-0.0191 -1.83848,-0.0286 0.46394,-1.24949 1.4856,-2.32839 1.41416,-3.73823 -2.09772,0.12091 -4.29895,0.18314 -6.22483,-0.80134 -2.09123,-1.0451 -4.25314,-2.54838 -5.04515,-4.85397 -0.70721,-2.01289 -0.9843,-4.42848 0.2731,-6.28878 0.82829,-1.34255 2.3564,-2.04931 3.90743,-2.02898 0.045,-0.002 0.0897,-0.003 0.13456,-0.004 0.0217,-3.4e-4 0.0436,-6.8e-4 0.0653,-6.8e-4 z m 22.00042,0.0313 c 0.007,-3e-5 0.0127,-2e-5 0.0193,0 0.0686,2.1e-4 0.13827,0.003 0.2085,0.008 2.10503,-0.0626 4.29761,1.5452 4.36105,3.75287 0.27351,2.76542 0.22129,5.81896 -1.44014,8.17856 -0.7872,1.08039 -2.06709,1.99272 -3.46446,1.65129 -1.3664,-0.36684 -2.00141,-1.87755 -2.5772,-3.04148 -0.92883,-2.39823 -0.99249,-5.08504 -0.45629,-7.5797 0.48063,-1.50079 1.67137,-2.96321 3.34923,-2.96954 z m 0.27577,0.35703 c -1.71931,0.0114 -2.951,1.56924 -3.28527,3.1374 -0.84171,3.17337 -0.26491,6.98599 2.24147,9.27631 0.80114,0.86444 2.19196,0.49938 2.8916,-0.30841 0.93111,-0.59878 1.32842,-1.63919 1.64131,-2.6538 0.81269,-2.59678 0.88036,-5.56704 -0.39301,-8.02868 -0.88523,-0.72337 -1.90861,-1.41686 -3.0961,-1.42282 z m -22.502,0.0193 c -2.07443,6.9e-4 -4.07239,1.61617 -4.24381,3.73823 -0.25295,2.35747 0.43459,4.93701 2.24347,6.55324 2.35428,2.2844 5.89839,3.30722 9.10378,2.62249 0.0891,-3.8353 -0.0994,-7.67133 0.0353,-11.50645 -0.6508,-0.0694 -1.74186,1.84255 -2.51457,1.6313 -1.07217,-1.26376 -2.14341,-2.85526 -3.95472,-3.0035 -0.18917,-0.0233 -0.37964,-0.034 -0.5702,-0.034 -0.0329,-6.8e-4 -0.0663,-10e-4 -0.0993,-10e-4 z m 22.62323,0.36503 c 0.062,0.008 0.11428,0.0303 0.17386,0.0873 0.13251,0.12668 0.18047,0.0483 -0.022,0.37036 -0.22123,0.35197 -0.30277,0.37445 -0.53022,0.14455 -0.22237,-0.22479 -0.18076,-0.35597 -0.10192,-0.49894 0.0421,-0.0763 0.10543,-0.0975 0.24846,-0.10123 0.098,-0.003 0.16978,-0.01 0.23181,-0.002 z m -21.7353,0.18651 c 0.0277,-3.3e-4 0.0563,0.003 0.0859,0.01 0.22928,0.0563 0.23967,-0.0713 0.43031,0.26179 0.18712,0.32694 0.15654,0.42867 -0.16187,0.53755 -0.33163,0.1134 -0.63791,0.11037 -0.71074,-0.0226 -0.14931,-0.27272 0.0302,-0.78185 0.35637,-0.7867 z m -2.18552,0.044 -0.37569,0.81398 c 0,0 -0.76657,0.9242 -0.81599,1.09909 -0.13821,0.48918 -0.8599,1.21025 -0.60683,2.44997 0.45864,0.10207 1.74348,-0.84696 2.40068,-1.38351 0,0 0.0277,0.28086 0.10125,0.35104 0.10593,0.24195 -0.0606,0.42765 -0.0606,0.42765 0,0 -0.71511,0.49384 -1.12706,0.78601 -0.35878,0.24583 -1.21234,0.56405 -1.16237,0.9319 -0.14854,0.43085 0.13524,0.71454 0.33772,0.93722 0.88443,-0.60373 2.2242,-1.3537 3.1747,-2.41934 0.0161,-0.0496 0.0328,-0.10084 0.0506,-0.1532 0.33851,-0.99594 0.32104,-1.1995 -0.1632,-1.92839 -0.15291,-0.23018 -0.69384,-0.54355 -0.57019,-0.63081 0.3019,-0.21309 0.24095,-0.29025 0.44097,-0.29909 0.13026,-0.006 0.2404,0.10534 0.5169,0.51757 0.19337,0.2883 0.38373,0.55881 0.42298,0.6015 0.0539,0.0586 0.14762,-0.0779 0.38102,-0.55754 0.23457,-0.48205 0.32312,-0.61685 0.42165,-0.62415 0.003,-2e-4 0.007,0 0.01,0 0.003,5e-5 0.007,3.5e-4 0.01,6.9e-4 0.32206,0.0282 0.55795,0.1029 -0.14055,0.99184 -0.24081,0.49503 -0.50685,1.14801 -0.59085,1.45147 l -0.15255,0.55154 0.2598,0.0353 c 0.14307,0.0191 0.45873,-0.0293 0.70075,-0.10724 l 0.43964,-0.14188 0.33238,-0.68276 c 0.35723,-0.73415 0.50561,-0.86162 0.74206,-0.6368 0.11181,0.1063 0.0945,0.17296 -0.20183,0.782 -0.17819,0.36622 -0.304,0.67565 -0.27978,0.68744 0.0243,0.0118 0.34976,0.0306 0.72341,0.0413 0.71935,0.0207 0.81069,0.0645 1.00317,0.48292 l 0.1199,0.26113 -0.3617,-0.0659 c -0.19909,-0.0362 -1.0087,-0.21252 -1.79052,-0.14588 -0.76296,-0.0695 -1.82219,-0.0557 -2.22948,0.41433 -0.27841,0.22479 -0.70428,0.68583 -0.99584,0.90125 0.55738,0.16641 0.59331,0.11471 1.21099,0.45029 0.13293,0.0722 0.92908,0.57658 0.93057,0.68344 -0.22109,0.44818 -0.32345,0.28868 -0.49826,0.23446 -0.46687,-0.27345 -0.74673,-0.52528 -1.28494,-0.64679 -0.37402,-0.11579 -1.20999,-0.054 -1.50409,0.0959 -0.0995,0.0353 -0.29222,0.17955 -0.31506,0.18585 -0.1608,0.10886 -0.18111,0.20883 -0.38969,0.34571 1.00906,1.77358 1.02761,1.21275 2.11093,1.4941 0.41954,0.0251 0.70626,0.0738 1.0025,0.11256 0.24755,-0.0767 0.52208,-0.25602 0.87194,-0.56819 0.19008,-0.1696 0.39667,-0.33601 0.45962,-0.36969 0.10816,-0.0579 0.11247,-0.0504 0.0773,0.13721 -0.0222,0.11861 0.26454,0.19245 0.30108,0.23647 0.0477,0.0575 -0.27624,0.14867 -0.49092,0.28777 -0.25642,0.16615 -0.52859,0.44126 -0.48227,0.4876 0.0523,0.0524 0.96779,0.34943 1.07977,0.35037 0.33775,0.003 1.04458,-0.48176 1.9797,-1.35688 0.84653,-0.79221 1.05466,-0.91561 1.73189,-1.02181 0.3232,-0.0507 0.33483,-0.0381 0.22115,0.23048 -0.0978,0.23098 -0.22191,0.33095 -0.56286,0.45428 -0.28594,0.10343 -0.80467,0.56587 -0.80467,0.7174 0,0.0774 0.457,0.41035 0.74205,0.54022 l 0.14854,0.0673 -0.19517,0.1612 c -0.11118,0.0916 -0.19584,0.21167 -0.19584,0.27844 0,0.11262 -0.006,0.11179 -0.15254,-0.028 -0.19941,-0.19026 -0.71867,-0.42946 -0.92989,-0.4283 -0.24657,10e-4 -0.53951,0.15875 -0.85996,0.46162 -0.1567,0.14811 -0.2774,0.27578 -0.26777,0.28376 0.01,0.008 0.18539,0.0937 0.39034,0.19051 0.20495,0.0968 0.44929,0.2403 0.54289,0.31907 0.1423,0.11973 0.15849,0.15723 0.0999,0.2278 -0.0385,0.0464 -0.0699,0.22574 -0.0699,0.39834 v 0.31375 l -0.58419,-0.39435 c -0.82341,-0.55551 -1.9845,-1.08958 -2.9662,-1.37418 -0.43971,-0.0183 -0.80067,0.0337 -1.54339,-0.13724 0.55978,1.13881 2.18439,0.7007 1.25696,1.61334 -1.16454,-0.5511 -2.12274,-1.34093 -2.86029,-2.24681 -0.7079,-0.86946 -1.21205,-1.84549 -1.50076,-2.81965 -0.21946,-0.74051 -0.25868,-1.98584 0.0773,-3.08211 0.40198,-1.31173 1.42337,-2.52462 2.2588,-2.62583 z m 25.12183,0.4483 c -0.12041,0.31805 -0.40302,0.90483 -0.4383,1.47876 0.0605,0.39139 0.0877,0.49889 0.28243,0.808 0.13774,-0.35991 0.30039,-0.66594 0.48893,-0.9159 0.1351,-0.0206 0.44958,-0.0343 0.54155,-0.0566 0.13011,0.10629 0.0635,0.12709 0.11124,0.24313 -0.27078,0.33548 -0.57033,0.96089 -0.77469,1.41615 0.0624,0.40137 0.36398,0.69537 0.57619,1.02982 -0.11633,0.31253 -0.47646,0.68016 -0.6095,0.89793 -0.0751,-0.42595 -0.30939,-1.11238 -0.61416,-1.85313 -0.19985,-0.48576 -0.42305,-0.92423 -0.76203,-1.28095 -0.65413,-0.68834 -1.17169,-1.05074 -1.63465,-1.21566 0.0901,-0.15789 0.45812,-0.47158 0.64947,-0.3637 0.34062,0.19208 1.18706,0.54908 1.18235,0.79602 -6.8e-4,0.0308 0.15706,-0.34571 0.28177,-0.69343 0.0677,-0.18884 0.35894,-0.29647 0.7194,-0.29043 z m 0.88193,0.28775 c 0.053,3.5e-4 0.0739,0.0262 0.062,0.0559 -0.0147,0.0366 -0.0424,0.0337 0.016,0.1079 0.0476,0.0605 0.0747,0.11667 0.0753,0.15722 10e-4,0.0986 -0.0667,0.333 -0.10125,0.34771 -0.0171,0.007 -0.0616,-0.009 -0.0986,-0.036 -0.037,-0.0271 -0.12497,-0.0825 -0.19584,-0.12323 -0.18513,-0.10633 -0.21218,-0.14094 -0.18251,-0.22915 0.0345,-0.1026 0.17961,-0.21611 0.34037,-0.26578 0.0286,-0.009 0.0529,-0.0129 0.0733,-0.014 0.004,-2.1e-4 0.008,-6.8e-4 0.0113,-6.8e-4 z m -26.05505,0.64414 c 0.0695,10e-4 0.16241,0.0584 0.35238,0.18252 0.34095,0.22275 0.36871,0.32485 0.14854,0.53955 -0.22932,0.22359 -0.49404,0.32444 -0.63548,0.2418 -0.22362,-0.13067 -0.243,-0.63781 -0.0326,-0.85662 0.0676,-0.0704 0.10963,-0.10805 0.16719,-0.10725 z m 21.80391,0.13455 0.37436,0.0147 c 0.14626,0.44958 0.79606,1.31723 1.02315,1.74856 0.36975,-0.014 0.88534,0.0426 1.26428,0.0846 0.13038,0.23218 0.2903,0.70657 0.38635,0.95053 -0.70234,-0.48409 -2.95105,-0.36833 -3.96738,-0.4243 0.10367,-0.24826 0.14684,-0.61051 0.34705,-0.79201 0.33819,0.0852 0.89141,0.18379 1.22099,0.1512 -0.19801,-0.31666 -0.728,-1.07688 -0.85063,-1.39285 0.0407,-0.16191 0.12698,-0.24102 0.20183,-0.34037 z m -14.27615,0.88859 c 0.0358,10e-6 0.0624,0.005 0.0753,0.0166 0.0757,0.0662 0.0861,0.60156 0.014,0.7194 -0.17017,0.27801 -1.09181,0.54947 -1.18036,0.34771 -0.0486,-0.11071 0.18147,-0.6049 0.401,-0.83197 0.12767,-0.13205 0.51739,-0.25182 0.6901,-0.25179 z m 19.61639,0.19252 c 0.14101,0.20888 0.22742,0.70507 0.28443,0.96653 -0.17533,0.26911 -0.74844,1.08385 -0.88393,1.43413 l 0.92323,-0.0353 0.0786,0.35904 c -0.0339,0.16293 -0.0651,0.24411 -0.13455,0.33838 -0.43935,-0.0238 -0.76765,-0.0614 -1.207,0.0586 -0.27905,0.29706 -0.42443,0.68195 -0.6055,0.99516 -0.24658,0.14369 -0.74933,-6.8e-4 -0.99917,-0.022 l 0.0153,-0.0386 c 0.66849,-0.40972 1.95993,-2.85949 2.52857,-4.05597 z m 15.67033,0.64612 c 4.53576,4.25954 7.66116,8.14195 8.25849,13.8645 l -1.84648,0.028 h -6.39668 z m 0.24846,0.67012 0.0586,12.94859 7.65365,0.028 c -0.5277,-5.21284 -3.61008,-9.13086 -7.5071,-12.78873 z m -20.13463,0.21715 c 0.18699,3.3e-4 0.47064,0.0128 0.90525,0.0466 -0.66353,0.37682 -0.87408,0.61696 -1.10441,0.94722 -0.62723,0.89933 -1.24532,1.94332 -1.63265,2.75372 -0.21988,-0.28834 -0.30036,-0.62064 -0.2751,-0.94521 0.15802,-0.27557 0.54126,-0.73638 0.71074,-1.07977 -0.35615,-0.0444 -0.56258,-0.0315 -0.86728,0 -0.0681,-0.11237 -0.0834,-0.18876 -0.0833,-0.32174 l 0.0453,-0.49825 c 0.44603,-0.0335 0.81134,0.0938 1.23697,0.12989 0.2683,-0.30346 0.40705,-0.62171 0.60217,-0.96386 0.13602,0.007 -0.0155,-0.0696 0.46228,-0.0686 z m 20.59425,0.77336 c 0.16916,0.003 0.47612,0.1572 0.70809,1.10709 0.08,0.32779 -0.67012,-0.23248 -0.67012,-0.23248 l -0.16319,-0.84663 c 0,0 0.0483,-0.0295 0.12522,-0.028 z m -40.35719,0.058 c 0.0192,6.8e-4 0.032,0.0268 0.032,0.0879 0,0.0277 0.0563,0.003 0.0859,0.01 0.22928,0.0563 0.22259,-0.0609 0.43031,0.26178 0.2494,0.38747 0.056,0.25348 -0.26245,0.36236 -0.33163,0.1134 -0.3848,0.1117 -0.45762,-0.0213 -0.12131,-0.22157 0.0888,-0.70292 0.17186,-0.70076 z m 4.02,0.33573 c 0.0948,-10e-4 0.14844,0.0388 0.19917,0.11657 0.0984,0.15085 0.20871,0.61682 0.16986,0.71806 -0.0154,0.04 -0.13652,0.14126 -0.26911,0.22515 -0.26825,0.16971 -0.54491,0.19376 -0.87461,0.0759 -0.32066,-0.11459 -0.58054,-0.29704 -0.85129,-0.59818 -0.33656,-0.37433 -0.035,-0.55393 0.28909,-0.38634 0.27051,0.13988 0.32172,0.2097 0.80067,0.014 0.2689,-0.10989 0.42879,-0.16379 0.53622,-0.1652 z m 15.675,0.0593 c 0.10627,1.13268 1.21757,3.09694 2.02765,4.22583 -0.22772,0.0897 -0.72045,0.0381 -0.98252,-0.19917 -0.15203,-0.32171 -0.62803,-0.82177 -0.8333,-1.13772 -0.25809,0.31091 -0.38084,0.56135 -0.5249,0.8846 -0.13852,0.18799 -0.34924,0.45433 -0.4876,0.70807 -0.0931,-0.11675 -0.34058,-0.35485 -0.36503,-0.4716 0.21259,-0.424 0.76737,-1.34333 0.96254,-1.86179 10e-4,-0.39522 -0.15681,-0.96295 -0.34971,-1.31225 0.0942,-0.25937 0.27281,-0.47951 0.43164,-0.69742 z m 20.6895,0.90125 c 1.14619,0.50718 0.13871,0.75555 1.21432,1.76187 0.22177,-0.41517 0.42982,-0.67658 0.54423,-1.20167 l 0.43097,0.18785 0.17985,0.31174 c 0,0 -0.22862,0.38151 -0.49159,0.83731 l 0.0113,-0.014 c -0.36085,0.62547 -0.21906,0.8794 0.0346,1.31292 l -0.008,-0.008 0.28975,0.50159 c 0.7684,-1.29212 0.46038,-1.19101 1.38685,-1.19368 -0.63293,0.84513 -1.1559,1.8613 -1.71524,3.01084 l 0.012,-0.0153 c -0.36084,0.62547 -0.21905,0.87873 0.0346,1.31225 l -0.0207,-0.03 0.34238,0.59351 0.36037,0.62416 0.28975,-0.50159 -0.008,0.008 c 0.25368,-0.43352 0.39549,-0.68678 0.0346,-1.31225 l 0.008,0.009 c -0.18932,-0.32812 -0.2437,-0.35547 -0.25977,-0.34571 l 0.17252,-0.29909 h 0.36103 l 0.44297,0.63814 c 0.76847,-1.29223 0.46036,-1.19167 1.38685,-1.19434 -0.9108,1.29225 -1.30624,1.86884 -1.71258,3.0075 l 0.0106,-0.012 c -0.36085,0.62546 -0.21972,0.8794 0.034,1.31291 l -0.0153,-0.0207 0.33706,0.58284 c 0.68588,-0.96595 1.20151,-1.83168 1.80317,-3.12208 0.46092,0.80364 0.37383,0.56218 -0.36103,1.87379 0.73527,0.83621 -0.0649,0.16005 -0.75471,1.31291 -0.12638,0.19699 -0.23121,0.35149 -0.37835,0.53155 l -0.54755,-0.0533 -0.1612,-0.0453 -0.29376,-0.44962 0.007,0.0166 c -0.24641,-0.43746 -0.32303,-0.59304 -1.11973,-0.68611 l 0.0166,-0.003 c -0.50404,-10e-5 -0.70541,-6.8e-4 -0.70541,-6.8e-4 0,0 -0.16743,-0.19721 -0.17985,-0.31107 -0.0124,-0.11388 -0.20652,-0.23508 0.0986,-0.3124 0.30512,-0.0773 1.1362,0.006 1.1344,0 -0.61529,-1.56352 -1.29669,-2.46097 -2.28544,-4.06597 0.92187,0.0203 0.3483,-0.011 1.20366,0.94322 l 0.29843,-0.51691 -0.0166,0.0233 c 0.2537,-0.43352 0.39549,-0.68679 0.0346,-1.31224 l 0.0113,0.014 c -0.78099,-1.88021 -1.64036,-1.8341 -1.49143,-3.70159 z m -20.17726,0.018 0.22182,0.1139 c 0.73376,0.60393 1.66263,0.65723 2.66912,0.6861 0.28504,0.008 0.91244,0.0719 1.17636,0.0586 -0.0987,0.26045 -0.0768,0.42537 -0.26112,0.63614 -0.30914,0.0779 -1.07356,-0.0901 -1.40417,-0.12523 l 0.74738,1.35288 c -10e-4,0.13158 -0.13222,0.35146 -0.22515,0.4323 l -0.26045,0.1279 c -0.1797,-0.46412 -0.66135,-1.49658 -0.99517,-1.93706 -0.3618,-0.004 -0.74984,-0.15185 -1.18169,-0.27111 -0.1597,-0.24229 -0.41749,-0.81488 -0.48693,-1.07444 z m -18.69849,0.16986 c 0.0236,7e-5 0.0393,0.0277 0.0393,0.0939 0.38225,0.44448 0.36415,0.0105 0.51624,0.27244 0.18712,0.32694 0.15654,0.42868 -0.16186,0.53755 -0.33163,0.1134 -0.51069,-0.1261 -0.58352,-0.25912 -0.11898,-0.2173 0.0973,-0.64507 0.18984,-0.64479 z m -3.33723,0.56753 c 0.0246,5e-5 0.0482,0.001 0.0713,0.003 0.20776,0.0207 0.67692,0.29482 0.66012,0.38568 -0.017,0.092 -0.45336,0.48609 -0.58618,0.50091 -0.31339,0.035 -0.99363,-0.47532 -0.87128,-0.65345 0.0619,-0.0901 0.43617,-0.23712 0.72606,-0.23647 z m 42.52472,2.45396 c 0.003,-10e-5 0.005,0 0.008,0 0.16975,-0.002 0.35383,0.17382 0.49493,0.48626 0,0 0.004,0.23504 -0.0693,0.32307 -0.0173,0.0202 -0.0383,0.0327 -0.0646,0.0326 -0.14028,-3.4e-4 -0.59951,-0.008 -0.72807,-0.1199 -0.12854,-0.11183 -0.0122,-0.47129 0.19451,-0.65146 0.0517,-0.0451 0.1072,-0.068 0.16453,-0.0706 z m -35.92952,0.50891 c 0.0338,0.003 0.0448,0.25759 0.046,0.94721 l 0.002,1.04114 -0.64746,0.20916 -1.29826,-0.10125 0.73606,-0.46095 c 0.30872,-0.19353 0.39627,-0.49073 0.56886,-0.77735 0.10571,-0.17554 0.26439,-0.41152 0.35238,-0.52423 0.088,-0.11271 0.18812,-0.25468 0.22248,-0.31574 0.006,-0.0107 0.011,-0.0166 0.016,-0.0173 6.9e-4,-8e-5 0.001,-6.8e-4 0.002,-6.8e-4 z m 18.14428,0.10791 c 0.028,4e-5 0.0443,0.003 0.0453,0.007 0.004,0.0147 -0.0568,0.15097 -0.13522,0.30309 -0.17914,0.34746 -0.45102,0.68331 -0.58085,0.7174 -0.0878,0.0231 -0.11169,-0.021 -0.20516,-0.37703 l 0.0253,-0.36369 0.37902,-0.17253 c 0.19789,-0.0903 0.38749,-0.11403 0.47161,-0.11389 z m -22.69251,0.034 c 0.0738,-10e-4 0.11389,0.0754 0.22115,0.30441 0.15313,0.32693 0.15533,0.54923 -0.10525,0.65812 -0.27139,0.11339 -0.5409,-0.0163 -0.60882,-0.14322 -0.1074,-0.20066 0.10721,-0.66043 0.36236,-0.77668 0.0566,-0.0258 0.097,-0.0421 0.13056,-0.0426 z m 18.87035,0.02 c 0.015,-0.001 0.22106,0.11965 0.29842,0.16853 0.29304,0.18519 0.38861,0.18225 0.78068,0.31707 0.38876,0.13368 0.43431,0.16087 0.43231,0.25712 -0.002,0.10333 -0.10004,0.34153 -0.18118,0.44097 -0.056,0.0686 -0.12315,0.0845 -0.28843,0.0679 -0.26496,-0.0265 -0.54113,-0.1849 -0.6861,-0.49625 -0.0929,-0.19953 -0.4197,-0.74889 -0.3557,-0.75538 z m -28.80877,0.0113 c 1.08731,1.39053 1.96134,2.95433 3.17004,4.24381 1.11406,1.00568 2.46478,1.7081 3.83681,2.29343 -2.29172,-0.0447 -4.5839,-0.0892 -6.87563,-0.13389 -0.0475,-2.14071 -0.029,-4.29153 -0.13122,-6.40335 z m 53.96057,0.024 c 0,0 0.25674,0.072 0.32839,0.18052 0.0163,0.0253 0.0233,0.0514 0.0147,0.0799 -0.046,0.15218 -0.20383,0.64881 -0.36703,0.75205 -0.16319,0.10321 -0.51504,-0.13999 -0.64347,-0.42299 -0.12843,-0.28301 0.14587,-0.51958 0.66745,-0.58951 z m -53.88464,0.37769 0.048,1.55471 z m 31.07689,0.52956 c 0.004,-2.1e-4 0.007,0 0.0106,0 0.0542,0.0204 0.13893,0.13888 0.17386,0.18185 0.141,0.52034 -0.21739,0.52082 -0.51158,0.36036 -0.18513,-0.10632 -0.11693,-0.17357 -0.0873,-0.26178 0.0345,-0.1026 0.18028,-0.21611 0.34105,-0.26578 0.0286,-0.009 0.0529,-0.0135 0.0733,-0.0147 z m 6.93159,0.25179 c 0,0 0.0245,1.53084 0.0539,1.95904 0.055,0.0643 0.024,3.20134 0.024,3.20134 l -4.47495,0.17919 c 1.35382,-0.0356 4.58145,-4.46149 4.39702,-5.33957 z m -14.83037,0.34704 c 0.54877,1.06951 1.03779,2.20497 1.86645,3.11809 0.30649,0.58355 1.88155,1.62994 2.38602,1.76653 -0.2062,0.004 -3.20672,0.0585 -4.26646,0.0313 -0.10673,-1.63012 0.002,-3.28083 0.014,-4.91592 z m 14.63586,0.70675 c 0.11451,0.39219 -2.48147,4.01267 -3.16272,4.04731 l 3.13674,-0.1592 c 0.0494,-0.94319 0.0268,-3.78794 0.026,-3.88811 z m -14.37607,0.37436 c 0.0137,1.16776 0.0276,2.33534 0.0413,3.50309 0.72607,-0.0303 2.50726,-0.014 2.50726,-0.014 -1.16089,-1.02609 -1.97288,-2.15091 -2.54855,-3.48911 z m 27.19343,0.56153 c 0.16976,-0.002 0.35385,0.17382 0.49493,0.48627 0,0 0.004,0.23503 -0.0693,0.32306 -0.0173,0.0202 -0.0383,0.0334 -0.0646,0.0333 -0.14028,-3.4e-4 -0.59951,-0.009 -0.72807,-0.12057 -0.12855,-0.11184 -0.0122,-0.47062 0.19451,-0.65079 0.0517,-0.0451 0.1072,-0.068 0.16453,-0.0706 0.003,-1e-4 0.005,-6.9e-4 0.008,-6.9e-4 z m -35.52119,0.83664 c -0.37223,0.76203 -0.74484,1.52407 -1.11708,2.28611 0.32687,-0.1081 1.05757,0.18326 1.07178,-0.23448 z m 22.02373,0.46162 c 0.005,-3e-5 0.01,-2e-5 0.0147,0 0.0843,3.1e-4 0.15489,0.007 0.19317,0.009 0.0768,0.003 0.12523,0.028 0.12523,0.028 l -0.16319,0.84731 c 0.14851,0.18079 -0.54323,0.58922 -0.67012,0.23247 -0.33814,-0.95067 0.12298,-1.1024 0.45429,-1.11574 0.0155,-6.9e-4 0.0311,-6.9e-4 0.046,-6.9e-4 z m -12.96591,0.0247 c 0.13681,-0.002 0.29284,0.1113 0.43031,0.62482 0.0407,0.15216 -0.10038,0.30782 -0.0526,0.53954 0.0797,0.3866 -0.69282,-0.14446 -0.66944,-0.23247 l -0.11524,-0.82065 c 0,0 0.0484,-0.0295 0.12523,-0.028 0.0637,10e-4 0.15961,-0.075 0.26844,-0.0826 0.004,-3.2e-4 0.009,-6.8e-4 0.0133,-6.8e-4 z m 32.49171,0.62615 c 0.10574,0.47406 0.16214,0.93759 0.14987,1.38551 -0.55729,-0.008 -1.44048,0.11912 -1.51541,-0.12856 0,0 0.59536,-0.3008 1.10709,-0.64546 z m -6.75706,0.36236 c 0,0 0.21031,0.20391 0.20649,0.2811 -0.007,0.13509 0.15577,0.52619 0.55421,0.5189 0.14369,-0.003 0.54221,0.21916 0.54221,0.21916 l -1.33422,-0.0253 z m -34.03577,6.77505 c -0.0922,0.033 -0.20394,0.0984 -0.33572,0.20383 -0.15152,0.11861 -0.22448,0.21734 -0.22448,0.29642 0,0.079 0.10563,0.11857 0.32307,0.11857 0.112,0 0.2442,-0.006 0.40233,-0.026 l 0.026,0.0193 0.007,0.0266 c -0.25698,0.1779 -0.40884,0.31623 -0.45496,0.42165 0.0197,0.0395 0.0661,0.0919 0.13855,0.15121 0.0395,0.0329 0.0593,0.11253 0.0593,0.23114 l -0.026,2.18086 c -0.13836,0.32285 -0.27722,0.55299 -0.409,0.68476 0,0.0659 0.0592,0.0993 0.17119,0.10591 l -0.0393,-0.007 c 0.1845,-0.0131 0.44131,-0.0131 0.77736,0 0.36237,0.0131 0.62647,0.0193 0.77802,0.0193 0.112,0 0.40823,-0.0127 0.52024,-0.0127 0.14493,-0.15154 0.3227,-0.48125 0.53355,-0.99517 0.20425,-0.49417 0.3227,-0.86316 0.34905,-1.09376 0.0329,-0.32249 0.0532,-0.57285 0.0533,-0.75071 v -6.8e-4 c -7e-5,-0.25675 -0.0397,-0.51345 -0.12523,-0.78335 -0.10543,-0.32944 -0.24373,-0.54049 -0.42166,-0.62615 -0.11858,-0.0593 -0.35628,-0.0859 -0.71207,-0.0859 h -1.11308 c -0.0395,0 -0.0858,-0.0128 -0.13855,-0.0326 -0.0725,-0.0264 -0.11878,-0.0394 -0.13855,-0.046 z m 13.56675,0.0526 c -0.23062,0 -0.39541,0.0327 -0.49426,0.0986 -0.0988,0.0593 -0.19774,0.17781 -0.30974,0.35571 -0.11201,0.17789 -0.16453,0.3163 -0.16453,0.42831 v 3.59102 l -0.0133,0.007 v 0.804 c 0,0.0527 0.0266,0.0786 0.0859,0.0786 0.0659,0 0.17072,-0.0723 0.30908,-0.22381 0.12519,-0.13836 0.21086,-0.25065 0.24379,-0.32973 0,-0.40849 0.007,-1.02754 0.0266,-1.85113 -0.007,-0.52052 -0.007,-1.03418 -0.007,-1.55471 0.007,-0.62592 0.0528,-0.94255 0.13189,-0.94255 0.25697,0 0.41497,0.0593 0.47428,0.17785 0.1054,-0.0329 0.21777,-0.11188 0.33638,-0.23047 0.11859,-0.11861 0.17794,-0.23091 0.18452,-0.32973 h -6.8e-4 c -0.0791,-0.0527 -0.34873,-0.0786 -0.80334,-0.0786 z m 15.49648,0.0393 c -0.1252,0 -0.3031,0.007 -0.54688,0.0133 -0.23721,0.007 -0.41503,0.007 -0.54022,0.007 l -0.0526,0.0193 c -0.27674,0.37555 -0.47425,0.68558 -0.59284,0.94254 -0.14496,0.31627 -0.23748,0.67185 -0.27044,1.07378 l -0.0127,0.0193 v 0.56687 l 0.0786,0.38235 c 0.0725,0.34921 0.23715,0.66508 0.48093,0.93522 0.27675,0.29651 0.58655,0.44829 0.92258,0.44829 0.0593,0 0.14503,-0.0265 0.25045,-0.0726 0.11201,-0.0461 0.18436,-0.0857 0.23047,-0.13189 0.11861,-0.033 0.25686,-0.13792 0.41499,-0.32241 0.0725,-0.0791 0.17811,-0.22411 0.32307,-0.43496 0.0264,-0.16474 0.0394,-0.24389 0.046,-0.25047 -0.007,-0.18449 1e-4,-0.43504 0.007,-0.74471 0.007,-0.37556 0.0133,-0.62551 0.0133,-0.75071 l -0.0926,-0.2771 c -0.0461,-0.0988 -0.11832,-0.15121 -0.21715,-0.15121 -0.0725,0 -0.191,-6.8e-4 -0.35571,0.006 -0.0988,0.007 -0.21732,0.007 -0.3557,0 -0.14494,-0.007 -0.26414,-0.0127 -0.35637,-0.026 l -0.11191,-0.0793 c -0.0857,0.0131 -0.17767,0.046 -0.2831,0.10523 l -0.25712,0.15855 h -0.007 l -0.0526,-0.0593 c 0,-0.11861 0.0463,-0.28341 0.13855,-0.49425 0.10543,-0.23721 0.20415,-0.35572 0.29642,-0.35572 0.16471,0 0.48125,0.0129 0.93588,0.0393 l 0.0393,0.0333 0.0459,0.11192 0.04,0.0193 c 0.2372,-0.15155 0.40815,-0.27005 0.51358,-0.35571 0.059,-0.0852 0.0856,-0.13753 0.0859,-0.17052 v -6.8e-4 c -6.8e-4,-0.1379 -0.25153,-0.20384 -0.75804,-0.20384 z m -9.9291,0.0133 c -0.0659,0 -0.22391,0.15128 -0.47427,0.46095 0,0.23059 0.19061,0.4349 0.56619,0.61282 l 0.0333,0.0593 c -0.27013,0.26355 -0.42186,0.42845 -0.44163,0.50091 l 0.02,0.0326 0.11857,0.10592 v 1.79851 c 0,0.4744 0.29632,0.75138 0.7707,0.75138 0.40194,0 0.75145,-0.1913 1.06112,-0.56686 0.29648,-0.3624 0.44096,-0.74453 0.44096,-1.15306 0,-0.73793 -0.3092,-1.32426 -0.92856,-1.75253 -0.0922,-0.0659 -0.26388,-0.16473 -0.51424,-0.30308 -0.22401,-0.1252 -0.39491,-0.23091 -0.50691,-0.32974 -0.0461,-0.0857 -0.0991,-0.15786 -0.14522,-0.21716 z m -35.8829,0.0719 c -0.37556,0 -0.7243,0.13883 -1.04713,0.40899 -0.33605,0.2833 -0.50758,0.60563 -0.50758,0.98119 0,0.12519 0.013,0.23082 0.046,0.32307 0.0461,0.13177 0.10554,0.21078 0.19118,0.23713 l 0.32972,-0.25046 c 0.16473,-0.13177 0.24321,-0.23045 0.2498,-0.28976 -0.11862,-0.11859 -0.17786,-0.25004 -0.17786,-0.395 0,-0.29649 0.27036,-0.52757 0.56686,-0.52757 0.26356,0 0.44125,0.10556 0.5269,0.31641 0.0593,0.13836 0.0859,0.35578 0.0859,0.66545 0,0.1647 -0.13827,0.44123 -0.41499,0.82998 -0.21085,0.29648 -0.41521,0.5472 -0.61948,0.75803 l -0.0133,0.0326 c -0.2372,0.21743 -0.41502,0.38898 -0.54022,0.50759 -0.28332,0.27671 -0.42831,0.44777 -0.42831,0.52023 0,0.0923 0.2507,0.13857 0.75804,0.13857 0.17789,0 0.44146,-1.2e-4 0.79068,-0.007 0.35579,-0.007 0.61944,-0.0127 0.79733,-0.0127 0.0659,-0.0329 0.16473,-0.11876 0.30309,-0.25711 0.13838,-0.13837 0.21048,-0.23032 0.21048,-0.27644 0,-0.0725 -0.11852,-0.11258 -0.3557,-0.11258 -0.0988,0 -0.23722,0.007 -0.42831,0.02 -0.19108,0.007 -0.32949,0.0133 -0.42831,0.0133 -0.35581,0 -0.53365,-0.0401 -0.54022,-0.11257 0.61276,-0.58641 0.97515,-0.94872 1.09375,-1.08709 0.41511,-0.49415 0.62616,-0.94223 0.62616,-1.33756 0,-0.15152 -0.0728,-0.39537 -0.21116,-0.73139 -0.21743,-0.23721 -0.50747,-0.35571 -0.86328,-0.35571 z m 6.08828,0 c -0.37556,0 -0.72494,0.13883 -1.04779,0.40899 -0.33602,0.2833 -0.50692,0.60563 -0.50692,0.98119 0,0.12519 0.013,0.23082 0.046,0.32307 0.0461,0.13177 0.10551,0.21078 0.19117,0.23713 l 0.32906,-0.25046 c 0.16473,-0.13177 0.24388,-0.23045 0.25046,-0.28976 -0.11859,-0.11859 -0.17785,-0.25004 -0.17785,-0.395 0,-0.29649 0.27038,-0.52757 0.56686,-0.52757 0.26355,0 0.44124,0.10556 0.5269,0.31641 0.0593,0.13836 0.0859,0.35578 0.0859,0.66545 0,0.1647 -0.13891,0.44123 -0.41565,0.82998 -0.21083,0.29648 -0.41458,0.5472 -0.61882,0.75803 l -0.0133,0.0326 c -0.23717,0.21743 -0.41505,0.38898 -0.54022,0.50759 -0.28332,0.27671 -0.42831,0.44777 -0.42831,0.52023 0,0.0923 0.25004,0.13857 0.75738,0.13857 0.17789,0 0.44146,-1.2e-4 0.79067,-0.007 0.35579,-0.007 0.61945,-0.0127 0.79734,-0.0127 0.0659,-0.0329 0.16473,-0.11876 0.30308,-0.25711 0.13836,-0.13837 0.21116,-0.23032 0.21116,-0.27644 0,-0.0725 -0.1185,-0.11258 -0.3557,-0.11258 -0.0988,0 -0.23726,0.007 -0.42832,0.02 -0.19108,0.007 -0.32946,0.0133 -0.42831,0.0133 -0.35579,0 -0.53363,-0.0401 -0.54021,-0.11257 0.61276,-0.58641 0.97517,-0.94872 1.09375,-1.08709 0.4151,-0.49415 0.62548,-0.94223 0.62548,-1.33756 0,-0.15152 -0.0721,-0.39537 -0.21049,-0.73139 -0.21743,-0.23721 -0.50749,-0.35571 -0.86328,-0.35571 z m 2.16754,6.8e-4 -0.0659,0.026 c -0.25697,0.43487 -0.38834,0.67187 -0.38834,0.71141 0,0.0856 0.0462,0.12582 0.13189,0.11923 l 0.30308,-0.21115 c 0.0527,-0.0264 0.17128,-0.0393 0.36237,-0.0393 h 0.50691 c 0.11859,0 0.21114,0.0129 0.27044,0.0393 -0.0857,0.16473 -0.21791,0.34934 -0.40899,0.5602 l -0.46761,0.50691 c 0,0.0593 0.0859,0.11855 0.26378,0.17785 0.22401,0.0725 0.34259,0.11205 0.36236,0.12523 0.2833,0.19106 0.42832,0.48106 0.42832,0.85662 0,0.29649 -0.0593,0.57368 -0.18452,0.83065 l -0.0926,0.0193 h -0.98784 l -0.0466,-0.026 -0.0853,-0.10592 -0.0393,-0.026 c -0.13838,0.0593 -0.2705,0.13158 -0.39567,0.22381 -0.17131,0.1252 -0.25712,0.23755 -0.25712,0.33639 0,0.0725 0.0789,0.11191 0.23048,0.11191 0.112,0 0.27682,-0.007 0.49425,-0.0133 0.22402,-0.007 0.38891,-0.0133 0.50092,-0.0133 0.16471,0 0.30978,0.007 0.43497,0.0266 0.19106,-0.007 0.28984,-0.0134 0.29643,-0.02 0.0329,-0.0131 0.0656,-0.0458 0.0919,-0.0919 0.2899,-0.50074 0.44859,-0.78399 0.47494,-0.84329 0.13177,-0.28332 0.19717,-0.54023 0.19717,-0.78401 v -6.8e-4 c 0,-0.30309 -0.0654,-0.54017 -0.19717,-0.71807 -0.0725,-0.0988 -0.19793,-0.19765 -0.38901,-0.30308 -0.19108,-0.10542 -0.2899,-0.17082 -0.30309,-0.19717 0.033,-0.112 0.19762,-0.323 0.48094,-0.61948 0.27016,-0.28332 0.40233,-0.48084 0.40233,-0.59284 -0.0395,-0.0461 -0.23771,-0.0659 -0.59351,-0.0659 z m 31.05957,0.0659 -0.0726,0.026 c -0.0527,0.0725 -0.0921,0.13845 -0.11191,0.19118 -0.112,0.27013 -0.32934,0.57986 -0.65879,0.91591 -0.0527,0.0461 -0.0922,0.0788 -0.11856,0.0986 -0.0461,0.0395 -0.0726,0.0858 -0.0726,0.13855 0,0.0857 0.0728,0.1319 0.21115,0.1319 0.17791,0 0.26312,0.0265 0.26312,0.0726 v 0.34238 c -0.007,0.21085 -0.006,0.37559 -0.006,0.4876 v 0.83664 c 0,0.24378 0.0197,0.42163 0.0593,0.54022 0.0593,0.17789 0.17782,0.3167 0.35571,0.40233 0.0461,0 0.11205,-0.0266 0.18451,-0.0859 0.0988,-0.0725 0.15809,-0.11872 0.17785,-0.13189 0.0857,-0.0791 0.15105,-0.13826 0.19717,-0.17119 l 0.0333,-0.0593 -0.0333,-0.0659 c -0.0857,-0.033 -0.14436,-0.0527 -0.19051,-0.0593 -0.0922,-0.0725 -0.13855,-0.33621 -0.13855,-0.80401 0,-0.0791 1e-4,-0.19757 0.007,-0.3557 0.007,-0.16473 0.007,-0.28329 0.007,-0.36236 0,-0.26356 0.006,-0.45486 0.026,-0.56687 0.10542,-0.0329 0.19131,-0.0527 0.26377,-0.0593 0.16471,-0.1845 0.24381,-0.31588 0.24381,-0.38835 0,-0.0527 -0.0462,-0.0793 -0.1319,-0.0793 -0.19107,0 -0.30284,-0.0265 -0.34238,-0.0726 -0.0329,-0.0461 -0.0526,-0.17078 -0.0526,-0.37503 0,-0.0725 0.0193,-0.23727 0.0193,-0.30974 0,-0.13838 -0.0395,-0.21736 -0.11857,-0.23713 z m -36.46908,0.0193 c -0.34921,0 -0.6651,0.19751 -0.93523,0.59285 -0.21743,0.31625 -0.37596,0.67919 -0.46162,1.08109 l -0.0593,0.26979 v 0.46761 c 0,0.38872 0.13204,0.79065 0.38901,1.21233 0.2899,0.47437 0.61282,0.71206 0.97519,0.71206 0.0725,0 0.18431,-0.053 0.34904,-0.15186 0.13836,-0.0857 0.25066,-0.15801 0.32973,-0.23047 0.1252,-0.11201 0.25652,-0.30945 0.38169,-0.58618 0.12519,-0.27672 0.19796,-0.50088 0.21115,-0.67878 l 0.0133,-0.02 c 0.0329,-0.31626 0.0526,-0.50705 0.0526,-0.57952 0,-0.0461 -0.0135,-0.17816 -0.0333,-0.38901 -0.0197,-0.21083 -0.0394,-0.32261 -0.046,-0.34238 -0.1054,-0.33605 -0.24368,-0.6195 -0.41499,-0.86329 -0.2306,-0.32944 -0.48122,-0.49425 -0.75138,-0.49425 z m 28.87871,0 -0.0719,0.0333 c -0.0593,0.0791 -0.0988,0.13839 -0.11856,0.18451 -0.11201,0.27672 -0.32994,0.57989 -0.6528,0.91591 -0.079,0.0725 -0.19117,0.15148 -0.19117,0.23714 0,0.0857 0.0728,0.13122 0.21116,0.13122 0.17789,0 0.26378,0.0265 0.26378,0.0726 l -0.007,0.83065 c -0.007,0.37556 -0.007,0.65216 -0.007,0.83663 0,0.2372 0.0197,0.42171 0.0659,0.54688 0.0593,0.17789 0.17773,0.30935 0.34905,0.39501 0.0527,0 0.1187,-0.026 0.19117,-0.0853 0.0989,-0.0725 0.15811,-0.11866 0.17785,-0.12524 0.0857,-0.0856 0.15172,-0.14492 0.19784,-0.17785 l 0.0326,-0.0593 -0.0326,-0.0659 c -0.0856,-0.0329 -0.14506,-0.046 -0.19118,-0.0526 -0.0922,-0.0725 -0.13855,-0.34287 -0.13855,-0.81067 0,-0.0791 1.1e-4,-0.19755 0.007,-0.3557 0.007,-0.1647 0.007,-0.28328 0.007,-0.36236 0,-0.25697 0.006,-0.44817 0.026,-0.5602 0.0988,-0.0329 0.19131,-0.0593 0.26378,-0.0659 0.16473,-0.18447 0.2438,-0.31587 0.2438,-0.38834 0,-0.0461 -0.0462,-0.0726 -0.13189,-0.0726 -0.19107,0 -0.30285,-0.0265 -0.34238,-0.0726 -0.0395,-0.0527 -0.0593,-0.17802 -0.0593,-0.37568 0,-0.0725 0.026,-0.24394 0.026,-0.31641 0,-0.13838 -0.0395,-0.21737 -0.11857,-0.23714 z m -14.30414,0.32974 h 0.21715 c 0.42829,0 0.7252,0.16419 0.88993,0.50025 0.13178,0.27012 0.19717,0.62639 0.19717,1.07444 v 0.007 h 6.8e-4 c 0,0.12519 -0.007,0.27631 -0.0266,0.44763 -0.0197,0.23062 -0.0523,0.36895 -0.0853,0.42165 -0.007,0.11203 -0.0399,0.26387 -0.0993,0.45495 -0.0659,0.21744 -0.13194,0.35556 -0.19783,0.40167 -0.63911,0 -1.04717,0.007 -1.23165,0.0133 l -0.04,-0.0593 c 0.13838,-0.21083 0.21795,-0.32262 0.23114,-0.3424 0.0725,-0.13837 0.11191,-0.27049 0.11191,-0.39566 0,0.0197 -0.007,-0.0661 -0.02,-0.26379 -0.007,-0.12519 3.1e-4,-0.21025 0.02,-0.24979 -0.033,-0.11858 -0.0466,-0.39572 -0.0466,-0.82398 0,-0.1252 0.007,-0.31592 0.0133,-0.57286 0.0131,-0.25697 0.02,-0.45499 0.02,-0.58018 z m -14.84435,0.35569 c 0.29648,0 0.54047,0.24376 0.74471,0.72474 0.16471,0.38875 0.2438,0.76453 0.2438,1.11373 0,0.69182 -0.20431,1.04048 -0.61282,1.04048 -0.0659,0 -0.19113,-0.0389 -0.36903,-0.12456 -0.42168,-0.4546 -0.63281,-0.99539 -0.63281,-1.62132 0,-0.26355 0.0396,-0.50056 0.12523,-0.71141 0.11201,-0.28333 0.2769,-0.42166 0.50092,-0.42166 z m 57.15791,0.12523 c -0.0922,0 -0.21748,0.0722 -0.36902,0.21715 -0.15154,0.13837 -0.24364,0.25687 -0.28976,0.35572 0.0989,0.0725 0.15792,0.1187 0.16453,0.13188 0.0197,0.0329 0.0326,0.0992 0.0326,0.21117 v 0.98117 c 0,0.13179 -0.006,0.32988 -0.0193,0.58687 -0.007,0.25695 -0.0133,0.45439 -0.0133,0.58618 0,0.19105 0.0729,0.28309 0.22448,0.28309 0.0857,0 0.20364,-0.0592 0.36836,-0.17787 0.16471,-0.12516 0.25054,-0.22402 0.25713,-0.30307 l -0.0193,-0.0326 -0.11856,-0.046 c -0.0329,-0.0527 -0.0466,-0.36261 -0.0466,-0.92923 0,-0.77089 0.0197,-1.20594 0.066,-1.29159 0.19767,-0.007 0.31676,-0.0127 0.34972,-0.0127 0.37555,0 0.55953,0.0653 0.55953,0.19051 v 2.39868 c 0,0.15154 0.0593,0.22381 0.17785,0.22381 0.0725,0 0.19777,-0.0655 0.3757,-0.20384 0.17789,-0.13835 0.26386,-0.23726 0.27043,-0.30973 h -6.9e-4 l -0.0393,-0.0526 c -0.0723,0 -0.11861,-0.0664 -0.1319,-0.19118 0.0195,-0.68218 0.0266,-1.25368 0.0266,-1.7199 0,-0.3097 -0.0197,-0.51394 -0.0593,-0.60618 -0.0725,-0.16472 -0.23058,-0.2438 -0.48094,-0.2438 -0.0725,0 -0.18484,0.007 -0.33638,0.0133 -0.14495,0.007 -0.24993,0.007 -0.32242,0.007 -0.0725,0 -0.13867,0.0197 -0.21115,0.0593 -0.0856,0.0462 -0.15158,0.0787 -0.18451,0.0853 l -0.0459,-0.0326 c -0.0197,-0.0527 -0.0531,-0.0991 -0.0926,-0.14521 z m -12.07065,0.046 c -0.21743,0.12519 -0.38907,0.38203 -0.51424,0.77735 -0.10543,0.32945 -0.15787,0.64621 -0.15787,0.95588 0,0.32284 0.0988,0.65848 0.29642,0.99451 0.22402,0.38875 0.48751,0.58017 0.78402,0.58017 0.11201,0 0.3226,-0.11236 0.64547,-0.33638 0.32285,-0.22401 0.48759,-0.38203 0.48759,-0.47427 0,-0.0659 -0.0327,-0.0992 -0.0986,-0.0926 -0.26356,0.15814 -0.46099,0.23779 -0.58618,0.23779 -0.0988,0 -0.21786,-0.0197 -0.34305,-0.0593 -0.15813,-0.0461 -0.23714,-0.11212 -0.23714,-0.19118 0,-0.0197 0.22408,-0.33631 0.67211,-0.93589 0.45464,-0.59957 0.67877,-0.98159 0.67877,-1.13972 0,-0.15812 -0.13163,-0.30974 -0.28976,-0.30974 z m -24.33248,0.007 c -0.11201,0.0197 -0.25079,0.086 -0.40233,0.21116 -0.17132,0.13178 -0.25646,0.2502 -0.25646,0.34905 0.0923,0.0527 0.13174,0.18423 0.11857,0.40166 l 0.0127,0.0333 c 0,0.0725 -0.006,0.28976 -0.026,0.65212 -0.0131,0.27015 -0.02,0.48741 -0.02,0.65214 0,0.15155 0.007,0.25712 0.0133,0.31641 -0.0197,0.0725 -0.0266,0.16496 -0.0266,0.26377 0,0.28333 0.0796,0.42166 0.23114,0.42166 0.0725,0 0.20379,-0.066 0.38169,-0.19118 0.17789,-0.13178 0.27044,-0.23054 0.27044,-0.29642 l -0.0266,-0.04 -0.13189,-0.0786 -0.026,-0.0533 c 0.0131,-0.71816 0.0193,-1.40326 0.0193,-2.04897 0.0395,-0.0461 0.12534,-0.0726 0.25712,-0.0726 0.19108,0 0.32328,0.0334 0.40233,0.10592 0.0131,0.0593 0.0193,0.13144 0.0193,0.21049 l 0.046,0.0266 h 0.0133 c 0.0593,-0.0329 0.15124,-0.11883 0.27644,-0.26379 0.12517,-0.15152 0.20487,-0.25718 0.2378,-0.32306 0,-0.17132 -0.14507,-0.25646 -0.43497,-0.25646 h -0.50692 c -0.0725,0 -0.1588,0.0524 -0.24446,0.15122 h -0.026 c -0.0593,-0.0593 -0.0988,-0.10501 -0.11856,-0.14456 z m 2.27944,0 c -0.0856,0.007 -0.22377,0.0727 -0.40166,0.2045 -0.1779,0.13178 -0.27052,0.23733 -0.27711,0.3164 l 0.0266,0.0526 c 0.0856,0.0395 0.13189,0.12475 0.13189,0.26311 0,0.0593 -0.02,0.22446 -0.02,0.28377 l 0.0133,1.95038 c 0,0.15155 0.0592,0.23047 0.17119,0.23047 0.0857,0 0.20432,-0.0661 0.36903,-0.20449 0.16473,-0.13836 0.25045,-0.24399 0.25045,-0.32307 l -0.0133,-0.026 -0.0919,-0.0659 -0.0133,-0.0986 v -0.98851 c 0,-0.63253 0.007,-0.98183 0.0266,-1.04114 0.0461,-0.0197 0.17128,-0.0266 0.36236,-0.0266 0.24379,0 0.36903,0.0925 0.36903,0.27044 0,0.5996 -0.007,0.90945 -0.0133,0.92923 0.0197,0.12516 0.026,0.27624 0.026,0.44097 0,0.0725 -0.006,0.1781 -0.0193,0.32306 -0.007,0.14494 -0.0133,0.25059 -0.0133,0.32307 0,0.33603 0.053,0.50025 0.15188,0.50025 0.0988,0 0.23701,-0.0653 0.40833,-0.19051 0.17131,-0.13178 0.2572,-0.24416 0.26377,-0.3364 l -0.11857,-0.0726 c -0.0197,-0.0857 -0.0333,-0.19743 -0.0333,-0.34239 v -1.78585 c 0,-0.0461 0.11858,-0.0659 0.36236,-0.0593 0.1252,0.007 0.19113,0.007 0.18452,0.007 0.16473,0 0.28374,0.0197 0.34305,0.0659 0.0791,0.0593 0.11857,0.16486 0.11857,0.31641 0,0.0856 -0.0133,0.32269 -0.0133,0.40833 0,0.19766 -0.007,0.49452 -0.0133,0.88326 -0.007,0.38873 -0.007,0.68494 -0.007,0.8826 0,0.10543 0.0664,0.23048 0.17186,0.23048 0.0922,0 0.22364,-0.066 0.38834,-0.19118 0.16474,-0.12519 0.25046,-0.23674 0.25046,-0.32239 h -6.8e-4 c -0.007,-0.007 -0.0326,-0.0333 -0.0853,-0.0926 -0.0395,-0.0395 -0.0593,-0.0655 -0.0593,-0.0853 l 0.026,-2.26012 c -0.0725,-0.15155 -0.14519,-0.25014 -0.20449,-0.2831 -0.0593,-0.033 -0.17115,-0.0533 -0.34905,-0.0533 l -1.00783,-0.006 c -0.45463,-0.007 -0.79048,-0.007 -1.01449,-0.007 -0.0461,0 -0.11897,0.0326 -0.21782,0.0919 -0.13178,0.0857 -0.20404,0.13195 -0.22382,0.13854 l -0.0333,-0.0393 c -0.0329,-0.0725 -0.059,-0.13233 -0.0919,-0.17187 z m 24.64889,0 c -0.11203,0.0197 -0.25012,0.086 -0.40166,0.21116 -0.17132,0.13178 -0.25713,0.2502 -0.25713,0.34905 0.0922,0.0527 0.13176,0.18423 0.11857,0.40166 l 0.0133,0.0333 c 0,0.0725 -0.007,0.28976 -0.0266,0.65212 -0.0131,0.27015 -0.02,0.48741 -0.02,0.65214 0,0.15155 0.007,0.25712 0.0133,0.31641 -0.0197,0.0725 -0.026,0.16496 -0.026,0.26377 0,0.28333 0.0789,0.42166 0.23048,0.42166 0.0725,0 0.2038,-0.066 0.38169,-0.19118 0.17789,-0.13178 0.27043,-0.23054 0.27043,-0.29642 l -0.0266,-0.04 -0.13124,-0.0786 -0.0266,-0.0533 c 0.0131,-0.71816 0.02,-1.40326 0.02,-2.04897 0.0395,-0.0461 0.12467,-0.0726 0.25645,-0.0726 0.19109,0 0.32327,0.0334 0.40234,0.10592 0.0131,0.0593 0.0193,0.13144 0.0193,0.21049 l 0.0466,0.0266 h 0.0127 c 0.0593,-0.0329 0.1519,-0.11883 0.27709,-0.26379 0.12517,-0.15152 0.20418,-0.25718 0.23714,-0.32306 0,-0.17132 -0.14507,-0.25646 -0.43497,-0.25646 h -0.50692 c -0.0725,0 -0.15816,0.0524 -0.24379,0.15122 h -0.0266 c -0.0593,-0.0593 -0.0988,-0.10501 -0.11857,-0.14456 z m 2.27945,0 c -0.0857,0.007 -0.22378,0.0727 -0.40167,0.2045 -0.17789,0.13178 -0.26986,0.23733 -0.27644,0.3164 l 0.026,0.0526 c 0.0857,0.0395 0.13189,0.12475 0.13189,0.26311 0,0.0593 -0.02,0.22446 -0.02,0.28377 l 0.0133,1.95038 c 0,0.15155 0.0592,0.23047 0.17119,0.23047 0.0857,0 0.20431,-0.0661 0.36903,-0.20449 0.16473,-0.13836 0.25046,-0.24399 0.25046,-0.32307 l -0.0133,-0.026 -0.0919,-0.0659 -0.0133,-0.0986 v -0.98851 c 0,-0.63253 0.007,-0.98183 0.0266,-1.04114 0.0461,-0.0197 0.17129,-0.0266 0.36238,-0.0266 0.24378,0 0.36902,0.0925 0.36902,0.27044 0,0.5996 -0.007,0.90945 -0.0133,0.92923 0.0197,0.12516 0.0266,0.27624 0.0266,0.44097 0,0.0725 -0.007,0.1781 -0.02,0.32306 -0.007,0.14494 -0.0133,0.25059 -0.0133,0.32307 0,0.33603 0.053,0.50025 0.15188,0.50025 0.0988,0 0.23701,-0.0653 0.40833,-0.19051 0.17131,-0.13178 0.25719,-0.24416 0.26377,-0.3364 l -0.11857,-0.0726 c -0.0196,-0.0857 -0.0333,-0.19743 -0.0333,-0.34239 v -1.78585 c 0,-0.0461 0.11859,-0.0659 0.36238,-0.0593 0.12519,0.007 0.19112,0.007 0.18451,0.007 0.16473,0 0.28373,0.0197 0.34305,0.0659 0.0791,0.0593 0.11857,0.16486 0.11857,0.31641 0,0.0856 -0.0133,0.32269 -0.0133,0.40833 0,0.19766 -0.007,0.49452 -0.0133,0.88326 -0.007,0.38873 -0.006,0.68494 -0.006,0.8826 0,0.10543 0.0658,0.23048 0.1712,0.23048 0.0922,0 0.22363,-0.066 0.38834,-0.19118 0.16474,-0.12519 0.25046,-0.23674 0.25046,-0.32239 h -6.9e-4 c -0.007,-0.007 -0.0326,-0.0333 -0.0853,-0.0926 -0.0395,-0.0395 -0.0593,-0.0655 -0.0593,-0.0853 l 0.026,-2.26012 c -0.0725,-0.15155 -0.14452,-0.25014 -0.20383,-0.2831 -0.0593,-0.033 -0.17182,-0.0533 -0.34971,-0.0533 l -1.00783,-0.006 c -0.45464,-0.007 -0.79048,-0.007 -1.01449,-0.007 -0.0461,0 -0.11898,0.0326 -0.21783,0.0919 -0.13176,0.0857 -0.20404,0.13195 -0.22381,0.13854 l -0.0326,-0.0393 c -0.0329,-0.0725 -0.0596,-0.13233 -0.0926,-0.17187 z m 10.17355,0 c -0.0922,0 -0.21143,0.0592 -0.35637,0.17119 -0.14496,0.11201 -0.23019,0.21743 -0.26311,0.30309 0.0593,0.0593 0.11167,0.0988 0.1512,0.11856 l 0.0333,0.046 -0.0266,1.13372 c -0.007,0.44145 3.1e-4,0.81681 0.02,1.13307 0.15813,0.31627 0.28959,0.395 0.63881,0.395 0.30967,0 0.6263,-0.11179 0.94254,-0.34239 l 0.046,0.0333 c -0.007,0.16474 1.1e-4,0.28323 0.007,0.35573 l -0.02,0.026 c 0,0.19767 -0.007,0.31004 -0.0133,0.3364 -0.033,0.0857 -0.12497,0.13189 -0.2831,0.13189 h -0.63215 c -0.12519,0 -0.2047,-0.0266 -0.22448,-0.0859 l -0.0593,-0.0266 c -0.112,0.0197 -0.24346,0.0791 -0.39501,0.19118 -0.1647,0.12517 -0.25045,0.23754 -0.25045,0.33639 0,0.0659 0.0592,0.0986 0.17119,0.0986 h 1.51541 c 0.13836,-0.0725 0.29621,-0.20445 0.46095,-0.38234 0.16471,-0.17789 0.27694,-0.3359 0.32307,-0.47427 0.0329,-0.14494 0.0527,-0.25657 0.0593,-0.32907 0,-0.30967 0.007,-0.76475 0.0133,-1.37751 0.0131,-0.61277 0.0193,-1.07386 0.0193,-1.38353 h 6.9e-4 c 0,-0.26355 -0.0592,-0.395 -0.17786,-0.395 -0.18448,0 -0.40855,0.15802 -0.6721,0.47427 l 0.0193,0.0326 0.12523,0.0593 c 0.0197,0.0527 0.0333,0.1255 0.0333,0.21115 v 0.74473 c 0,0.10542 -1.1e-4,0.26349 -0.007,0.48092 -0.007,0.21087 -0.007,0.36885 -0.007,0.47428 0,0.0856 -0.0858,0.15793 -0.25713,0.22381 -0.15154,0.0593 -0.27619,0.0926 -0.37502,0.0926 -0.23061,0 -0.35586,-0.11243 -0.36902,-0.34306 v -0.026 c -0.007,-0.0593 -0.007,-0.13165 -0.007,-0.23047 v -0.42232 c 0,-0.1647 0.0128,-0.30304 0.0393,-0.42164 -0.0329,-0.0725 -0.046,-0.18432 -0.046,-0.34905 0,-0.0593 0.007,-0.15119 0.0133,-0.26978 0.0131,-0.1252 0.0193,-0.21779 0.0193,-0.27711 0,-0.30967 -0.0721,-0.46761 -0.2105,-0.46761 z m -41.98384,0.0393 c -0.10542,0 -0.26409,0.0926 -0.47494,0.27711 -0.20424,0.17789 -0.30907,0.32288 -0.30907,0.42831 0,0.0725 0.0394,0.10525 0.11191,0.10525 l 0.026,-0.007 c 0.20428,-0.15816 0.36899,-0.25017 0.4876,-0.2831 0.0659,-0.0197 0.25719,-0.0266 0.56686,-0.0266 0.25697,0 0.38235,0.0592 0.38235,0.17118 0,0.11201 -0.21784,0.26381 -0.64613,0.44829 -0.48756,0.20426 -0.78376,0.37581 -0.8826,0.50759 -0.0725,0.0922 -0.11212,0.23731 -0.13189,0.43498 v 0.46761 c 0,0.49414 0.1512,0.73805 0.45429,0.73805 0.15813,0 0.35623,-0.0593 0.58684,-0.18452 0.25695,-0.13835 0.44103,-0.23726 0.5662,-0.30973 l 0.0266,0.0193 c -0.007,0.32287 0.046,0.48761 0.17119,0.48761 0.10543,0 0.30299,-0.1445 0.5995,-0.44098 l 0.0133,-0.0266 v -0.0859 l -0.11857,-0.0853 c -0.007,-0.11202 -0.0133,-0.2306 -0.0133,-0.36236 l 0.007,-0.94257 c 0.007,-0.41508 0.007,-0.73098 0.007,-0.93521 0,-0.26356 -0.18449,-0.39568 -0.54688,-0.39568 z m 12.76875,0 c -0.10543,0 -0.26343,0.0926 -0.47428,0.27711 -0.20424,0.17789 -0.30974,0.32288 -0.30974,0.42831 0,0.0725 0.0394,0.10525 0.11191,0.10525 l 0.0266,-0.007 c 0.20427,-0.15816 0.36901,-0.25017 0.4876,-0.2831 0.0659,-0.0197 0.25652,-0.0266 0.5662,-0.0266 0.25696,0 0.38234,0.0592 0.38234,0.17118 0,0.11201 -0.21718,0.26381 -0.64546,0.44829 -0.48757,0.20426 -0.78442,0.37581 -0.88327,0.50759 -0.0725,0.0922 -0.11146,0.23731 -0.13122,0.43498 v 0.46761 c 0,0.49414 0.15119,0.73805 0.45429,0.73805 0.15812,0 0.35558,-0.0593 0.58618,-0.18452 0.25696,-0.13835 0.44169,-0.23726 0.56686,-0.30973 l 0.0266,0.0193 c -0.007,0.32287 0.046,0.48761 0.17119,0.48761 0.10542,0 0.30299,-0.1445 0.5995,-0.44098 l 0.0133,-0.0266 v -0.0859 l -0.11857,-0.0853 c -0.007,-0.11202 -0.0133,-0.2306 -0.0133,-0.36236 l 0.007,-0.94257 c 0.007,-0.41508 0.007,-0.73098 0.007,-0.93521 0,-0.26356 -0.18451,-0.39568 -0.54689,-0.39568 z m 23.64105,0 c -0.10543,0 -0.26408,0.0926 -0.47494,0.27711 -0.20425,0.17789 -0.30908,0.32288 -0.30908,0.42831 0,0.0725 0.0394,0.10525 0.11191,0.10525 l 0.026,-0.007 c 0.20425,-0.15816 0.36898,-0.25017 0.4876,-0.2831 0.0659,-0.0197 0.25717,-0.0266 0.56686,-0.0266 0.25694,0 0.38235,0.0592 0.38235,0.17118 0,0.11201 -0.21787,0.26381 -0.64612,0.44829 -0.4876,0.20426 -0.78377,0.37581 -0.88261,0.50759 -0.0725,0.0922 -0.11213,0.23731 -0.13189,0.43498 v 0.46761 c 0,0.49414 0.15119,0.73805 0.45429,0.73805 0.15813,0 0.35622,-0.0593 0.58685,-0.18452 0.25694,-0.13835 0.441,-0.23726 0.5662,-0.30973 l 0.0266,0.0193 c -0.007,0.32287 0.046,0.48761 0.17119,0.48761 0.1054,0 0.30299,-0.1445 0.5995,-0.44098 l 0.0133,-0.0266 v -0.0859 l -0.11857,-0.0853 c -0.007,-0.11202 -0.0133,-0.2306 -0.0133,-0.36236 l 0.007,-0.94257 c 0.007,-0.41508 0.007,-0.73098 0.007,-0.93521 0,-0.26356 -0.18448,-0.39568 -0.54689,-0.39568 z m -20.68285,0.21783 0.15188,0.0393 c 0.27016,0.24379 0.44162,0.40181 0.50092,0.47428 0.11861,0.14496 0.22355,0.34935 0.3224,0.61949 -0.007,0.0131 -0.0127,0.0329 -0.0127,0.0593 0,0.0461 0.026,0.13174 0.026,0.17786 0,0.2899 -0.0524,0.54055 -0.15122,0.75137 -0.12519,0.27675 -0.32321,0.415 -0.58018,0.415 -0.24378,0 -0.36236,-0.30315 -0.36236,-0.91591 0,-0.0857 0.007,-0.21712 0.0133,-0.39501 0.007,-0.17789 0.0133,-0.31001 0.0133,-0.39567 -0.0197,-0.0461 -0.0266,-0.21085 -0.0266,-0.48759 v -0.21049 c 0.007,-0.0857 0.046,-0.13189 0.10524,-0.13189 z m 11.68232,0.21715 c 0.29649,0 0.44829,0.1185 0.44829,0.3557 0,0.0988 -0.053,0.21135 -0.15187,0.34971 -0.1252,0.17131 -0.19075,0.28294 -0.21049,0.32907 -0.0593,0.0593 -0.13231,0.15805 -0.23115,0.29642 -0.0922,0.13837 -0.1645,0.23044 -0.22381,0.28976 -0.0461,-0.0527 -0.0925,-0.12497 -0.14522,-0.22382 0.0131,-0.0659 3e-4,-0.19127 -0.0326,-0.38235 -0.0395,-0.21744 -0.0593,-0.35568 -0.0593,-0.41499 0,-0.31625 0.0524,-0.50705 0.15121,-0.57952 0.0725,-0.0131 0.22433,-0.02 0.45496,-0.02 z m -2.93223,0.18451 c 0.36897,-0.007 0.58,0.0594 0.62614,0.19118 v 0.23047 l 0.0133,0.04 c 0,0.0659 -0.007,0.16459 -0.0133,0.28976 -0.007,0.12519 -0.007,0.22387 -0.007,0.28976 0,0.0593 1e-4,0.0921 0.007,0.11191 h 0.007 c -0.007,0.0461 -0.007,0.10551 0,0.19117 0.007,0.0856 0.007,0.15172 0.007,0.19783 0,0.34921 -0.0988,0.52024 -0.30308,0.52024 -0.19106,0 -0.39539,-0.11163 -0.61282,-0.32906 -0.21741,-0.21743 -0.34289,-0.4284 -0.38902,-0.61949 -0.0725,-0.31628 -0.11191,-0.55387 -0.11191,-0.70541 0,-0.27016 0.0266,-0.40167 0.0859,-0.40167 z m -23.73898,0.5995 0.0393,0.0466 c -0.007,0.21741 -0.007,0.57305 -0.007,1.07377 -0.0395,0.0725 -0.1513,0.15132 -0.34238,0.22382 -0.17129,0.0725 -0.31018,0.10525 -0.409,0.10525 -0.15154,0 -0.22381,-0.10489 -0.22381,-0.31574 0,-0.29649 0.0197,-0.48787 0.0659,-0.57352 0.0461,-0.0857 0.18445,-0.20416 0.42165,-0.35571 0.21744,-0.13838 0.36933,-0.2045 0.45496,-0.2045 z m 12.76874,0 0.0393,0.0466 c -0.007,0.21741 -0.006,0.57305 -0.006,1.07377 -0.0395,0.0725 -0.15198,0.15132 -0.34305,0.22382 -0.17132,0.0725 -0.30952,0.10525 -0.40833,0.10525 -0.15155,0 -0.22382,-0.10489 -0.22382,-0.31574 0,-0.29649 0.0197,-0.48787 0.0659,-0.57352 0.0461,-0.0857 0.18444,-0.20416 0.42165,-0.35571 0.2174,-0.13838 0.36863,-0.2045 0.45429,-0.2045 z m 23.64105,0 0.0393,0.0466 c -0.007,0.21741 -0.007,0.57305 -0.007,1.07377 -0.0395,0.0725 -0.1513,0.15132 -0.34239,0.22382 -0.17128,0.0725 -0.31017,0.10525 -0.40899,0.10525 -0.15155,0 -0.22382,-0.10489 -0.22382,-0.31574 0,-0.29649 0.0197,-0.48787 0.0659,-0.57352 0.0461,-0.0857 0.18445,-0.20416 0.42164,-0.35571 0.21744,-0.13838 0.36931,-0.2045 0.45497,-0.2045 z m -44.62631,0.0333 c -0.0725,0 -0.19084,0.0524 -0.34238,0.1512 -0.15155,0.0988 -0.23114,0.18463 -0.23114,0.25712 0,0.0395 0.0532,0.0859 0.16519,0.14522 l 0.15787,0.18452 c 0.0527,0.0659 0.11189,0.0986 0.17119,0.0986 0.0922,0 0.23057,-0.0858 0.42165,-0.25712 0.0659,-0.0131 0.0992,-0.0786 0.0926,-0.20383 z m 27.4026,1.02115 c -0.0725,0 -0.15147,0.0396 -0.23713,0.12524 -0.11201,0.112 -0.1712,0.1978 -0.1712,0.25711 0,0.0461 0.0592,0.0851 0.1712,0.13123 0.11859,0.0461 0.17785,0.12528 0.17785,0.25046 0,0.0988 -0.0525,0.19773 -0.16453,0.30973 -0.11201,0.11201 -0.16453,0.17141 -0.16453,0.19117 0,0.0725 0.0395,0.11192 0.11857,0.11192 0.0856,0 0.2171,-0.0791 0.39501,-0.2438 0.23061,-0.21085 0.34904,-0.40828 0.34904,-0.58618 0,-0.0988 -0.0389,-0.20432 -0.12456,-0.30975 -0.12517,-0.15811 -0.23771,-0.23713 -0.34972,-0.23713 z m -41.35103,0.29643 h 0.0193 l 0.007,0.007 -0.026,0.0193 z m 6.08762,0 h 0.02 l 0.007,0.007 -0.0266,0.0193 z"
         clip-path="none" />
    </clipPath>
    <linearGradient
       inkscape:collect="always"
       xlink:href="#linearGradient2350"
       id="linearGradient2167"
       gradientUnits="userSpaceOnUse"
       x1="694.76178"
       y1="441.37671"
       x2="742.03485"
       y2="468.08847" />
    <linearGradient
       inkscape:collect="always"
       id="linearGradient2350">
      <stop
         style="stop-color:#940d82;stop-opacity:0.96533465;"
         offset="0"
         id="stop2344" />
      <stop
         style="stop-color:#e88938;stop-opacity:0.81843477;"
         offset="0.53164023"
         id="stop2362" />
      <stop
         style="stop-color:#ffffff;stop-opacity:0;"
         offset="1"
         id="stop2346" />
    </linearGradient>
    <linearGradient
       inkscape:collect="always"
       xlink:href="#linearGradient2342"
       id="linearGradient2333"
       gradientUnits="userSpaceOnUse"
       x1="717.10187"
       y1="502.33408"
       x2="787.96771"
       y2="487.46301"
       gradientTransform="translate(8.25e-6)" />
    <linearGradient
       inkscape:collect="always"
       id="linearGradient2342">
      <stop
         style="stop-color:#1c44c8;stop-opacity:0.84965968;"
         offset="0"
         id="stop2336" />
      <stop
         style="stop-color:#9736b8;stop-opacity:0.71570379;"
         offset="0.54486215"
         id="stop2360" />
      <stop
         style="stop-color:#ffffff;stop-opacity:0;"
         offset="1"
         id="stop2338" />
    </linearGradient>
    <linearGradient
       inkscape:collect="always"
       xlink:href="#linearGradient1362"
       id="linearGradient2167-9"
       gradientUnits="userSpaceOnUse"
       x1="764.10413"
       y1="439.6459"
       x2="734.00964"
       y2="470.02573"
       gradientTransform="translate(-9.2537529e-6)" />
    <linearGradient
       inkscape:collect="always"
       id="linearGradient1362">
      <stop
         style="stop-color:#37a823;stop-opacity:0.92752928;"
         offset="0.16938318"
         id="stop1358" />
      <stop
         style="stop-color:#e8df17;stop-opacity:1;"
         offset="0.76145643"
         id="stop2358" />
      <stop
         style="stop-color:#ffffff;stop-opacity:0;"
         offset="0.99999952"
         id="stop2193" />
    </linearGradient>
    <radialGradient
       inkscape:collect="always"
       xlink:href="#linearGradient2439"
       id="radialGradient2431"
       cx="731.33392"
       cy="460.29193"
       fx="731.33392"
       fy="460.29193"
       r="33.171143"
       gradientTransform="matrix(1.3842438,1.7014878,-0.79339441,0.6454647,82.382238,-1068.32)"
       gradientUnits="userSpaceOnUse" />
    <linearGradient
       inkscape:collect="always"
       id="linearGradient2439">
      <stop
         style="stop-color:#fa5023;stop-opacity:0.50608832;"
         offset="0.48292035"
         id="stop2435" />
      <stop
         style="stop-color:#ffffff;stop-opacity:0;"
         offset="0.99999952"
         id="stop2437" />
    </linearGradient>
  </defs>
  <g
     id="g1122"
     transform="matrix(0.56970943,0,0,0.56970943,-388.97647,-242.32595)"
     style="fill:#000000"
     inkscape:label="Logo" />
  <g
     inkscape:label="Layer 1"
     inkscape:groupmode="layer"
     id="layer1"
     transform="translate(-54.950698,40.586427)">
    <g
       id="g2165"
       style="fill:#000000"
       transform="matrix(5.9334031,0,0,5.9334031,-3722.3021,-2546.6218)"
       clip-path="url(#clipPath2185)">
      <rect
         style="fill:url(#linearGradient2167);fill-opacity:1;stroke-width:0.128901;stroke-linecap:round;stroke-linejoin:round"
         id="rect2163"
         width="66.342285"
         height="63.627876"
         x="694.76178"
         y="438.70621"
         transform="translate(-9.3826591e-6)"
         inkscape:label="upper left" />
      <rect
         style="fill:url(#linearGradient2333);fill-opacity:1;stroke-width:0.128901;stroke-linecap:round;stroke-linejoin:round"
         id="rect2163-1"
         width="66.342285"
         height="63.627876"
         x="694.76178"
         y="438.70621"
         inkscape:label="bottom" />
      <rect
         style="fill:url(#linearGradient2167-9);fill-opacity:1;stroke-width:0.128901;stroke-linecap:round;stroke-linejoin:round"
         id="rect2163-9"
         width="66.342285"
         height="63.627876"
         x="694.76178"
         y="438.70621"
         inkscape:label="upper right" />
      <rect
         style="fill:url(#radialGradient2431);fill-opacity:1;stroke-width:0.128901;stroke-linecap:round;stroke-linejoin:round"
         id="rect2429"
         width="66.342285"
         height="63.627876"
         x="694.76178"
         y="438.70621"
         inkscape:label="center" />
    </g>
  </g>
</svg>
