<?xml version="1.0" encoding="utf-8"?>
<!-- Generator: Adobe Illustrator 25.2.1, SVG Export Plug-In . SVG Version: 6.00 Build 0)  -->
<svg version="1.1" id="Layer_1" xmlns="http://www.w3.org/2000/svg" xmlns:xlink="http://www.w3.org/1999/xlink" x="0px" y="0px"
	 viewBox="0 0 5000 1308.34" style="enable-background:new 0 0 5000 1308.34;" xml:space="preserve">
<style type="text/css">
	.st0{fill:#1F1954;}
	.st1{fill:url(#SVGID_1_);}
	.st2{fill:url(#SVGID_2_);}
	.st3{fill:url(#SVGID_3_);}
</style>
<g>
	<g>
		<path class="st0" d="M2106.19,358.29c29.05,30.11,43.58,73.17,43.58,129.17s-14.53,99.06-43.58,129.17
			c-29.06,30.11-70.88,45.17-125.47,45.17h-147.92V313.12h147.92C2035.3,313.12,2077.13,328.18,2106.19,358.29z M2036.18,566.71
			c13.74-17.6,20.61-44.02,20.61-79.24c0-35.22-6.87-61.63-20.61-79.24c-13.73-17.61-35.22-26.42-64.45-26.42h-48.08v211.32h48.08
			C2000.96,593.12,2022.45,584.33,2036.18,566.71z"/>
		<path class="st0" d="M2454.54,555.61h-180.15c2.81,16.56,8.89,28.71,18.22,36.46c9.33,7.75,21.75,11.62,37.24,11.62
			c13.03,0,23.68-2.46,31.97-7.4c8.27-4.93,13.82-12.15,16.64-21.66l72.91,23.24c-7.4,22.55-21.75,39.71-43.06,51.51
			c-21.31,11.8-47.47,17.69-78.46,17.69c-46.14,0-81.45-11.96-105.93-35.92c-24.49-23.95-36.71-57.76-36.71-101.44
			c0-43.67,11.97-77.48,35.92-101.44c23.95-23.95,57.94-35.93,101.96-35.93c42.61,0,75.28,11.71,98,35.13
			c22.71,23.43,34.07,56.26,34.07,98.53C2457.19,538.01,2456.31,547.87,2454.54,555.61z M2273.86,507.01h99.32
			c-4.22-34.52-20.43-51.77-48.61-51.77C2296.06,455.24,2279.15,472.49,2273.86,507.01z"/>
		<path class="st0" d="M2696.18,647.01c-8.8,6-20,10.83-33.55,14.53c-13.55,3.7-27.2,5.54-40.94,5.54
			c-31.35,0-55.3-6.68-71.85-20.07c-16.56-13.38-25.01-34.87-25.36-64.45V461.58h-45.44v-63.93h45.44v-59.17l89.81-24.83v84h79.25
			v63.93h-79.25v106.19c0,23.6,11.62,35.4,34.87,35.4c14.45,0,27.12-3.87,38.04-11.62L2696.18,647.01z"/>
		<path class="st0" d="M2985.91,555.61h-180.16c2.82,16.56,8.9,28.71,18.22,36.46c9.33,7.75,21.75,11.62,37.24,11.62
			c13.04,0,23.69-2.46,31.97-7.4c8.27-4.93,13.82-12.15,16.64-21.66l72.91,23.24c-7.4,22.55-21.75,39.71-43.06,51.51
			c-21.32,11.8-47.47,17.69-78.46,17.69c-46.14,0-81.45-11.96-105.92-35.92c-24.49-23.95-36.71-57.76-36.71-101.44
			c0-43.67,11.96-77.48,35.92-101.44c23.94-23.95,57.94-35.93,101.96-35.93c42.61,0,75.28,11.71,98.01,35.13
			c22.71,23.43,34.07,56.26,34.07,98.53C2988.55,538.01,2987.67,547.87,2985.91,555.61z M2805.23,507.01h99.32
			c-4.23-34.52-20.43-51.77-48.61-51.77C2827.42,455.24,2810.51,472.49,2805.23,507.01z"/>
		<path class="st0" d="M3225.59,398.18l-9.51,76.08c-3.53-2.12-8.27-3.97-14.26-5.55c-5.98-1.58-12.33-2.38-19.02-2.38
			c-16.9,0-31,5.38-42.26,16.11c-11.27,10.75-16.9,26.15-16.9,46.22V661.8h-89.81V397.65h79.24l3.7,57.06
			c6.34-20.08,16.29-35.48,29.85-46.23c13.55-10.74,30.38-16.11,50.45-16.11C3209.04,392.37,3218.55,394.3,3225.59,398.18z"/>
		<path class="st0" d="M3665.83,416.67c16.73,16.2,25.1,39.27,25.1,69.21V661.8h-89.81V506.48c0-30.29-11.98-45.44-35.92-45.44
			c-14.1,0-25.36,5.11-33.81,15.32c-8.46,10.21-12.69,25.01-12.69,44.38V661.8h-89.81V506.48c0-30.29-11.98-45.44-35.92-45.44
			c-13.39,0-24.49,5.11-33.28,15.32c-8.81,10.21-13.21,25.54-13.21,45.96V661.8h-89.81V397.65h80.3l2.64,50.71
			c8.46-18.31,20.26-32.22,35.4-41.73c15.14-9.51,32.92-14.26,53.36-14.26c20.07,0,37.41,4.58,52.02,13.73
			c14.61,9.17,25.1,22.37,31.44,39.63c8.45-17.26,20.51-30.46,36.18-39.63c15.67-9.15,33.2-13.73,52.57-13.73
			C3627.35,392.37,3649.1,400.47,3665.83,416.67z"/>
		<path class="st0" d="M3752.42,356.7c-8.28-6.87-12.42-17.69-12.42-32.49c0-15.14,4.14-26.15,12.42-33.02
			c8.27-6.87,21.57-10.3,39.88-10.3s31.61,3.43,39.89,10.3c8.27,6.87,12.41,17.88,12.41,33.02c0,14.79-4.14,25.62-12.41,32.49
			c-8.28,6.87-21.59,10.3-39.89,10.3S3760.69,363.57,3752.42,356.7z M3837.22,661.8h-89.81V397.65h89.81V661.8z"/>
		<path class="st0" d="M4135.34,416.67c16.55,16.2,24.82,39.27,24.82,69.21V661.8h-89.81v-151.1c0-17.96-3.25-30.73-9.77-38.3
			c-6.51-7.56-15.76-11.36-27.73-11.36c-14.08,0-25.53,5.02-34.33,15.06c-8.81,10.03-13.22,25.45-13.22,46.22V661.8h-89.81V397.65
			h80.3l2.65,50.71c8.45-18.66,20.41-32.66,35.92-42c15.49-9.33,33.63-14,54.42-14C4096.59,392.37,4118.77,400.47,4135.34,416.67z"
			/>
		<path class="st0" d="M4490.18,608.45l-6.86,50.18c-10.22,5.63-22.19,8.45-35.93,8.45c-38.04,0-60.75-13.55-68.14-40.67
			c-15.85,27.13-47.2,40.67-94.04,40.67c-26.42,0-46.67-5.63-60.75-16.9c-14.1-11.27-21.14-27.64-21.14-49.13
			c0-22.54,8-40.77,24.04-54.68c16.02-13.91,42.35-24.57,78.98-31.97l59.71-11.62v-9.51c0-11.96-3.36-21.47-10.04-28.52
			c-6.69-7.04-15.85-10.57-27.47-10.57c-13.4,0-24.3,3.17-32.75,9.51c-8.46,6.34-13.93,16.73-16.38,31.17l-72.91-21.13
			c4.57-25.71,17.26-45.7,38.04-59.97c20.78-14.26,48.79-21.4,84.01-21.4c41.2,0,72.55,8.46,94.04,25.36
			c21.47,16.91,32.22,42.27,32.22,76.08v96.15c0,13.74,6.34,20.61,19.02,20.61C4480.49,610.56,4485.96,609.86,4490.18,608.45z
			 M4351.24,598.67c9.86-6.87,14.79-15.93,14.79-27.21v-22.71l-42.79,10.04c-11.28,2.82-19.28,6.25-24.04,10.3
			c-4.75,4.06-7.14,9.77-7.14,17.17c0,7.4,2.29,13.04,6.87,16.91c4.57,3.88,10.92,5.81,19.02,5.81
			C4330.29,608.97,4341.37,605.54,4351.24,598.67z"/>
		<path class="st0" d="M4707.69,647.01c-8.81,6-20,10.83-33.55,14.53c-13.57,3.7-27.2,5.54-40.94,5.54
			c-31.36,0-55.3-6.68-71.85-20.07c-16.57-13.38-25.02-34.87-25.36-64.45V461.58h-45.43v-63.93h45.43v-59.17l89.81-24.83v84h79.24
			v63.93h-79.24v106.19c0,23.6,11.63,35.4,34.87,35.4c14.43,0,27.11-3.87,38.04-11.62L4707.69,647.01z"/>
		<path class="st0" d="M4997.36,555.61h-180.16c2.82,16.56,8.9,28.71,18.22,36.46c9.33,7.75,21.75,11.62,37.24,11.62
			c13.04,0,23.69-2.46,31.97-7.4c8.27-4.93,13.82-12.15,16.64-21.66l72.91,23.24c-7.4,22.55-21.75,39.71-43.06,51.51
			c-21.32,11.8-47.47,17.69-78.46,17.69c-46.14,0-81.45-11.96-105.92-35.92c-24.49-23.95-36.71-57.76-36.71-101.44
			c0-43.67,11.96-77.48,35.92-101.44c23.94-23.95,57.94-35.93,101.96-35.93c42.61,0,75.28,11.71,98.01,35.13
			c22.71,23.43,34.06,56.26,34.06,98.53C5000,538.01,4999.12,547.87,4997.36,555.61z M4816.68,507.01H4916
			c-4.23-34.52-20.43-51.77-48.61-51.77C4838.88,455.24,4821.96,472.49,4816.68,507.01z"/>
		<path class="st0" d="M2053.89,779.55c23.42,9.86,45.17,25.88,65.24,48.06l-51.24,59.16c-11.62-17.6-25.27-30.54-40.95-38.82
			c-15.67-8.28-34.43-12.41-56.26-12.41c-18.32,0-32.41,3.17-42.26,9.51c-9.87,6.33-14.79,14.78-14.79,25.35
			c0,8.81,5.19,15.95,15.59,21.39c10.38,5.47,28.08,10.49,53.09,15.06c48.25,8.81,82.68,21.67,103.28,38.57
			c20.61,16.9,30.91,40.69,30.91,71.32c0,22.18-6.34,41.4-19.02,57.59c-12.68,16.2-30.2,28.53-52.56,36.98
			c-22.37,8.46-47.64,12.68-75.81,12.68c-39.45,0-71.5-4.84-96.15-14.53c-24.66-9.68-45.97-24.57-63.93-44.63l46.49-63.4
			c13.73,19.02,29.23,32.41,46.49,40.16c17.26,7.75,38.04,11.63,62.34,11.63c19.37,0,33.89-2.73,43.58-8.2
			c9.68-5.45,14.53-13.29,14.53-23.51c0-8.09-5.2-14.7-15.58-19.8c-10.4-5.1-27.73-9.96-52.04-14.53
			c-29.94-6-54.68-13.14-74.23-21.4c-19.54-8.27-34.69-19.45-45.43-33.55c-10.75-14.08-16.12-32.04-16.12-53.89
			c0-21.84,5.9-41.37,17.7-58.63c11.8-17.25,29.06-30.72,51.77-40.42c22.71-9.68,49.57-14.53,80.57-14.53
			C2002.19,764.75,2030.46,769.68,2053.89,779.55z"/>
		<path class="st0" d="M2334.83,1118.73c-9.87,28.17-20.6,50.53-32.22,67.1c-11.62,16.54-25.36,28.42-41.21,35.64
			c-15.85,7.22-35.05,10.85-57.58,10.85c-29.94,0-53.89-6.53-71.85-19.55l19.02-60.24c5.63,5.28,11.89,8.9,18.75,10.83
			c6.87,1.94,15.76,2.91,26.68,2.91c10.91,0,19.55-1.85,25.89-5.55c6.34-3.71,11.44-10.3,15.32-19.81l6.34-16.38l-30.64-71.84
			l-78.72-198.12h98.79l40.68,150.57l12.68,56l14.26-58.12l40.67-148.45h89.81L2334.83,1118.73z"/>
		<path class="st0" d="M2436.85,1077.51l46.49-50.71c15.14,25,41.2,37.51,78.19,37.51c12.32,0,22-1.66,29.05-5.02
			c7.04-3.33,10.57-7.82,10.57-13.47c0-4.92-3.62-9.24-10.83-12.95c-7.22-3.68-19.64-7.29-37.25-10.82
			c-39.45-7.75-67.54-18.31-84.26-31.71c-16.73-13.37-25.09-31.15-25.09-53.35c0-15.14,4.75-29.39,14.26-42.79
			c9.51-13.37,23.85-24.21,43.05-32.49c19.19-8.27,42.53-12.42,70.01-12.42c30.29,0,55.02,4.16,74.22,12.42
			c19.2,8.28,34.78,20.69,46.75,37.24l-46.49,45.43c-8.45-12.33-18.49-21.31-30.11-26.94s-25.54-8.45-41.73-8.45
			c-12.68,0-22.55,1.94-29.59,5.8c-7.05,3.89-10.56,8.65-10.56,14.28c0,5.27,3.6,9.76,10.83,13.47c7.22,3.7,19.81,7.31,37.77,10.82
			c38.74,6.69,66.66,16.65,83.74,29.85s25.63,31.26,25.63,54.14c0,25.73-10.75,46.6-32.24,62.61
			c-21.49,16.04-52.65,24.04-93.51,24.04C2505.17,1124,2462.21,1108.51,2436.85,1077.51z"/>
		<path class="st0" d="M2933.13,1103.92c-8.8,6-20,10.85-33.55,14.53c-13.55,3.71-27.2,5.55-40.94,5.55
			c-31.35,0-55.3-6.68-71.85-20.08c-16.55-13.37-25-34.86-25.35-64.45V918.49H2716v-63.92h45.44v-59.18l89.81-24.82v84h79.24v63.92
			h-79.24v106.2c0,23.59,11.62,35.39,34.86,35.39c14.45,0,27.12-3.88,38.04-11.63L2933.13,1103.92z"/>
		<path class="st0" d="M3222.8,1012.53h-180.14c2.8,16.57,8.88,28.71,18.22,36.45c9.33,7.75,21.74,11.63,37.24,11.63
			c13.02,0,23.68-2.45,31.96-7.39c8.27-4.94,13.82-12.16,16.65-21.67l72.9,23.24c-7.39,22.55-21.75,39.71-43.06,51.51
			c-21.31,11.81-47.47,17.69-78.45,17.69c-46.14,0-81.45-11.96-105.93-35.92c-24.49-23.96-36.71-57.76-36.71-101.43
			c0-43.67,11.98-77.49,35.92-101.44c23.96-23.94,57.94-35.93,101.97-35.93c42.61,0,75.28,11.71,98,35.14s34.08,56.26,34.08,98.53
			C3225.45,994.93,3224.58,1004.78,3222.8,1012.53z M3042.13,963.92h99.32c-4.22-34.51-20.44-51.76-48.61-51.76
			C3064.32,912.16,3047.42,929.41,3042.13,963.92z"/>
		<path class="st0" d="M3679.9,873.59c16.72,16.2,25.09,39.27,25.09,69.2v175.93h-89.81V963.39c0-30.29-11.98-45.43-35.92-45.43
			c-14.1,0-25.36,5.1-33.81,15.32s-12.68,25-12.68,44.38v141.06h-89.81V963.39c0-30.29-11.98-45.43-35.92-45.43
			c-13.4,0-24.49,5.1-33.28,15.32c-8.81,10.22-13.22,25.53-13.22,45.96v139.48h-89.81V854.57h80.3l2.65,50.7
			c8.45-18.29,20.25-32.21,35.39-41.72c15.14-9.51,32.94-14.28,53.36-14.28c20.08,0,37.43,4.59,52.04,13.75
			c14.61,9.16,25.1,22.37,31.43,39.63c8.46-17.26,20.51-30.47,36.2-39.63c15.66-9.16,33.19-13.75,52.57-13.75
			C3641.42,849.27,3663.17,857.39,3679.9,873.59z"/>
		<path class="st0" d="M3741.91,1077.51l46.49-50.71c15.14,25,41.2,37.51,78.2,37.51c12.31,0,22-1.66,29.05-5.02
			c7.04-3.33,10.57-7.82,10.57-13.47c0-4.92-3.61-9.24-10.82-12.95c-7.22-3.68-19.65-7.29-37.26-10.82
			c-39.45-7.75-67.53-18.31-84.26-31.71c-16.73-13.37-25.09-31.15-25.09-53.35c0-15.14,4.75-29.39,14.26-42.79
			c9.51-13.37,23.84-24.21,43.04-32.49c19.2-8.27,42.53-12.42,70.01-12.42c30.29,0,55.02,4.16,74.22,12.42
			c19.19,8.28,34.78,20.69,46.75,37.24l-46.49,45.43c-8.45-12.33-18.49-21.31-30.12-26.94c-11.62-5.63-25.53-8.45-41.73-8.45
			c-12.68,0-22.55,1.94-29.59,5.8c-7.04,3.89-10.56,8.65-10.56,14.28c0,5.27,3.6,9.76,10.82,13.47c7.22,3.7,19.81,7.31,37.77,10.82
			c38.75,6.69,66.65,16.65,83.75,29.85c17.07,13.2,25.61,31.26,25.61,54.14c0,25.73-10.75,46.6-32.22,62.61
			c-21.49,16.04-52.65,24.04-93.51,24.04C3810.23,1124,3767.27,1108.51,3741.91,1077.51z"/>
	</g>
</g>
<g>
	<linearGradient id="SVGID_1_" gradientUnits="userSpaceOnUse" x1="1430.9113" y1="138.2441" x2="835.1618" y2="733.9937">
		<stop  offset="0.1143" style="stop-color:#FAA61A"/>
		<stop  offset="0.2165" style="stop-color:#F78C28"/>
		<stop  offset="0.4035" style="stop-color:#F3623D"/>
		<stop  offset="0.5727" style="stop-color:#F0434D"/>
		<stop  offset="0.7166" style="stop-color:#EF3157"/>
		<stop  offset="0.818" style="stop-color:#EE2A5A"/>
	</linearGradient>
	<polygon class="st1" points="1510.73,654.18 1510.73,218.06 1133.04,0 755.35,218.06 755.35,654.18 1133.04,872.24 	"/>
	<linearGradient id="SVGID_2_" gradientUnits="userSpaceOnUse" x1="706.701" y1="596.149" x2="48.6791" y2="1148.2949">
		<stop  offset="0.0778" style="stop-color:#0D4BA0"/>
		<stop  offset="0.2487" style="stop-color:#0A60B1;stop-opacity:0.785"/>
		<stop  offset="0.6001" style="stop-color:#0296DB;stop-opacity:0.343"/>
		<stop  offset="0.6754" style="stop-color:#00A2E5;stop-opacity:0.2483"/>
		<stop  offset="0.903" style="stop-color:#00AEEF;stop-opacity:0.1"/>
	</linearGradient>
	<polygon class="st2" points="755.38,1090.28 755.38,654.16 377.69,436.1 0,654.16 0,1090.28 377.69,1308.34 	"/>
	<linearGradient id="SVGID_3_" gradientUnits="userSpaceOnUse" x1="1053.2524" y1="356.2832" x2="457.503" y2="952.0327">
		<stop  offset="0.1187" style="stop-color:#D01B8E;stop-opacity:0.9"/>
		<stop  offset="0.2207" style="stop-color:#B82492;stop-opacity:0.8856"/>
		<stop  offset="0.4361" style="stop-color:#7B3B9E;stop-opacity:0.8551"/>
		<stop  offset="0.745" style="stop-color:#1A5FB0;stop-opacity:0.8114"/>
		<stop  offset="0.8257" style="stop-color:#0069B5;stop-opacity:0.8"/>
	</linearGradient>
	<polygon class="st3" points="1133.07,872.22 1133.07,436.1 755.38,218.04 377.69,436.1 377.69,872.22 755.38,1090.28 	"/>
</g>
</svg>
